<?xml version="1.0" encoding="utf-8"?>
<!-- Generator: Adobe Illustrator 18.1.1, SVG Export Plug-In . SVG Version: 6.00 Build 0)  -->
<svg version="1.1" id="Layer_1" xmlns="http://www.w3.org/2000/svg" xmlns:xlink="http://www.w3.org/1999/xlink" x="0px" y="0px"
	 viewBox="0 0 674.8 548.4" enable-background="new 0 0 674.8 548.4" xml:space="preserve">
<g>
	<path opacity="0.5" fill="#626366" d="M674.8,330.2c0-17.8-8.5-33.5-21.8-43.4c10.6-15.5,16.8-34.2,16.8-54.3
		c0-11.1-1.9-21.7-5.3-31.6c3.4-10.3,5.3-21.3,5.3-32.8c0-57.2-46.3-103.5-103.5-103.5c-13.8,0-27,2.7-39.1,7.6
		c-16.5-35.1-52.3-59.5-93.7-59.5c-30.2,0-57.3,12.9-76.2,33.5C332,22.5,298.1,8,260.8,8c-66.6,0-122.5,46.1-137.4,108.2
		C64.4,117.3,17,165.4,17,224.7c0,8.5,1,16.8,2.8,24.8C10.6,259.2,5,272.3,5,286.7c0,16.5,7.4,31.3,19.1,41.3
		c-8.8,15.7-13.9,33.8-13.9,53.1c0,56.4,43,102.7,98,108c31.4,36.3,77.8,59.3,129.6,59.3c45.3,0,86.5-17.6,117.1-46.3
		c18.4,14.3,41.5,22.8,66.6,22.8c23.4,0,45-7.4,62.7-19.9c16.7,10.6,36.6,16.7,57.8,16.7c59.9,0,108.5-48.6,108.5-108.5
		c0-12.1-2-23.6-5.6-34.5C662.6,369.8,674.8,351.4,674.8,330.2z"/>
	<path fill="#FFFFFF" d="M669.8,322.2c0-17.8-8.5-33.5-21.8-43.4c10.6-15.5,16.8-34.2,16.8-54.3c0-11.1-1.9-21.7-5.3-31.6
		c3.4-10.3,5.3-21.3,5.3-32.8c0-57.2-46.3-103.5-103.5-103.5c-13.8,0-27,2.7-39.1,7.6C505.6,29,469.9,4.7,428.5,4.7
		c-30.2,0-57.3,12.9-76.2,33.5C327,14.5,293.1,0,255.8,0c-66.6,0-122.5,46.1-137.4,108.2C59.4,109.3,12,157.4,12,216.7
		c0,8.5,1,16.8,2.8,24.8C5.6,251.2,0,264.3,0,278.7C0,295.2,7.4,310,19.1,320c-8.8,15.7-13.9,33.8-13.9,53.1c0,56.4,43,102.7,98,108
		c31.4,36.3,77.8,59.3,129.6,59.3c45.3,0,86.5-17.6,117.1-46.3c18.4,14.3,41.5,22.8,66.6,22.8c23.4,0,45-7.4,62.7-19.9
		c16.7,10.6,36.6,16.7,57.8,16.7c59.9,0,108.5-48.6,108.5-108.5c0-12.1-2-23.6-5.6-34.5C657.6,361.8,669.8,343.4,669.8,322.2z"/>
</g>
</svg>
