<?xml version="1.0" encoding="utf-8"?>
<!-- Generator: Adobe Illustrator 18.1.1, SVG Export Plug-In . SVG Version: 6.00 Build 0)  -->
<svg version="1.1" id="Layer_1" xmlns="http://www.w3.org/2000/svg" xmlns:xlink="http://www.w3.org/1999/xlink" x="0px" y="0px"
	 viewBox="0 0 810 583.7" enable-background="new 0 0 810 583.7" xml:space="preserve">
<g>
	<path opacity="0.5" fill="#626366" d="M810,307.9c0-47.7-34.6-87.3-80-95.1c8.9-15.3,14-33.1,14-52c0-57.2-46.3-103.5-103.5-103.5
		c-16.5,0-32,3.8-45.8,10.7C579.1,30.4,542.2,4,499,4c-31.4,0-59.5,14-78.5,36.1c-25-22.4-58-36.1-94.2-36.1
		c-70.9,0-129.6,52.3-139.7,120.4c-16-9.3-34.7-14.7-54.5-14.7c-59.9,0-108.5,48.6-108.5,108.5c0,20.2,5.5,39,15.1,55.2
		c-9.3,9.7-15.1,23-15.1,37.5c0,14,5.3,26.8,14,36.4C16.9,367,4,394.9,4,425.7c0,59.9,48.6,108.5,108.5,108.5
		c20.6,0,39.9-5.7,56.3-15.7c31.4,39.7,79.9,65.2,134.5,65.2c45.3,0,86.5-17.6,117.1-46.3c18.4,14.3,41.5,22.8,66.6,22.8
		c35.9,0,67.8-17.5,87.5-44.4c10.4,3.3,21.5,5.1,33,5.1c59.9,0,108.5-48.6,108.5-108.5c0-2.7-0.1-5.4-0.3-8.1
		C768,403.2,810,360.5,810,307.9z"/>
	<path fill="#FFFFFF" d="M806,303.9c0-47.7-34.6-87.3-80-95.1c8.9-15.3,14-33.1,14-52c0-57.2-46.3-103.5-103.5-103.5
		c-16.5,0-32,3.8-45.8,10.7C575.1,26.4,538.2,0,495,0c-31.4,0-59.5,14-78.5,36.1c-25-22.4-58-36.1-94.2-36.1
		c-70.9,0-129.6,52.3-139.7,120.4c-16-9.3-34.7-14.7-54.5-14.7c-59.9,0-108.5,48.6-108.5,108.5c0,20.2,5.5,39,15.1,55.2
		c-9.3,9.7-15.1,23-15.1,37.5c0,14,5.3,26.8,14,36.4C12.9,363,0,390.9,0,421.7c0,59.9,48.6,108.5,108.5,108.5
		c20.6,0,39.9-5.7,56.3-15.7c31.4,39.7,79.9,65.2,134.5,65.2c45.3,0,86.5-17.6,117.1-46.3c18.4,14.3,41.5,22.8,66.6,22.8
		c35.9,0,67.8-17.5,87.5-44.4c10.4,3.3,21.5,5.1,33,5.1c59.9,0,108.5-48.6,108.5-108.5c0-2.7-0.1-5.4-0.3-8.1
		C764,399.2,806,356.5,806,303.9z"/>
</g>
</svg>
