<?xml version="1.0" encoding="utf-8"?>
<!-- Generator: Adobe Illustrator 18.1.1, SVG Export Plug-In . SVG Version: 6.00 Build 0)  -->
<svg version="1.1" id="Layer_1" xmlns="http://www.w3.org/2000/svg" xmlns:xlink="http://www.w3.org/1999/xlink" x="0px" y="0px"
	 viewBox="0 0 696.3 649.4" enable-background="new 0 0 696.3 649.4" xml:space="preserve">
<g>
	<path opacity="0.5" fill="#626366" d="M696.3,399.7c0-28.6-10.3-54.8-27.4-75.1c8.5-17.9,13.2-37.9,13.2-59.1
		c0-19.3-4-37.7-11.1-54.4c6-13.1,9.4-27.7,9.4-43.1c0-57.2-46.3-103.5-103.5-103.5c-13.8,0-27,2.7-39.1,7.6
		c-16.5-35.1-52.3-59.5-93.7-59.5c-30.2,0-57.3,12.9-76.2,33.5C342.7,22.5,308.7,8,271.4,8C204.7,8,148.9,54.1,134,116.2
		c-59,1.1-106.4,49.3-106.4,108.5c0,6.2,0.5,12.4,1.5,18.3C15.7,252.8,7,268.8,7,286.7c0,16.4,7.3,31.1,18.9,41.1
		c-6.6,16.3-10.2,34.2-10.2,52.9c0,16.2,2.7,31.7,7.7,46.2C13,443.5,7,463.1,7,484.1C7,544,55.6,592.6,115.5,592.6
		c1.8,0,3.6,0,5.4-0.1c31.4,34.9,76.9,56.9,127.5,56.9c30.7,0,59.6-8.1,84.5-22.3c21.4,14.1,47.1,22.3,74.6,22.3
		c39.1,0,74.4-16.5,99.2-42.9c13.9,6.5,29.5,10.2,45.9,10.2c59.9,0,108.5-48.6,108.5-108.5c0-7.8-0.8-15.5-2.4-22.8
		C681.8,464.1,696.3,433.6,696.3,399.7z"/>
	<path fill="#FFFFFF" d="M689.3,391.7c0-28.6-10.3-54.8-27.4-75.1c8.5-17.9,13.2-37.9,13.2-59.1c0-19.3-4-37.7-11.1-54.4
		c6-13.1,9.4-27.7,9.4-43.1c0-57.2-46.3-103.5-103.5-103.5c-13.8,0-27,2.7-39.1,7.6C514.3,29,478.5,4.7,437.1,4.7
		c-30.2,0-57.3,12.9-76.2,33.5C335.7,14.5,301.7,0,264.4,0C197.7,0,141.9,46.1,127,108.2c-59,1.1-106.4,49.3-106.4,108.5
		c0,6.2,0.5,12.4,1.5,18.3C8.7,244.8,0,260.8,0,278.7c0,16.4,7.3,31.1,18.9,41.1C12.3,336.1,8.6,354,8.6,372.7
		c0,16.2,2.7,31.7,7.7,46.2C6,435.5,0,455.1,0,476.1C0,536,48.6,584.6,108.5,584.6c1.8,0,3.6,0,5.4-0.1
		c31.4,34.9,76.9,56.9,127.5,56.9c30.7,0,59.6-8.1,84.5-22.3c21.4,14.1,47.1,22.3,74.6,22.3c39.1,0,74.4-16.5,99.2-42.9
		c13.9,6.5,29.5,10.2,45.9,10.2c59.9,0,108.5-48.6,108.5-108.5c0-7.8-0.8-15.5-2.4-22.8C674.8,456.1,689.3,425.6,689.3,391.7z"/>
</g>
</svg>
