<?xml version="1.0" encoding="utf-8"?>
<!-- Generator: Adobe Illustrator 18.1.1, SVG Export Plug-In . SVG Version: 6.00 Build 0)  -->
<svg version="1.1" id="Layer_1" xmlns="http://www.w3.org/2000/svg" xmlns:xlink="http://www.w3.org/1999/xlink" x="0px" y="0px"
	 viewBox="0 0 468.7 61" enable-background="new 0 0 468.7 61" xml:space="preserve">
<g>
	<g>
		<path opacity="0.5" fill="#626366" enable-background="new    " d="M0,37.6C26.9,52.5,57.8,61,90.7,61
			c49.6,0,94.6-19.3,128.1-50.7c20.1,15.6,45.4,24.9,72.9,24.9c25.6,0,49.2-8.1,68.6-21.8c18.3,11.6,40,18.3,63.2,18.3
			c16,0,31.2-3.2,45.1-8.9V0H0V37.6z"/>
	</g>
	<path fill="#FFFFFF" d="M0,0v31.8c25.6,13.1,54.5,20.5,85.2,20.5c49.6,0,94.6-19.3,128.1-50.7c20.1,15.6,45.4,24.9,72.9,24.9
		c25.6,0,49.2-8.1,68.6-21.8C373.1,16.4,394.9,23,418,23c18.1,0,35.3-4.1,50.6-11.3V0H0z"/>
</g>
</svg>
