<?xml version="1.0" encoding="utf-8"?>
<!-- Generator: Adobe Illustrator 18.1.1, SVG Export Plug-In . SVG Version: 6.00 Build 0)  -->
<svg version="1.1" id="Layer_1" xmlns="http://www.w3.org/2000/svg" xmlns:xlink="http://www.w3.org/1999/xlink" x="0px" y="0px"
	 viewBox="0 0 58.4 45" enable-background="new 0 0 58.4 45" xml:space="preserve">
<g>
	<path fill="#626366" d="M29.2,18.7c-4.2,0-7.6,3.4-7.6,7.6s3.4,7.6,7.6,7.6s7.6-3.4,7.6-7.6S33.4,18.7,29.2,18.7z"/>
	<path fill="#626366" d="M50.8,7.6h-8.8c0-4.2-3.4-7.6-7.6-7.6H24c-4.2,0-7.6,3.4-7.6,7.6H7.6C3.4,7.6,0,11,0,15.2v22.2
		C0,41.6,3.4,45,7.6,45h43.2c4.2,0,7.6-3.4,7.6-7.6V15.2C58.4,11,55,7.6,50.8,7.6z M29.2,39.7c-7.4,0-13.4-6-13.4-13.4
		s6-13.4,13.4-13.4s13.4,6,13.4,13.4S36.6,39.7,29.2,39.7z"/>
</g>
</svg>
