<?xml version="1.0" encoding="utf-8"?>
<!-- Generator: Adobe Illustrator 18.1.1, SVG Export Plug-In . SVG Version: 6.00 Build 0)  -->
<svg version="1.1" id="Layer_1" xmlns="http://www.w3.org/2000/svg" xmlns:xlink="http://www.w3.org/1999/xlink" x="0px" y="0px"
	 viewBox="0 0 16 15" enable-background="new 0 0 16 15" xml:space="preserve">
<g>
	<g>
		<path fill="#626366" d="M13.5,9c0.3,0,0.6,0,0.9,0.1c1-1.3,1.6-2.8,1.6-4.5C16,2.1,14,0,11.4,0C10.1,0,8.8,0.6,8,1.6
			C7.2,0.6,5.9,0,4.6,0C2,0,0,2.1,0,4.7C0,10.5,8,14,8,14s0.9-0.4,2-1.1c0-0.1,0-0.3,0-0.4C10,10.6,11.6,9,13.5,9z"/>
	</g>
	<path fill="#626366" d="M13.5,10c-1.4,0-2.5,1.1-2.5,2.5s1.1,2.5,2.5,2.5c1.4,0,2.5-1.1,2.5-2.5S14.9,10,13.5,10z M15,13h-1v1h-1
		v-1h-1v-1h1v-1h1v1h1V13z"/>
</g>
</svg>
