<?xml version="1.0" encoding="utf-8"?>
<!-- Generator: Adobe Illustrator 18.1.1, SVG Export Plug-In . SVG Version: 6.00 Build 0)  -->
<svg version="1.1" id="Layer_1" xmlns="http://www.w3.org/2000/svg" xmlns:xlink="http://www.w3.org/1999/xlink" x="0px" y="0px"
	 viewBox="0 0 1280 178.9" enable-background="new 0 0 1280 178.9" xml:space="preserve">
<g>
	
		<linearGradient id="SVGID_1_" gradientUnits="userSpaceOnUse" x1="1321.3188" y1="-67.1358" x2="2956.8391" y2="589.0297" gradientTransform="matrix(-1 0 0 -1 3012.4524 503.1001)">
		<stop  offset="5.102040e-03" style="stop-color:#26A995"/>
		<stop  offset="1" style="stop-color:#26A995"/>
	</linearGradient>
	<path fill="url(#SVGID_1_)" d="M1280,135.6c-31.1-33.6-76.9-54.9-128.1-54.9c-49.4,0-93.8,19.8-124.8,51.5
		c-48-42.5-112.6-68.6-183.7-68.6c-64.1,0-122.9,21.2-169,56.4C656.5,51.2,590.3,0,511.4,0c-56.6,0-106.6,26.3-137,66.7
		c-11.4-1.4-23.1-2.2-34.9-2.2c-83.7,0-158.4,36.2-207.3,92.8c-12.7-2.9-26-4.5-39.6-4.5c-34.2,0-66,9.6-92.5,26.1h1280V135.6z"/>
</g>
</svg>
