<?xml version="1.0" encoding="utf-8"?>
<!-- Generator: Adobe Illustrator 18.1.1, SVG Export Plug-In . SVG Version: 6.00 Build 0)  -->
<svg version="1.1" id="Layer_1" xmlns="http://www.w3.org/2000/svg" xmlns:xlink="http://www.w3.org/1999/xlink" x="0px" y="0px"
	 viewBox="0 0 545.4 211.6" enable-background="new 0 0 545.4 211.6" xml:space="preserve">
<g>
	<rect x="0" y="11" fill="#1BAB95" width="75.2" height="87.8"/>
	<g>
		<path fill="#FFFFFF" d="M57.7,75.9c0,2.7-1.4,4.1-4.2,4.1h-3.2c-1.5,0-2.6-0.3-3.3-0.9c-0.8-0.6-1.1-1.7-1.1-3.2v-18
			c-1.7,0-4.4,0.1-8.3,0.1c-1,0-1.9,0-2.7,0c-0.8,0-1.8,0-3,0c-1.2,0-2,0-2.6-0.1v18c0,2.7-1.4,4.1-4.1,4.1H22
			c-1.5,0-2.6-0.3-3.4-0.9c-0.8-0.6-1.2-1.7-1.2-3.1V33.5c0-1.6,0.4-2.6,1.3-3.1c0.9-0.5,1.9-0.7,3.2-0.7h3.2c2.7,0,4.1,1.3,4.1,3.8
			v14.9c1.7,0,4.4-0.1,8.3-0.1c3.9,0,6.6,0,8.3,0.1V33.5c0-1.6,0.4-2.6,1.3-3.1c0.9-0.5,1.9-0.7,3.2-0.7h3.2c2.8,0,4.2,1.3,4.2,3.8
			V75.9z"/>
	</g>
	<rect x="77.9" y="29.8" fill="#1BAB95" width="75.2" height="87.8"/>
	<g>
		<path fill="#FFFFFF" d="M131.5,95c0,2.5-1.4,3.8-4.1,3.8h-23.4c-1.5,0-2.6-0.3-3.4-0.9c-0.8-0.6-1.2-1.7-1.2-3.1V52.4
			c0-1.6,0.4-2.6,1.3-3.1c0.9-0.5,1.9-0.7,3.2-0.7h23.4c2.7,0,4.1,1.3,4.1,3.8v2c0,1.2-0.3,2.2-0.8,3c-0.5,0.8-1.6,1.2-3.3,1.2
			c-2,0-3.5,0-4.7,0c-1.2,0-2.6,0-4.2-0.1c-1.6,0-3,0-4.2-0.1c-1.2,0-2.2,0-2.9,0V68c1.8,0,3.6-0.1,5.5-0.1c1.9,0,3.3-0.1,4-0.1
			c0.7,0,2.4,0,4.8,0c2.8,0,4.2,1.4,4.2,4.3v1c0,2.8-1.4,4.3-4.2,4.3c-2.1,0-4.2,0-6.6-0.1c-2.3,0-4.9-0.1-7.8-0.1v11.8
			c2,0,4.1-0.1,6.3-0.1c2.3,0,3.8-0.1,4.6-0.1c0.8,0,2.5,0,5.1,0c1.7,0,2.8,0.4,3.3,1.2c0.5,0.8,0.8,1.8,0.8,3V95z"/>
	</g>
	<rect x="156.7" y="0" fill="#1BAB95" width="75.2" height="87.8"/>
	<g>
		<path fill="#FFFFFF" d="M217.5,66.1c0,2-1.2,3-3.5,3h-4.2c-1.3,0-2.3-0.3-2.9-0.8c-0.6-0.6-1.1-1.3-1.5-2.3l-2.4-6.2
			c-2.4,0-5.4,0.1-9,0.1c-4.1,0-7.1,0-9-0.1l-2.1,5.7c-0.4,1.2-1,2.1-1.6,2.7c-0.6,0.6-1.6,0.9-3.1,0.9H175c-1.6,0-2.6-0.2-3.1-0.7
			c-0.5-0.5-0.7-1.1-0.7-2c0-0.4,0.2-1.2,0.7-2.5l15.5-41.6c0.3-0.9,0.7-1.6,1.1-2.1c0.4-0.6,0.9-1,1.6-1.3c0.7-0.3,1.5-0.4,2.6-0.4
			h3.1c1.5,0,2.7,0.3,3.5,0.9c0.8,0.6,1.4,1.5,1.8,2.8l16.3,42.4C217.4,65.3,217.5,65.8,217.5,66.1z M199.9,51l-5.8-16.7L188.3,51
			c0.9,0,1.7,0,2.5-0.1c0.8,0,1.9,0,3.3,0c1.3,0,2.4,0,3.2,0C198.1,51,198.9,51,199.9,51z"/>
	</g>
	<rect x="235.1" y="12.6" fill="#1BAB95" width="75.2" height="87.8"/>
	<g>
		<path fill="#FFFFFF" d="M287.6,77.8c0,2.5-1.3,3.8-4,3.8h-21.2c-1.5,0-2.6-0.3-3.4-0.9c-0.8-0.6-1.2-1.7-1.2-3.1V35.2
			c0-1.6,0.4-2.6,1.3-3.1c0.9-0.5,1.9-0.7,3.2-0.7h3.2c2.7,0,4.1,1.3,4.1,3.8v36.5c5.1-0.1,9.7-0.1,13.9-0.1c2.7,0,4,1.4,4,4.3V77.8
			z"/>
	</g>
	<rect x="78.4" y="120.7" fill="#1BAB95" width="75.2" height="87.8"/>
	<g>
		<path fill="#FFFFFF" d="M130.9,185.9c0,2.5-1.3,3.8-4,3.8h-21.2c-1.5,0-2.6-0.3-3.4-0.9s-1.2-1.7-1.2-3.1v-42.4
			c0-1.6,0.4-2.6,1.3-3.1c0.9-0.5,1.9-0.7,3.2-0.7h3.2c2.7,0,4.1,1.3,4.1,3.8v36.5c5.1-0.1,9.7-0.1,13.9-0.1c2.7,0,4,1.4,4,4.3
			V185.9z"/>
	</g>
	<rect x="156.7" y="90.9" fill="#1BAB95" width="75.2" height="87.8"/>
	<rect x="313.4" y="32.9" fill="#1BAB95" width="75.2" height="87.8"/>
	<g>
		<path fill="#FFFFFF" d="M371.3,57.5c0,2.8-1.3,4.3-4,4.3c-2.9,0-6.3,0-10.3-0.1v36.3c0,2.7-1.4,4.1-4.1,4.1h-3.2
			c-1.5,0-2.6-0.3-3.4-0.9c-0.7-0.6-1.1-1.7-1.1-3.2V61.6c-4,0.1-7.5,0.1-10.3,0.1c-1.7,0-2.8-0.4-3.3-1.2c-0.5-0.8-0.8-1.8-0.8-3
			v-2c0-2.5,1.4-3.8,4.1-3.8h32.4c2.7,0,4,1.3,4,3.8V57.5z"/>
	</g>
	<rect x="391.8" y="1.6" fill="#1BAB95" width="75.2" height="87.8"/>
	<g>
		<path fill="#FFFFFF" d="M449.5,66.5c0,2.7-1.4,4.1-4.2,4.1h-3.2c-1.5,0-2.6-0.3-3.3-0.9c-0.8-0.6-1.1-1.7-1.1-3.2v-18
			c-1.7,0-4.4,0.1-8.3,0.1c-1,0-1.9,0-2.7,0c-0.8,0-1.8,0-3,0c-1.2,0-2,0-2.6-0.1v18c0,2.7-1.4,4.1-4.1,4.1h-3.2
			c-1.5,0-2.6-0.3-3.4-0.9c-0.8-0.6-1.2-1.7-1.2-3.1V24.1c0-1.6,0.4-2.6,1.3-3.1c0.9-0.5,1.9-0.7,3.2-0.7h3.2c2.7,0,4.1,1.3,4.1,3.8
			v14.9c1.7,0,4.4-0.1,8.3-0.1c3.9,0,6.6,0,8.3,0.1V24.1c0-1.6,0.4-2.6,1.3-3.1c0.9-0.5,1.9-0.7,3.2-0.7h3.2c2.8,0,4.2,1.3,4.2,3.8
			V66.5z"/>
	</g>
	<rect x="470.2" y="32.9" fill="#1BAB95" width="75.2" height="87.8"/>
	<g>
		<path fill="#FFFFFF" d="M529.3,54.8c0,0.9-0.2,1.8-0.7,2.6l-14.8,25.1v15.4c0,2.7-1.3,4.1-4,4.1h-3.3c-1.5,0-2.6-0.3-3.3-0.9
			c-0.8-0.6-1.1-1.7-1.1-3.2V83l-15-25.6c-0.5-1-0.8-1.9-0.8-2.6c0-1.2,0.4-2,1.2-2.4c0.8-0.5,1.6-0.7,2.6-0.7h4.1
			c1.2,0,2.1,0.2,2.8,0.6c0.7,0.4,1.2,1.1,1.7,1.9l9.5,16.5l9.7-16.5c0.5-0.9,1.1-1.5,1.7-1.9c0.6-0.4,1.6-0.6,2.8-0.6h3.3
			c1.2,0,2.2,0.3,2.8,0.9C529,53.2,529.3,53.9,529.3,54.8z"/>
	</g>
	<g>
		<path fill="#FFFFFF" d="M200.2,155.8c0,2.7-1.3,4.1-4,4.1h-3.3c-1.5,0-2.6-0.3-3.3-0.9c-0.8-0.6-1.1-1.7-1.1-3.2v-42.4
			c0-1.6,0.4-2.6,1.3-3.1c0.9-0.5,1.9-0.7,3.2-0.7h3.3c2.7,0,4,1.3,4,3.8V155.8z"/>
	</g>
	<rect x="313.4" y="123.8" fill="#1BAB95" width="75.2" height="87.8"/>
	<g>
		<path fill="#FFFFFF" d="M357,188.7c0,2.7-1.3,4.1-4,4.1h-3.3c-1.5,0-2.6-0.3-3.3-0.9c-0.8-0.6-1.1-1.7-1.1-3.2v-42.4
			c0-1.6,0.4-2.6,1.3-3.1c0.9-0.5,1.9-0.7,3.2-0.7h3.3c2.7,0,4,1.3,4,3.8V188.7z"/>
	</g>
	<rect x="391.8" y="92.5" fill="#1BAB95" width="75.2" height="87.8"/>
	<rect x="235.1" y="103.5" fill="#1BAB95" width="75.2" height="87.8"/>
	<g>
		<path fill="#FFFFFF" d="M296,124.9c0,0.5-0.2,1.4-0.6,2.5l-15.5,41.4c-0.5,1.3-1.1,2.2-1.8,2.8c-0.7,0.6-1.9,0.9-3.5,0.9h-3.5
			c-1.5,0-2.6-0.3-3.4-0.9c-0.7-0.6-1.4-1.5-1.9-2.9l-16.2-42.1c-0.2-0.6-0.3-1.1-0.3-1.4c0-1.2,0.4-2,1.1-2.4
			c0.7-0.4,1.5-0.6,2.4-0.6h4.6c2.2,0,3.7,1.1,4.4,3.2l11.1,30.5l10.8-30.1c0.4-1.2,1-2.1,1.6-2.7c0.7-0.6,1.7-0.9,3.1-0.9h3.7
			c1.6,0,2.6,0.2,3.1,0.6C295.8,123.3,296,124,296,124.9z"/>
	</g>
	<g>
		<path fill="#FFFFFF" d="M450.7,157.4c0,2.7-1.4,4.1-4.1,4.1h-2.2c-1.2,0-2.2-0.1-2.9-0.3c-0.7-0.2-1.4-0.7-2.1-1.5
			c-4.7-6.1-11.3-15.2-19.7-27.3v25.1c0,2.7-1.4,4.1-4.2,4.1h-2.9c-1.5,0-2.6-0.3-3.4-0.9c-0.8-0.6-1.2-1.7-1.2-3.1V115
			c0-1.6,0.4-2.6,1.3-3.1c0.9-0.5,1.9-0.7,3.2-0.7h2c0.8,0,1.4,0,1.8,0.1c0.5,0.1,0.9,0.2,1.4,0.5c0.4,0.3,0.9,0.7,1.3,1.2
			c2.5,3.3,9.2,12.5,19.9,27.5V115c0-1.6,0.4-2.6,1.3-3.1c0.9-0.5,1.9-0.7,3.2-0.7h3c2.7,0,4.1,1.3,4.1,3.8V157.4z"/>
	</g>
	<rect x="470.2" y="123.8" fill="#1BAB95" width="75.2" height="87.8"/>
	<g>
		<path fill="#FFFFFF" d="M527.1,187.5c0,1.3-0.3,2.3-0.9,3c-0.6,0.7-1.6,1.2-3,1.6c-3.3,1-7.4,1.4-12.2,1.4
			c-4.5,0-8.2-0.5-11.2-1.6c-3-1.1-5.3-2.7-6.9-4.8c-1.7-2.1-2.8-4.8-3.5-7.9c-0.7-3.2-1-6.9-1-11.2c0-7.1,0.8-12.5,2.4-16.3
			c1.6-3.8,4-6.4,7.2-7.8c3.2-1.4,7.5-2.1,13-2.1c2.1,0,4,0,5.8,0.1c1.8,0.1,3.6,0.2,5.4,0.4c1.8,0.1,3,0.5,3.7,1s1,1.3,1,2.4v2.5
			c0,1.7-0.3,2.8-0.8,3.4c-0.5,0.6-1.5,0.9-3,0.9c-0.6,0-1.9-0.1-3.8-0.3c-1.7-0.2-3.9-0.3-6.8-0.3c-3.8,0-6.5,0.3-7.9,0.9
			c-1.3,0.6-2.2,1.5-2.8,2.7c-0.6,1.3-1,2.7-1.1,4.4c-0.1,1.7-0.2,4.1-0.2,7.2v0.9c0,3.3,0.1,5.8,0.3,7.7c0.2,1.8,0.8,3.4,1.7,4.8
			c0.9,1.3,2.4,2.2,4.3,2.5c1.2,0.2,3,0.3,5.7,0.3c0.2,0,1.1-0.1,2.7-0.3v-12h-6c-1.7,0-2.8-0.4-3.3-1.2c-0.5-0.8-0.8-1.8-0.8-3v-1
			c0-1.2,0.3-2.2,0.8-3c0.5-0.8,1.6-1.2,3.3-1.2H523c2.7,0,4.1,1.3,4.1,3.9V187.5z"/>
	</g>
</g>
</svg>
