<?xml version="1.0" encoding="utf-8"?>
<!-- Generator: Adobe Illustrator 18.1.1, SVG Export Plug-In . SVG Version: 6.00 Build 0)  -->
<svg version="1.1" id="Layer_1" xmlns="http://www.w3.org/2000/svg" xmlns:xlink="http://www.w3.org/1999/xlink" x="0px" y="0px"
	 viewBox="0.1 458.3 768 107.3" enable-background="new 0.1 458.3 768 107.3" xml:space="preserve">
<g>
	<path fill="#F7AD40" d="M768,539.7c-18.7-20.2-46.1-32.9-76.9-32.9c-29.6,0-56.3,11.9-74.9,30.9c-28.8-25.5-67.6-41.2-110.2-41.2
		c-38.5,0-73.7,12.7-101.4,33.8c-10.7-41.3-50.5-72-97.8-72c-34,0-64,15.8-82.2,40c-6.8-0.8-13.9-1.3-20.9-1.3
		c-50.2,0-95,21.7-124.4,55.7c-7.6-1.7-15.6-2.7-23.8-2.7C35,550,16,555.8,0.1,565.7h768L768,539.7L768,539.7z"/>
</g>
</svg>
