<?xml version="1.0" encoding="utf-8"?>
<!-- Generator: Adobe Illustrator 18.1.1, SVG Export Plug-In . SVG Version: 6.00 Build 0)  -->
<svg version="1.1" id="Layer_1" xmlns="http://www.w3.org/2000/svg" xmlns:xlink="http://www.w3.org/1999/xlink" x="0px" y="0px"
	 viewBox="0 0 830 239.9" enable-background="new 0 0 830 239.9" xml:space="preserve">
<g>
	<g>
		<g>
			<rect x="0" y="57.2" fill="#19AA95" width="114.5" height="133.6"/>
			<g>
				<path fill="#FFFFFF" d="M82.9,138.1c0,7.9-0.8,13.2-2.3,16c-1.4,2.5-3.4,4.4-6.1,5.8c-2.6,1.3-5.6,2.2-8.7,2.6
					c-3.2,0.4-6.5,0.6-10.1,0.6c-5.4,0-11-0.3-17-0.8c-2.7-0.2-4.5-0.7-5.6-1.6c-1-0.8-1.5-2-1.5-3.6v-3.8c0-2.6,0.4-4.3,1.2-5.2
					c0.8-0.9,2.3-1.4,4.5-1.4c1.5,0,3.9,0.1,7.1,0.4c3.1,0.3,7.4,0.4,13,0.4c2.8,0,4.7-0.1,5.6-0.3c1-0.2,1.6-0.7,1.9-1.4
					c0.3-0.7,0.4-2.1,0.4-4.1v-3.2c0-1.6-0.2-2.8-0.6-3.4c-0.4-0.7-1.3-1.3-2.7-1.8c-3.9-1.6-8.7-3.5-14.5-5.8
					c-4.5-1.9-7.7-3.6-9.7-5.1c-2-1.5-3.4-3.4-4.2-5.9c-0.8-2.4-1.2-6-1.2-10.7c0-3.9,0.4-7.3,1.2-10.1c0.8-2.8,2.4-5.1,4.7-6.9
					c2.3-1.8,5.6-3,9.9-3.6c2.1-0.3,5.8-0.4,11.1-0.4h1.7c3.3,0,7.7,0.2,13.2,0.6c2.7,0.1,4.6,0.6,5.6,1.5c1,0.8,1.6,2.1,1.6,3.7
					v3.7c0,2.5-0.4,4.3-1.2,5.2c-0.8,0.9-2.3,1.4-4.6,1.4c-0.6,0-2.4-0.1-5.2-0.3c-2.9-0.2-5.2-0.3-7.1-0.3c-1.4,0-2.7-0.1-3.9-0.1
					c-1.2,0-2.7,0-4.5,0c-2.1,0-3.5,0.4-4.1,1.1c-0.6,0.8-0.9,2.2-0.9,4.2v1.4c0,1.6,0.2,2.8,0.5,3.4c0.4,0.7,1.3,1.3,2.7,1.9
					c1.3,0.5,3.1,1.2,5.3,2.1c2.2,0.9,3.6,1.4,4.2,1.7c6.2,2.6,10.6,4.6,13.2,6.1c2.6,1.5,4.4,3.4,5.4,5.7
					C82.4,130.3,82.9,133.7,82.9,138.1z"/>
			</g>
			<rect x="119.9" y="23.9" fill="#19AA95" width="114.5" height="133.6"/>
			<g>
				<path fill="#FFFFFF" d="M204.6,124.3c0,1.6-0.5,2.8-1.6,3.7c-1,0.8-2.9,1.3-5.6,1.5c-5.1,0.4-9.5,0.6-13.2,0.6
					c-6.8,0-12.5-0.8-17-2.4c-4.5-1.6-8-4-10.6-7.3c-2.5-3.2-4.3-7.2-5.3-12c-1-4.8-1.5-10.5-1.5-17.1c0-10.8,1.2-19.1,3.7-24.9
					c2.5-5.8,6.1-9.7,11-11.9c4.9-2.1,11.5-3.2,19.7-3.2c3.3,0,7.7,0.2,13.2,0.6c2.7,0.1,4.6,0.6,5.6,1.5c1,0.8,1.6,2.1,1.6,3.7v3.7
					c0,2.5-0.4,4.3-1.2,5.2c-0.8,0.9-2.3,1.4-4.6,1.4c-0.7,0-2.5-0.1-5.3-0.3c-2.8-0.2-5.2-0.3-7-0.3c-5.8,0-9.8,0.5-12,1.4
					c-2,0.9-3.4,2.2-4.3,4.2c-0.9,1.9-1.5,4.2-1.7,6.7c-0.2,2.6-0.3,6.2-0.3,11v1.3c0,5,0.2,8.9,0.5,11.7c0.3,2.8,1.2,5.2,2.6,7.3
					c1.4,2,3.6,3.3,6.6,3.9c1.8,0.3,4.6,0.4,8.6,0.4c0.7,0,2.5-0.1,5.4-0.3c2.8-0.2,5.2-0.3,7-0.3c2.3,0,3.8,0.5,4.6,1.4
					c0.8,0.9,1.2,2.7,1.2,5.3V124.3z"/>
			</g>
			<rect x="238.5" y="38.2" fill="#19AA95" width="114.5" height="133.6"/>
			<g>
				<path fill="#FFFFFF" d="M304.7,137c0,4.1-2,6.2-6.1,6.2h-5c-2.2,0-3.9-0.5-5.1-1.4c-1.2-0.9-1.7-2.5-1.7-4.8V72.5
					c0-2.4,0.7-3.9,2-4.7c1.3-0.7,2.9-1.1,4.8-1.1h5c4.1,0,6.1,1.9,6.1,5.8V137z"/>
			</g>
			<rect x="357.8" y="57.2" fill="#19AA95" width="114.5" height="133.6"/>
			<g>
				<path fill="#FFFFFF" d="M439.3,156.4c0,3.9-2.1,5.8-6.2,5.8h-35.6c-2.2,0-3.9-0.5-5.1-1.4c-1.2-1-1.8-2.5-1.8-4.8V91.6
					c0-2.4,0.7-3.9,2-4.7c1.3-0.7,3-1.1,4.9-1.1h35.6c4.1,0,6.2,1.9,6.2,5.8v3c0,1.8-0.4,3.3-1.2,4.6c-0.8,1.3-2.5,1.9-5,1.9
					c-3,0-5.4,0-7.2-0.1c-1.8,0-4-0.1-6.4-0.1c-2.4,0-4.6-0.1-6.5-0.1c-1.9,0-3.4-0.1-4.4-0.1v14.6c2.7-0.1,5.5-0.1,8.4-0.2
					c2.9-0.1,5-0.1,6.1-0.1c1.1,0,3.6,0,7.4,0c4.2,0,6.3,2.2,6.3,6.5v1.5c0,4.3-2.1,6.5-6.3,6.5c-3.1,0-6.5,0-10-0.1
					c-3.5-0.1-7.5-0.1-11.9-0.2v18c3-0.1,6.2-0.1,9.6-0.2c3.4-0.1,5.8-0.1,7-0.1c1.2,0,3.8,0,7.8,0c2.6,0,4.2,0.6,5,1.9
					c0.8,1.2,1.2,2.8,1.2,4.6V156.4z"/>
			</g>
			<rect x="477" y="23.9" fill="#19AA95" width="114.5" height="133.6"/>
			<g>
				<path fill="#FFFFFF" d="M566.6,122.7c0,4.1-2.1,6.2-6.2,6.2H557c-1.8,0-3.3-0.2-4.4-0.5c-1.1-0.4-2.1-1.1-3.1-2.3
					c-7.2-9.2-17.1-23.1-30-41.5v38.1c0,4.1-2.1,6.2-6.3,6.2h-4.5c-2.2,0-3.9-0.5-5.1-1.4s-1.8-2.5-1.8-4.8V58.2
					c0-2.4,0.7-3.9,2-4.7c1.3-0.7,3-1.1,4.9-1.1h3c1.2,0,2.1,0.1,2.8,0.2c0.7,0.1,1.4,0.4,2.1,0.8c0.7,0.4,1.3,1,2,1.9
					c3.9,5.1,14,19,30.4,41.8V58.2c0-2.4,0.7-3.9,2-4.7c1.3-0.7,3-1.1,4.9-1.1h4.6c4.1,0,6.2,1.9,6.2,5.8V122.7z"/>
			</g>
			<rect x="596.3" y="4.8" fill="#19AA95" width="114.5" height="133.6"/>
			<g>
				<path fill="#FFFFFF" d="M680.9,105.2c0,1.6-0.5,2.8-1.6,3.7c-1,0.8-2.9,1.3-5.6,1.5c-5.1,0.4-9.5,0.6-13.2,0.6
					c-6.8,0-12.5-0.8-17-2.4c-4.5-1.6-8-4-10.6-7.3c-2.5-3.2-4.3-7.2-5.3-12c-1-4.8-1.5-10.5-1.5-17.1c0-10.8,1.2-19.1,3.7-24.9
					c2.5-5.8,6.1-9.7,11-11.9c4.9-2.1,11.5-3.2,19.7-3.2c3.3,0,7.7,0.2,13.2,0.6c2.7,0.1,4.6,0.6,5.6,1.5c1,0.8,1.6,2.1,1.6,3.7v3.7
					c0,2.5-0.4,4.3-1.2,5.2c-0.8,0.9-2.3,1.4-4.6,1.4c-0.7,0-2.5-0.1-5.3-0.3c-2.8-0.2-5.2-0.3-7-0.3c-5.8,0-9.8,0.5-12,1.4
					c-2,0.9-3.4,2.2-4.3,4.2c-0.9,1.9-1.5,4.2-1.7,6.7c-0.2,2.6-0.3,6.2-0.3,11v1.3c0,5,0.2,8.9,0.5,11.7s1.2,5.2,2.6,7.3
					c1.4,2,3.6,3.3,6.6,3.9c1.8,0.3,4.6,0.4,8.6,0.4c0.7,0,2.5-0.1,5.4-0.3c2.8-0.2,5.2-0.3,7-0.3c2.3,0,3.8,0.5,4.6,1.4
					c0.8,0.9,1.2,2.7,1.2,5.3V105.2z"/>
			</g>
			<rect x="715.5" y="38.2" fill="#19AA95" width="114.5" height="133.6"/>
			<g>
				<path fill="#FFFFFF" d="M797.1,137.4c0,3.9-2.1,5.8-6.2,5.8h-35.6c-2.2,0-3.9-0.5-5.1-1.4c-1.2-1-1.8-2.5-1.8-4.8V72.5
					c0-2.4,0.7-3.9,2-4.7c1.3-0.7,3-1.1,4.9-1.1h35.6c4.1,0,6.2,1.9,6.2,5.8v3c0,1.8-0.4,3.3-1.2,4.6c-0.8,1.3-2.5,1.9-5,1.9
					c-3,0-5.4,0-7.2-0.1c-1.8,0-4-0.1-6.4-0.1c-2.4,0-4.6-0.1-6.5-0.1c-1.9,0-3.4-0.1-4.4-0.1v14.6c2.7-0.1,5.5-0.1,8.4-0.2
					c2.9-0.1,5-0.1,6.1-0.1c1.1,0,3.6,0,7.4,0c4.2,0,6.3,2.2,6.3,6.5v1.5c0,4.3-2.1,6.5-6.3,6.5c-3.1,0-6.5,0-10-0.1
					c-3.5-0.1-7.5-0.1-11.9-0.2v18c3-0.1,6.2-0.1,9.6-0.2c3.4-0.1,5.8-0.1,7-0.1c1.2,0,3.8,0,7.8,0c2.6,0,4.2,0.6,5,1.9
					c0.8,1.2,1.2,2.8,1.2,4.6V137.4z"/>
			</g>
			<rect x="0" y="0" fill="#19AA95" width="114.5" height="52.5"/>
			<g>
				<path fill="#FFFFFF" d="M36.6,14.7c0,1.8-0.9,2.7-2.6,2.7c-1.8,0-4,0-6.5-0.1v23c0,1.7-0.9,2.6-2.6,2.6h-2.1
					c-0.9,0-1.7-0.2-2.1-0.6c-0.5-0.4-0.7-1.1-0.7-2v-23c-2.5,0.1-4.7,0.1-6.5,0.1c-1.1,0-1.8-0.3-2.1-0.8c-0.3-0.5-0.5-1.2-0.5-1.9
					v-1.3c0-1.6,0.9-2.4,2.6-2.4H34c1.7,0,2.6,0.8,2.6,2.4V14.7z"/>
				<path fill="#FFFFFF" d="M66.8,40.3c0,1.7-0.9,2.6-2.6,2.6h-2c-0.9,0-1.6-0.2-2.1-0.6c-0.5-0.4-0.7-1.1-0.7-2V28.9
					c-1.1,0-2.8,0-5.3,0c-0.6,0-1.2,0-1.7,0c-0.5,0-1.1,0-1.9,0c-0.7,0-1.3,0-1.6,0v11.4c0,1.7-0.9,2.6-2.6,2.6h-2.1
					c-0.9,0-1.6-0.2-2.1-0.6c-0.5-0.4-0.7-1.1-0.7-2V13.5c0-1,0.3-1.6,0.8-2c0.6-0.3,1.2-0.5,2-0.5h2.1c1.7,0,2.6,0.8,2.6,2.4v9.5
					c1.1,0,2.8,0,5.2,0c2.5,0,4.2,0,5.3,0v-9.5c0-1,0.3-1.6,0.8-2c0.5-0.3,1.2-0.5,2-0.5h2c1.8,0,2.6,0.8,2.6,2.4V40.3z"/>
				<path fill="#FFFFFF" d="M94,40.5c0,1.6-0.9,2.4-2.6,2.4H76.6c-0.9,0-1.6-0.2-2.1-0.6c-0.5-0.4-0.7-1.1-0.7-2V13.5
					c0-1,0.3-1.6,0.8-2c0.6-0.3,1.2-0.5,2-0.5h14.8c1.7,0,2.6,0.8,2.6,2.4v1.3c0,0.7-0.2,1.4-0.5,1.9c-0.3,0.5-1,0.8-2.1,0.8
					c-1.2,0-2.2,0-3,0c-0.8,0-1.6,0-2.7,0c-1,0-1.9,0-2.7,0c-0.8,0-1.4,0-1.9,0v6.1c1.1,0,2.3-0.1,3.5-0.1c1.2,0,2.1,0,2.5,0
					c0.5,0,1.5,0,3.1,0c1.8,0,2.6,0.9,2.6,2.7v0.6c0,1.8-0.9,2.7-2.6,2.7c-1.3,0-2.7,0-4.2,0c-1.5,0-3.1-0.1-4.9-0.1v7.5
					c1.2,0,2.6-0.1,4-0.1c1.4,0,2.4,0,2.9,0c0.5,0,1.6,0,3.3,0c1.1,0,1.8,0.3,2.1,0.8c0.3,0.5,0.5,1.2,0.5,1.9V40.5z"/>
			</g>
			<g>
				<rect x="596.3" y="143.1" fill="#19AA95" width="114.5" height="52.5"/>
				<g>
					<path fill="#FFFFFF" d="M655.6,170.1c0,3.3-0.4,6.2-1.3,8.7c-0.9,2.5-2.4,4.5-4.5,6c-2.1,1.5-4.9,2.2-8.4,2.2
						c-2.7,0-4.9-0.4-6.7-1.3c-1.8-0.9-3.3-2.1-4.4-3.6c-1.1-1.5-1.9-3.3-2.3-5.3c-0.5-2-0.7-4.2-0.7-6.7c0-2.5,0.2-4.7,0.7-6.7
						c0.5-2,1.2-3.8,2.3-5.3c1.1-1.5,2.6-2.7,4.4-3.6c1.8-0.9,4.1-1.3,6.8-1.3c3.5,0,6.3,0.7,8.4,2.2c2.1,1.5,3.6,3.5,4.5,6
						C655.1,163.9,655.6,166.8,655.6,170.1z M647.8,170.1c0-1.6-0.1-3.1-0.2-4.5c-0.1-1.4-0.4-2.5-0.8-3.2c-0.8-1.7-2.6-2.6-5.5-2.6
						c-2.8,0-4.6,0.9-5.5,2.6c-0.7,1.4-1,4-1,7.8c0,3.7,0.3,6.3,1,7.7c0.8,1.8,2.7,2.7,5.5,2.7c2.8,0,4.7-0.9,5.5-2.7
						C647.5,176.5,647.8,173.9,647.8,170.1z"/>
					<path fill="#FFFFFF" d="M681,157.8c0,1.8-0.9,2.7-2.6,2.7c-1.6,0-2.6,0-3.1,0c-0.5,0-1.4,0-2.6,0c-1.2,0-2.4-0.1-3.5-0.1v6.1
						c3.1-0.1,5.9-0.1,8.3-0.1c1.7,0,2.6,0.9,2.6,2.7v0.6c0,0.7-0.2,1.4-0.5,1.9c-0.3,0.5-1,0.8-2.1,0.8c-1.2,0-2.4,0-3.8,0
						c-1.3,0-2.9-0.1-4.6-0.1v11.2c0,1.7-0.9,2.6-2.6,2.6h-2.1c-0.9,0-1.6-0.2-2.1-0.6s-0.7-1.1-0.7-2v-26.9c0-1,0.3-1.6,0.8-2
						c0.6-0.3,1.2-0.5,2-0.5h13.9c1.8,0,2.6,0.8,2.6,2.4V157.8z"/>
				</g>
			</g>
			<g>
				<rect x="715.5" y="176.5" fill="#19AA95" width="114.5" height="52.5"/>
				<g>
					<path fill="#FFFFFF" d="M772.9,199.8c0,3.2,0,5.5-0.1,7c-0.1,1.5-0.2,3-0.5,4.3c-0.4,2.3-1.2,4.2-2.3,5.5
						c-1.1,1.3-2.5,2.2-4.3,2.8c-1.7,0.5-3.9,0.8-6.4,0.8c-2.5,0-4.7-0.3-6.4-0.8c-1.8-0.5-3.2-1.5-4.3-2.8
						c-1.1-1.3-1.9-3.1-2.3-5.5c-0.2-1-0.3-1.9-0.4-2.9c-0.1-0.9-0.1-2-0.1-3.1c0-1.1,0-2.9,0-5.4V190c0-1,0.3-1.6,0.8-2
						c0.6-0.3,1.2-0.5,2-0.5h2c0.9,0,1.6,0.2,2,0.7c0.4,0.4,0.6,1,0.6,1.8v13.6c0,1.8,0,3.1,0.1,4.1c0.1,1,0.2,1.8,0.3,2.4
						c0.1,0.6,0.3,1.2,0.5,1.6c0.3,0.7,0.9,1.2,1.6,1.5c0.7,0.3,1.9,0.5,3.5,0.5c1.6,0,2.8-0.2,3.6-0.5c0.7-0.3,1.2-0.8,1.5-1.5
						c0.4-0.8,0.6-1.7,0.8-2.7c0.1-1,0.2-2.8,0.2-5.4V190c0-1,0.3-1.6,0.9-2c0.6-0.3,1.3-0.5,2.1-0.5h2.1c1.7,0,2.5,0.8,2.5,2.4
						V199.8z"/>
					<path fill="#FFFFFF" d="M800.1,209.4c0,3.3-0.3,5.5-1,6.7c-0.6,1-1.4,1.8-2.5,2.4c-1.1,0.6-2.3,0.9-3.6,1.1s-2.7,0.3-4.2,0.3
						c-2.2,0-4.6-0.1-7.1-0.3c-1.1-0.1-1.9-0.3-2.3-0.7c-0.4-0.3-0.6-0.8-0.6-1.5v-1.6c0-1.1,0.2-1.8,0.5-2.2c0.3-0.4,1-0.6,1.9-0.6
						c0.6,0,1.6,0.1,3,0.2c1.3,0.1,3.1,0.2,5.4,0.2c1.2,0,1.9,0,2.3-0.1c0.4-0.1,0.7-0.3,0.8-0.6c0.1-0.3,0.2-0.9,0.2-1.7v-1.4
						c0-0.7-0.1-1.2-0.2-1.4c-0.2-0.3-0.5-0.5-1.1-0.8c-1.6-0.7-3.6-1.5-6.1-2.4c-1.9-0.8-3.2-1.5-4-2.1c-0.8-0.6-1.4-1.4-1.7-2.4
						c-0.3-1-0.5-2.5-0.5-4.5c0-1.6,0.2-3,0.5-4.2c0.3-1.2,1-2.1,2-2.9c1-0.8,2.3-1.3,4.1-1.5c0.9-0.1,2.4-0.2,4.6-0.2h0.7
						c1.4,0,3.2,0.1,5.5,0.2c1.1,0.1,1.9,0.3,2.4,0.6c0.4,0.3,0.7,0.9,0.7,1.5v1.5c0,1.1-0.2,1.8-0.5,2.2c-0.3,0.4-1,0.6-1.9,0.6
						c-0.3,0-1,0-2.2-0.1c-1.2-0.1-2.2-0.1-3-0.1c-0.6,0-1.1,0-1.6,0c-0.5,0-1.1,0-1.9,0c-0.9,0-1.4,0.2-1.7,0.5
						c-0.2,0.3-0.4,0.9-0.4,1.8v0.6c0,0.7,0.1,1.2,0.2,1.4c0.1,0.3,0.5,0.5,1.1,0.8c0.5,0.2,1.3,0.5,2.2,0.9
						c0.9,0.4,1.5,0.6,1.8,0.7c2.6,1.1,4.4,1.9,5.5,2.6c1.1,0.6,1.8,1.4,2.2,2.4C799.9,206.2,800.1,207.6,800.1,209.4z"/>
				</g>
			</g>
		</g>
	</g>
	<g>
		<g>
			<rect x="279.3" y="195.7" fill="#19AA95" width="271.5" height="44.2"/>
			<g>
				<path fill="#FFFFFF" d="M306.7,223.7c0,0.8-0.4,1.2-1.3,1.2h-8.6c-0.8,0-1.2-0.4-1.2-1.2v-0.8c0-0.2,0-0.4,0.1-0.6
					s0.2-0.4,0.4-0.6s0.3-0.4,0.5-0.5s0.3-0.3,0.6-0.6c0.9-0.9,1.5-1.5,1.8-1.8s0.7-0.7,1-1s0.6-0.6,0.7-0.7s0.2-0.3,0.4-0.5
					c0.6-0.7,1-1.3,1.4-1.8s0.5-1,0.5-1.6c0-0.6-0.1-1-0.3-1.2s-0.6-0.3-1.2-0.3c-0.6,0-1.1,0-1.7,0.1s-1,0.1-1.4,0.2
					s-0.6,0.1-0.7,0.1c-0.3,0-0.5-0.1-0.6-0.2s-0.3-0.2-0.3-0.4s-0.1-0.4-0.1-0.6s-0.1-0.5-0.1-0.7c0-0.1,0-0.2,0-0.3
					c0-0.6,0.4-1,1.2-1.1c1.6-0.2,2.8-0.3,3.7-0.3c0.8,0,1.6,0.1,2.2,0.3s1.2,0.4,1.6,0.8s0.8,0.8,1,1.3s0.4,1.1,0.4,1.9
					c0,0.9-0.2,1.8-0.5,2.7s-0.8,1.6-1.4,2.3s-1.3,1.5-2.2,2.2s-1.5,1.4-2.1,1.9c1.1,0,2.1-0.1,2.8-0.1s1.5,0,2.2,0
					c0.9,0,1.3,0.5,1.3,1.4V223.7z"/>
				<path fill="#FFFFFF" d="M321.7,216.9c0,1.6-0.2,2.9-0.5,4.2s-0.9,2.2-1.9,3s-2.2,1.2-3.8,1.2c-1.7,0-2.9-0.4-3.9-1.2
					s-1.5-1.8-1.9-3s-0.5-2.6-0.5-4.2s0.2-3,0.5-4.2s0.9-2.2,1.9-3s2.2-1.2,3.9-1.2c1.6,0,2.9,0.4,3.9,1.2s1.5,1.8,1.9,3
					S321.7,215.4,321.7,216.9z M318,216.9c0-0.7,0-1.2-0.1-1.8s-0.1-1-0.2-1.5s-0.2-0.8-0.3-1c-0.3-0.6-0.9-0.9-1.9-0.9
					c-1,0-1.7,0.3-1.9,0.9c-0.4,0.8-0.6,2.2-0.6,4.2s0.2,3.4,0.6,4.2c0.3,0.6,0.9,0.9,1.9,0.9c1,0,1.6-0.3,1.9-0.9
					c0.1-0.2,0.2-0.5,0.3-1s0.2-0.9,0.2-1.5S318,217.6,318,216.9z"/>
				<path fill="#FFFFFF" d="M330.8,223.7c0,0.9-0.4,1.3-1.2,1.3h-0.9c-0.5,0-0.9-0.1-1.2-0.3s-0.4-0.5-0.4-1v-11.1
					c-0.8,0.3-1.2,0.5-1.4,0.5c-0.5,0-0.7-0.2-0.9-0.5s-0.2-0.7-0.2-1.2c0-0.3,0.1-0.6,0.2-0.8s0.4-0.4,0.7-0.5
					c0.1,0,0.4-0.2,1.1-0.4s1.2-0.5,1.6-0.6s0.9-0.2,1.4-0.2c0.4,0,0.7,0.1,0.9,0.4s0.3,0.5,0.3,0.9V223.7z"/>
				<path fill="#FFFFFF" d="M346.9,220c0,0.8-0.4,1.3-1.3,1.3h-0.4v2.4c0,0.9-0.4,1.3-1.2,1.3h-0.6c-0.5,0-0.9-0.1-1.2-0.3
					s-0.4-0.5-0.4-1v-2.4h-4.5h-1.3c-0.5,0-0.8-0.2-1-0.7s-0.4-0.9-0.4-1.4c0-0.4,0.1-0.8,0.4-1.1l6.6-8.5c0.3-0.4,0.7-0.6,1-0.6
					h1.3c0.4,0,0.7,0.1,0.9,0.4s0.3,0.5,0.3,0.9v7.8h0.4c0.9,0,1.3,0.5,1.3,1.4V220z M341.9,218.1v-4.1l-3.2,4.3c0.2,0,0.5,0,0.8,0
					s0.7,0,1.1,0S341.4,218.1,341.9,218.1z"/>
				<path fill="#FFFFFF" d="M369,224c0,0.6-0.4,1-1.1,1h-1.3c-0.4,0-0.7-0.1-0.9-0.3s-0.4-0.4-0.5-0.7l-0.8-2c-0.8,0-1.7,0-2.9,0
					c-1.3,0-2.3,0-2.9,0l-0.7,1.8c-0.1,0.4-0.3,0.7-0.5,0.9s-0.5,0.3-1,0.3h-1.1c-0.5,0-0.8-0.1-1-0.2s-0.2-0.4-0.2-0.6
					c0-0.1,0.1-0.4,0.2-0.8l4.9-13.3c0.1-0.3,0.2-0.5,0.3-0.7s0.3-0.3,0.5-0.4s0.5-0.1,0.8-0.1h1c0.5,0,0.9,0.1,1.1,0.3
					s0.4,0.5,0.6,0.9l5.2,13.5C368.9,223.7,369,223.9,369,224z M363.3,219.2l-1.9-5.3l-1.8,5.3c0.3,0,0.6,0,0.8,0s0.6,0,1.1,0
					c0.4,0,0.8,0,1,0S363,219.2,363.3,219.2z"/>
				<path fill="#FFFFFF" d="M384.3,223.7c0,0.9-0.4,1.3-1.3,1.3h-0.7c-0.4,0-0.7,0-0.9-0.1s-0.4-0.2-0.7-0.5
					c-1.5-1.9-3.6-4.8-6.3-8.7v8c0,0.9-0.4,1.3-1.3,1.3h-0.9c-0.5,0-0.8-0.1-1.1-0.3s-0.4-0.5-0.4-1v-13.5c0-0.5,0.1-0.8,0.4-1
					s0.6-0.2,1-0.2h0.6c0.2,0,0.4,0,0.6,0s0.3,0.1,0.4,0.2s0.3,0.2,0.4,0.4c0.8,1.1,2.9,4,6.4,8.8v-8.1c0-0.5,0.1-0.8,0.4-1
					s0.6-0.2,1-0.2h1c0.9,0,1.3,0.4,1.3,1.2V223.7z"/>
				<path fill="#FFFFFF" d="M401,223.7c0,0.9-0.4,1.3-1.3,1.3h-0.7c-0.4,0-0.7,0-0.9-0.1s-0.4-0.2-0.7-0.5c-1.5-1.9-3.6-4.8-6.3-8.7
					v8c0,0.9-0.4,1.3-1.3,1.3h-0.9c-0.5,0-0.8-0.1-1.1-0.3s-0.4-0.5-0.4-1v-13.5c0-0.5,0.1-0.8,0.4-1s0.6-0.2,1-0.2h0.6
					c0.2,0,0.4,0,0.6,0s0.3,0.1,0.4,0.2s0.3,0.2,0.4,0.4c0.8,1.1,2.9,4,6.4,8.8v-8.1c0-0.5,0.1-0.8,0.4-1s0.6-0.2,1-0.2h1
					c0.9,0,1.3,0.4,1.3,1.2V223.7z"/>
				<path fill="#FFFFFF" d="M417.5,215.1c0,1.6,0,2.8-0.1,3.5s-0.1,1.5-0.2,2.2c-0.2,1.2-0.6,2.1-1.2,2.7s-1.3,1.1-2.1,1.4
					s-1.9,0.4-3.2,0.4s-2.4-0.1-3.2-0.4s-1.6-0.7-2.2-1.4s-0.9-1.6-1.1-2.7c-0.1-0.5-0.1-1-0.2-1.5s-0.1-1-0.1-1.5s0-1.5,0-2.7v-4.9
					c0-0.5,0.1-0.8,0.4-1s0.6-0.2,1-0.2h1c0.5,0,0.8,0.1,1,0.3s0.3,0.5,0.3,0.9v6.8c0,0.9,0,1.6,0,2.1s0.1,0.9,0.2,1.2
					s0.2,0.6,0.3,0.8c0.2,0.4,0.4,0.6,0.8,0.8s1,0.2,1.8,0.2c0.8,0,1.4-0.1,1.8-0.2s0.6-0.4,0.8-0.8c0.2-0.4,0.3-0.8,0.4-1.3
					s0.1-1.4,0.1-2.7v-6.8c0-0.5,0.1-0.8,0.4-1s0.6-0.2,1-0.2h1c0.8,0,1.3,0.4,1.3,1.2V215.1z"/>
				<path fill="#FFFFFF" d="M433.4,224c0,0.6-0.4,1-1.1,1H431c-0.4,0-0.7-0.1-0.9-0.3s-0.4-0.4-0.5-0.7l-0.8-2c-0.8,0-1.7,0-2.9,0
					c-1.3,0-2.3,0-2.9,0l-0.7,1.8c-0.1,0.4-0.3,0.7-0.5,0.9c-0.2,0.2-0.5,0.3-1,0.3h-1.1c-0.5,0-0.8-0.1-1-0.2s-0.2-0.4-0.2-0.6
					c0-0.1,0.1-0.4,0.2-0.8l4.9-13.3c0.1-0.3,0.2-0.5,0.3-0.7s0.3-0.3,0.5-0.4s0.5-0.1,0.8-0.1h1c0.5,0,0.9,0.1,1.1,0.3
					s0.4,0.5,0.6,0.9l5.2,13.5C433.4,223.7,433.4,223.9,433.4,224z M427.8,219.2l-1.9-5.3l-1.8,5.3c0.3,0,0.6,0,0.8,0s0.6,0,1.1,0
					c0.4,0,0.8,0,1,0S427.5,219.2,427.8,219.2z"/>
				<path fill="#FFFFFF" d="M444.7,223.7c0,0.8-0.4,1.2-1.3,1.2h-6.8c-0.5,0-0.8-0.1-1.1-0.3s-0.4-0.5-0.4-1v-13.5
					c0-0.5,0.1-0.8,0.4-1s0.6-0.2,1-0.2h1c0.9,0,1.3,0.4,1.3,1.2v11.6c1.6,0,3.1,0,4.4,0c0.9,0,1.3,0.5,1.3,1.4V223.7z"/>
				<path fill="#FFFFFF" d="M464.1,224.1c0,0.6-0.4,0.9-1.1,0.9h-1.4c-0.4,0-0.7,0-0.9-0.1s-0.5-0.3-0.8-0.6l-4-4.9h-0.3v4.3
					c0,0.9-0.4,1.3-1.3,1.3h-1c-0.5,0-0.8-0.1-1.1-0.3s-0.4-0.5-0.4-1v-13.5c0-0.5,0.1-0.8,0.4-1s0.6-0.2,1-0.2h4.5
					c1.3,0,2.2,0.1,2.8,0.2s1.1,0.5,1.6,1c0.5,0.4,0.8,1.1,1,1.8s0.3,1.7,0.3,2.7c0,2.5-1,4-3,4.5l3.4,3.9
					C464,223.4,464.1,223.7,464.1,224.1z M459.5,214.4L459.5,214.4c0-1.3-0.2-2-0.5-2.2c-0.2-0.1-0.7-0.2-1.6-0.2h-0.1
					c-0.8,0-1.4,0-1.8,0v4h2.4c0.5,0,0.9,0,1.1-0.1s0.3-0.2,0.4-0.5S459.5,215,459.5,214.4z"/>
				<path fill="#FFFFFF" d="M476.4,223.7c0,0.8-0.4,1.2-1.3,1.2h-7.5c-0.5,0-0.8-0.1-1.1-0.3s-0.4-0.5-0.4-1v-13.5
					c0-0.5,0.1-0.8,0.4-1s0.6-0.2,1-0.2h7.5c0.9,0,1.3,0.4,1.3,1.2v0.6c0,0.4-0.1,0.7-0.2,1s-0.5,0.4-1.1,0.4c-0.6,0-1.1,0-1.5,0
					s-0.8,0-1.3,0s-1,0-1.4,0s-0.7,0-0.9,0v3.1c0.6,0,1.2,0,1.8,0s1,0,1.3,0s0.8,0,1.5,0c0.9,0,1.3,0.5,1.3,1.4v0.3
					c0,0.9-0.4,1.4-1.3,1.4c-0.7,0-1.4,0-2.1,0s-1.6,0-2.5,0v3.8c0.6,0,1.3,0,2,0s1.2,0,1.5,0s0.8,0,1.6,0c0.5,0,0.9,0.1,1.1,0.4
					s0.2,0.6,0.2,1V223.7z"/>
				<path fill="#FFFFFF" d="M490.6,214.6c0,1.2-0.2,2.2-0.5,3s-0.9,1.4-1.7,1.8c-0.5,0.2-1,0.4-1.5,0.4s-1.2,0.1-2.1,0.1h-2v3.7
					c0,0.9-0.4,1.3-1.3,1.3h-1c-0.5,0-0.8-0.1-1.1-0.3s-0.4-0.5-0.4-1v-13.5c0-0.5,0.1-0.8,0.4-1s0.6-0.2,1-0.2h4.5
					c1.3,0,2.2,0.1,2.8,0.2s1.1,0.5,1.6,1c0.5,0.4,0.8,1.1,1,1.8S490.6,213.6,490.6,214.6z M486.8,214.7v-0.3c0-1.3-0.2-2-0.5-2.2
					c-0.2-0.1-0.7-0.2-1.5-0.2h-0.3c-0.8,0-1.4,0-1.7,0v4.6h2.4h0c0.7,0,1.2-0.1,1.3-0.3C486.8,216.2,486.8,215.7,486.8,214.7z"/>
				<path fill="#FFFFFF" d="M506.9,217c0,1.7-0.2,3.1-0.7,4.4s-1.2,2.3-2.2,3s-2.5,1.1-4.2,1.1c-1.3,0-2.5-0.2-3.4-0.7
					s-1.7-1-2.2-1.8s-0.9-1.7-1.2-2.7s-0.4-2.1-0.4-3.4c0-1.3,0.1-2.4,0.3-3.4s0.6-1.9,1.2-2.7s1.3-1.4,2.2-1.8s2.1-0.6,3.4-0.6
					c1.8,0,3.2,0.4,4.2,1.1s1.8,1.7,2.2,3S506.9,215.3,506.9,217z M503,217c0-0.8,0-1.6-0.1-2.3s-0.2-1.2-0.4-1.6
					c-0.4-0.9-1.3-1.3-2.8-1.3c-1.4,0-2.3,0.4-2.7,1.3c-0.3,0.7-0.5,2-0.5,3.9c0,1.9,0.2,3.2,0.5,3.9c0.4,0.9,1.3,1.3,2.7,1.3
					c1.4,0,2.3-0.4,2.8-1.3C502.8,220.1,503,218.8,503,217z"/>
				<path fill="#FFFFFF" d="M521.8,224.1c0,0.6-0.4,0.9-1.1,0.9h-1.4c-0.4,0-0.7,0-0.9-0.1s-0.5-0.3-0.8-0.6l-4-4.9h-0.3v4.3
					c0,0.9-0.4,1.3-1.3,1.3h-1c-0.5,0-0.8-0.1-1.1-0.3s-0.4-0.5-0.4-1v-13.5c0-0.5,0.1-0.8,0.4-1s0.6-0.2,1-0.2h4.5
					c1.3,0,2.2,0.1,2.8,0.2s1.1,0.5,1.6,1c0.5,0.4,0.8,1.1,1,1.8s0.3,1.7,0.3,2.7c0,2.5-1,4-3,4.5l3.4,3.9
					C521.6,223.4,521.8,223.7,521.8,224.1z M517.2,214.4L517.2,214.4c0-1.3-0.2-2-0.5-2.2c-0.2-0.1-0.7-0.2-1.6-0.2H515
					c-0.8,0-1.4,0-1.8,0v4h2.4c0.5,0,0.9,0,1.1-0.1s0.3-0.2,0.4-0.5S517.2,215,517.2,214.4z"/>
				<path fill="#FFFFFF" d="M535.7,210.8c0,0.9-0.4,1.4-1.3,1.4c-0.9,0-2,0-3.3,0v11.6c0,0.9-0.4,1.3-1.3,1.3h-1
					c-0.5,0-0.8-0.1-1.1-0.3s-0.4-0.5-0.4-1v-11.6c-1.3,0-2.4,0-3.3,0c-0.5,0-0.9-0.1-1.1-0.4s-0.2-0.6-0.2-1v-0.6
					c0-0.8,0.4-1.2,1.3-1.2h10.3c0.9,0,1.3,0.4,1.3,1.2V210.8z"/>
			</g>
		</g>
	</g>
</g>
</svg>
