<?xml version="1.0" encoding="utf-8"?>
<!-- Generator: Adobe Illustrator 18.1.1, SVG Export Plug-In . SVG Version: 6.00 Build 0)  -->
<svg version="1.1" id="Layer_1" xmlns="http://www.w3.org/2000/svg" xmlns:xlink="http://www.w3.org/1999/xlink" x="0px" y="0px"
	 viewBox="0 0 750.1 454" enable-background="new 0 0 750.1 454" xml:space="preserve">
<g>
	<g>
		<defs>
			<filter id="Adobe_OpacityMaskFilter" filterUnits="userSpaceOnUse" x="1.9" y="0.7" width="748.3" height="446.3">
				<feFlood  style="flood-color:white;flood-opacity:1" result="back"/>
				<feBlend  in="SourceGraphic" in2="back" mode="normal"/>
			</filter>
		</defs>
		<mask maskUnits="userSpaceOnUse" x="1.9" y="0.7" width="748.3" height="446.3" id="SVGID_1_">
			<g filter="url(#Adobe_OpacityMaskFilter)">
				<defs>
					<filter id="Adobe_OpacityMaskFilter_1_" filterUnits="userSpaceOnUse" x="1.9" y="0.7" width="748.3" height="446.3">
						<feFlood  style="flood-color:white;flood-opacity:1" result="back"/>
						<feBlend  in="SourceGraphic" in2="back" mode="normal"/>
					</filter>
				</defs>
				<mask maskUnits="userSpaceOnUse" x="1.9" y="0.7" width="748.3" height="446.3" id="SVGID_1_">
				</mask>
				<linearGradient id="SVGID_2_" gradientUnits="userSpaceOnUse" x1="86.7387" y1="440.6375" x2="438.9839" y2="201.7073">
					<stop  offset="0" style="stop-color:#E6E6E6"/>
					<stop  offset="0.7347" style="stop-color:#FFFFFF"/>
					<stop  offset="1" style="stop-color:#FFFFFF"/>
				</linearGradient>
				<path mask="url(#SVGID_1_)" fill="url(#SVGID_2_)" stroke="#FFFFFF" stroke-miterlimit="10" d="M630.6,137.5c-0.3,0-0.5,0-0.8,0
					c0.5-3.1,0.8-6.3,0.8-9.6c0-41.2-41.9-74.6-93.5-74.6c-20,0-38.5,5-53.7,13.5c-27-39.2-79.3-65.7-139.3-65.7
					c-75.7,0-139,42.2-155,98.8c-12.5-3.3-25.7-5-39.3-5C68.4,95,2.4,157.2,2.4,234c0,76.8,66.1,139,147.5,139
					c5.9,0,11.8-0.3,17.6-1c7.9,34.5,45.8,60.6,91.3,60.6c37.1,0,69.2-17.4,84-42.6c20.1,33.3,63.7,56.4,114.3,56.4
					c59.7,0,109.8-32.3,122.9-75.6c15.4,7.5,32.6,11.7,50.7,11.7c65.7,0,119-54.9,119-122.5C749.6,192.4,696.4,137.5,630.6,137.5z"
					/>
			</g>
		</mask>
		<linearGradient id="SVGID_3_" gradientUnits="userSpaceOnUse" x1="86.7387" y1="440.6375" x2="438.9839" y2="201.7073">
			<stop  offset="0" style="stop-color:#FFFFFF"/>
			<stop  offset="0.7347" style="stop-color:#EBECEC"/>
			<stop  offset="1" style="stop-color:#FFFFFF"/>
		</linearGradient>
		<path fill="url(#SVGID_3_)" stroke="#FFFFFF" stroke-miterlimit="10" d="M630.6,137.5c-0.3,0-0.5,0-0.8,0c0.5-3.1,0.8-6.3,0.8-9.6
			c0-41.2-41.9-74.6-93.5-74.6c-20,0-38.5,5-53.7,13.5c-27-39.2-79.3-65.7-139.3-65.7c-75.7,0-139,42.2-155,98.8
			c-12.5-3.3-25.7-5-39.3-5C68.4,95,2.4,157.2,2.4,234c0,76.8,66.1,139,147.5,139c5.9,0,11.8-0.3,17.6-1
			c7.9,34.5,45.8,60.6,91.3,60.6c37.1,0,69.2-17.4,84-42.6c20.1,33.3,63.7,56.4,114.3,56.4c59.7,0,109.8-32.3,122.9-75.6
			c15.4,7.5,32.6,11.7,50.7,11.7c65.7,0,119-54.9,119-122.5C749.6,192.4,696.4,137.5,630.6,137.5z"/>
		<defs>
			<filter id="Adobe_OpacityMaskFilter_2_" filterUnits="userSpaceOnUse" x="0" y="0" width="748.3" height="446.4">
				<feFlood  style="flood-color:white;flood-opacity:1" result="back"/>
				<feBlend  in="SourceGraphic" in2="back" mode="normal"/>
			</filter>
		</defs>
		<mask maskUnits="userSpaceOnUse" x="0" y="0" width="748.3" height="446.4" id="SVGID_4_">
			<g filter="url(#Adobe_OpacityMaskFilter_2_)">
				<defs>
					<filter id="Adobe_OpacityMaskFilter_3_" filterUnits="userSpaceOnUse" x="0" y="0" width="748.3" height="446.4">
						<feFlood  style="flood-color:white;flood-opacity:1" result="back"/>
						<feBlend  in="SourceGraphic" in2="back" mode="normal"/>
					</filter>
				</defs>
				<mask maskUnits="userSpaceOnUse" x="0" y="0" width="748.3" height="446.4" id="SVGID_4_">
				</mask>
				<linearGradient id="SVGID_5_" gradientUnits="userSpaceOnUse" x1="84.8572" y1="439.9706" x2="558.34" y2="118.8042">
					<stop  offset="0" style="stop-color:#FFFFFF"/>
					<stop  offset="0.6224" style="stop-color:#FFFFFF"/>
					<stop  offset="0.8778" style="stop-color:#AAAAAA"/>
					<stop  offset="1" style="stop-color:#808080"/>
				</linearGradient>
				<path mask="url(#SVGID_4_)" fill="url(#SVGID_5_)" stroke="#FFFFFF" stroke-miterlimit="10" d="M628.7,136.9c-0.2,0-0.5,0-0.8,0
					c0.5-3.1,0.8-6.3,0.8-9.6c0-41.2-41.8-74.6-93.5-74.6c-20,0-38.5,5-53.7,13.5C454.6,27,402.3,0.5,342.3,0.5
					c-75.7,0-139,42.2-155,98.8c-12.5-3.2-25.7-5-39.3-5c-81.5,0-147.5,62.2-147.5,139c0,76.8,66.1,139,147.5,139
					c5.9,0,11.8-0.3,17.6-1c7.9,34.5,45.8,60.6,91.3,60.6c37.1,0,69.2-17.4,84-42.6c20.2,33.3,63.8,56.4,114.3,56.4
					c59.7,0,109.8-32.3,122.9-75.6c15.4,7.5,32.6,11.7,50.7,11.7c65.7,0,119-54.9,119-122.5C747.8,191.7,694.5,136.9,628.7,136.9z"
					/>
			</g>
		</mask>
		<path fill="#33BCBC" stroke="#FFFFFF" stroke-miterlimit="10" d="M628.7,136.9c-0.2,0-0.5,0-0.8,0c0.5-3.1,0.8-6.3,0.8-9.6
			c0-41.2-41.8-74.6-93.5-74.6c-20,0-38.5,5-53.7,13.5C454.6,27,402.3,0.5,342.3,0.5c-75.7,0-139,42.2-155,98.8
			c-12.5-3.2-25.7-5-39.3-5c-81.5,0-147.5,62.2-147.5,139c0,76.8,66.1,139,147.5,139c5.9,0,11.8-0.3,17.6-1
			c7.9,34.5,45.8,60.6,91.3,60.6c37.1,0,69.2-17.4,84-42.6c20.2,33.3,63.8,56.4,114.3,56.4c59.7,0,109.8-32.3,122.9-75.6
			c15.4,7.5,32.6,11.7,50.7,11.7c65.7,0,119-54.9,119-122.5C747.8,191.7,694.5,136.9,628.7,136.9z"/>
		
			<linearGradient id="SVGID_6_" gradientUnits="userSpaceOnUse" x1="348.0884" y1="53.3748" x2="-3.3775" y2="402.1386" gradientTransform="matrix(1.3685 0 0 1.0191 130.7001 22.6185)">
			<stop  offset="5.102040e-03" style="stop-color:#26A995"/>
			<stop  offset="1" style="stop-color:#26A995"/>
		</linearGradient>
		<path fill="url(#SVGID_6_)" d="M625.5,142.3c-0.2,0-0.5,0-0.8,0c0.5-3.2,0.8-6.4,0.8-9.7c0-41.6-41.6-75.3-92.9-75.3
			c-19.8,0-38.2,5-53.3,13.6C452.5,31.4,400.6,4.7,341,4.7c-75.2,0-138.1,42.6-154,99.7c-12.4-3.3-25.5-5-39-5
			C67,99.3,1.4,162.1,1.4,239.6C1.4,317.1,67,379.9,148,379.9c5.9,0,11.7-0.3,17.4-1c7.9,34.8,45.5,61.1,90.7,61.1
			c36.9,0,68.7-17.6,83.5-42.9c20,33.6,63.3,56.9,113.5,56.9c59.4,0,109.1-32.6,122.1-76.3c15.3,7.5,32.4,11.8,50.4,11.8
			c65.3,0,118.2-55.4,118.2-123.6C743.7,197.6,690.8,142.3,625.5,142.3z"/>
	</g>
</g>
</svg>
