<?xml version="1.0" encoding="utf-8"?>
<!-- Generator: Adobe Illustrator 18.1.1, SVG Export Plug-In . SVG Version: 6.00 Build 0)  -->
<svg version="1.1" id="Layer_1" xmlns="http://www.w3.org/2000/svg" xmlns:xlink="http://www.w3.org/1999/xlink" x="0px" y="0px"
	 viewBox="0 0 980.5 593.5" enable-background="new 0 0 980.5 593.5" xml:space="preserve">
<g>
	<g>
		<defs>
			<filter id="Adobe_OpacityMaskFilter" filterUnits="userSpaceOnUse" x="2.5" y="0.9" width="978.1" height="583.3">
				<feFlood  style="flood-color:white;flood-opacity:1" result="back"/>
				<feBlend  in="SourceGraphic" in2="back" mode="normal"/>
			</filter>
		</defs>
		<mask maskUnits="userSpaceOnUse" x="2.5" y="0.9" width="978.1" height="583.3" id="SVGID_1_">
			<g filter="url(#Adobe_OpacityMaskFilter)">
				<defs>
					<filter id="Adobe_OpacityMaskFilter_1_" filterUnits="userSpaceOnUse" x="2.5" y="0.9" width="978.1" height="583.3">
						<feFlood  style="flood-color:white;flood-opacity:1" result="back"/>
						<feBlend  in="SourceGraphic" in2="back" mode="normal"/>
					</filter>
				</defs>
				<mask maskUnits="userSpaceOnUse" x="2.5" y="0.9" width="978.1" height="583.3" id="SVGID_1_">
				</mask>
				<linearGradient id="SVGID_2_" gradientUnits="userSpaceOnUse" x1="113.2652" y1="576.0018" x2="573.8447" y2="263.5877">
					<stop  offset="0" style="stop-color:#E6E6E6"/>
					<stop  offset="0.7347" style="stop-color:#FFFFFF"/>
					<stop  offset="1" style="stop-color:#FFFFFF"/>
				</linearGradient>
				<path mask="url(#SVGID_1_)" fill="url(#SVGID_2_)" stroke="#FFFFFF" stroke-miterlimit="10" d="M824.4,179.7c-0.3,0-0.7,0-1,0
					c0.7-4.1,1-8.3,1-12.6c0-53.9-54.7-97.5-122.2-97.5c-26.1,0-50.3,6.5-70.2,17.7C596.7,36.1,528.4,1.4,449.9,1.4
					c-99,0-181.8,55.2-202.7,129.2c-16.3-4.3-33.6-6.5-51.4-6.5C89.3,124,3,205.4,3,305.8c0,100.4,86.4,181.8,192.9,181.8
					c7.8,0,15.4-0.5,23-1.3c10.4,45.1,59.9,79.2,119.3,79.2c48.6,0,90.5-22.8,109.8-55.6c26.3,43.6,83.4,73.7,149.4,73.7
					c78.1,0,143.6-42.2,160.6-98.8c20.1,9.8,42.6,15.2,66.3,15.2c85.9,0,155.6-71.7,155.6-160.2C980,251.4,910.4,179.7,824.4,179.7z
					"/>
			</g>
		</mask>
		<linearGradient id="SVGID_3_" gradientUnits="userSpaceOnUse" x1="113.2652" y1="576.0018" x2="573.8447" y2="263.5877">
			<stop  offset="0" style="stop-color:#FFFFFF"/>
			<stop  offset="0.7347" style="stop-color:#EBECEC"/>
			<stop  offset="1" style="stop-color:#FFFFFF"/>
		</linearGradient>
		<path fill="url(#SVGID_3_)" stroke="#FFFFFF" stroke-miterlimit="10" d="M824.4,179.7c-0.3,0-0.7,0-1,0c0.7-4.1,1-8.3,1-12.6
			c0-53.9-54.7-97.5-122.2-97.5c-26.1,0-50.3,6.5-70.2,17.7C596.7,36.1,528.4,1.4,449.9,1.4c-99,0-181.8,55.2-202.7,129.2
			c-16.3-4.3-33.6-6.5-51.4-6.5C89.3,124,3,205.4,3,305.8c0,100.4,86.4,181.8,192.9,181.8c7.8,0,15.4-0.5,23-1.3
			c10.4,45.1,59.9,79.2,119.3,79.2c48.6,0,90.5-22.8,109.8-55.6c26.3,43.6,83.4,73.7,149.4,73.7c78.1,0,143.6-42.2,160.6-98.8
			c20.1,9.8,42.6,15.2,66.3,15.2c85.9,0,155.6-71.7,155.6-160.2C980,251.4,910.4,179.7,824.4,179.7z"/>
		<defs>
			<filter id="Adobe_OpacityMaskFilter_2_" filterUnits="userSpaceOnUse" x="0" y="0" width="978.1" height="583.3">
				<feFlood  style="flood-color:white;flood-opacity:1" result="back"/>
				<feBlend  in="SourceGraphic" in2="back" mode="normal"/>
			</filter>
		</defs>
		<mask maskUnits="userSpaceOnUse" x="0" y="0" width="978.1" height="583.3" id="SVGID_4_">
			<g filter="url(#Adobe_OpacityMaskFilter_2_)">
				<defs>
					<filter id="Adobe_OpacityMaskFilter_3_" filterUnits="userSpaceOnUse" x="0" y="0" width="978.1" height="583.3">
						<feFlood  style="flood-color:white;flood-opacity:1" result="back"/>
						<feBlend  in="SourceGraphic" in2="back" mode="normal"/>
					</filter>
				</defs>
				<mask maskUnits="userSpaceOnUse" x="0" y="0" width="978.1" height="583.3" id="SVGID_4_">
				</mask>
				<linearGradient id="SVGID_5_" gradientUnits="userSpaceOnUse" x1="110.803" y1="575.131" x2="729.9069" y2="155.1888">
					<stop  offset="0" style="stop-color:#FFFFFF"/>
					<stop  offset="0.6224" style="stop-color:#FFFFFF"/>
					<stop  offset="0.8778" style="stop-color:#AAAAAA"/>
					<stop  offset="1" style="stop-color:#808080"/>
				</linearGradient>
				<path mask="url(#SVGID_4_)" fill="url(#SVGID_5_)" stroke="#FFFFFF" stroke-miterlimit="10" d="M822,178.8c-0.3,0-0.7,0-1,0
					c0.7-4.1,1-8.3,1-12.5c0-53.9-54.7-97.5-122.2-97.5c-26.1,0-50.3,6.5-70.2,17.7C594.2,35.2,525.9,0.5,447.5,0.5
					c-99,0-181.8,55.2-202.7,129.2c-16.3-4.2-33.6-6.5-51.3-6.5C86.9,123.2,0.5,204.6,0.5,305c0,100.4,86.4,181.8,192.9,181.8
					c7.8,0,15.4-0.4,23-1.3c10.4,45.1,59.8,79.2,119.3,79.2c48.6,0,90.5-22.8,109.8-55.6c26.3,43.6,83.4,73.7,149.4,73.7
					c78.1,0,143.6-42.2,160.7-98.8c20.1,9.8,42.6,15.2,66.3,15.2c85.9,0,155.6-71.7,155.6-160.2C977.6,250.5,907.9,178.8,822,178.8z
					"/>
			</g>
		</mask>
		<path fill="#33BCBC" stroke="#FFFFFF" stroke-miterlimit="10" d="M822,178.8c-0.3,0-0.7,0-1,0c0.7-4.1,1-8.3,1-12.5
			c0-53.9-54.7-97.5-122.2-97.5c-26.1,0-50.3,6.5-70.2,17.7C594.2,35.2,525.9,0.5,447.5,0.5c-99,0-181.8,55.2-202.7,129.2
			c-16.3-4.2-33.6-6.5-51.3-6.5C86.9,123.2,0.5,204.6,0.5,305c0,100.4,86.4,181.8,192.9,181.8c7.8,0,15.4-0.4,23-1.3
			c10.4,45.1,59.8,79.2,119.3,79.2c48.6,0,90.5-22.8,109.8-55.6c26.3,43.6,83.4,73.7,149.4,73.7c78.1,0,143.6-42.2,160.7-98.8
			c20.1,9.8,42.6,15.2,66.3,15.2c85.9,0,155.6-71.7,155.6-160.2C977.6,250.5,907.9,178.8,822,178.8z"/>
		
			<linearGradient id="SVGID_6_" gradientUnits="userSpaceOnUse" x1="516.0247" y1="77.8028" x2="56.464" y2="533.8303" gradientTransform="matrix(1.3685 0 0 1.0191 87.4331 21.2557)">
			<stop  offset="5.102040e-03" style="stop-color:#26A995"/>
			<stop  offset="1" style="stop-color:#26A995"/>
		</linearGradient>
		<path fill="url(#SVGID_6_)" d="M817.7,185.9c-0.3,0-0.7,0-1,0c0.6-4.1,1-8.4,1-12.6c0-54.4-54.3-98.4-121.4-98.4
			c-25.9,0-50,6.6-69.7,17.8C591.5,41,523.6,5.9,445.7,5.9c-98.3,0-180.6,55.7-201.3,130.3c-16.2-4.3-33.3-6.6-51-6.6
			C87.5,129.7,1.6,211.8,1.6,313.1c0,101.3,85.8,183.4,191.7,183.4c7.7,0,15.3-0.4,22.8-1.3c10.3,45.5,59.5,79.9,118.6,79.9
			c48.2,0,89.9-23,109.1-56.1c26.2,44,82.8,74.4,148.4,74.4c77.6,0,142.6-42.6,159.6-99.7c20,9.9,42.3,15.4,65.9,15.4
			c85.4,0,154.6-72.4,154.6-161.6C972.3,258.2,903.1,185.9,817.7,185.9z"/>
	</g>
</g>
</svg>
