<?xml version="1.0" encoding="utf-8"?>
<!-- Generator: Adobe Illustrator 18.1.1, SVG Export Plug-In . SVG Version: 6.00 Build 0)  -->
<svg version="1.1" id="Layer_1" xmlns="http://www.w3.org/2000/svg" xmlns:xlink="http://www.w3.org/1999/xlink" x="0px" y="0px"
	 viewBox="0 279.5 768 464.9" enable-background="new 0 279.5 768 464.9" xml:space="preserve">
<g>
	<g>
		<path fill="#FFFFFF" d="M645.7,421.9c-0.2,0-0.5,0-0.8,0c0.5-3.3,0.8-6.6,0.8-10c0-43-43-77.9-96-77.9c-20.5,0-39.5,5.2-55.1,14.1
			c-27.8-40.9-81.5-68.6-143.2-68.6c-77.8,0-142.9,44.1-159.3,103.1c-12.8-3.4-26.4-5.2-40.4-5.2C67.9,377.5,0,442.5,0,522.6
			s67.9,145.1,151.7,145.1c6.1,0,12.1-0.3,18.1-1c8.1,36,47.1,63.2,93.8,63.2c38.1,0,71.1-18.2,86.3-44.4
			c20.7,34.8,65.5,58.9,117.4,58.9c61.4,0,112.8-33.7,126.3-78.9c15.8,7.8,33.5,12.2,52.1,12.2c67.6,0,122.3-57.3,122.3-127.9
			C768,479.2,713.3,421.9,645.7,421.9z"/>
	</g>
</g>
</svg>
