<?xml version="1.0" encoding="utf-8"?>
<!-- Generator: Adobe Illustrator 18.1.1, SVG Export Plug-In . SVG Version: 6.00 Build 0)  -->
<svg version="1.1" id="Layer_1" xmlns="http://www.w3.org/2000/svg" xmlns:xlink="http://www.w3.org/1999/xlink" x="0px" y="0px"
	 viewBox="0 0 1280 175.1" enable-background="new 0 0 1280 175.1" xml:space="preserve">
<g>
	<g>
		<path fill="#DB5931" d="M1280,163.7c-20-16.3-45.2-26.1-72.6-26.1c-0.2,0-0.5,0-0.8,0c0.5-3.2,0.8-6.4,0.8-9.7
			c0-41.6-41.6-75.3-92.9-75.3c-19.8,0-38.2,5-53.3,13.6C1034.4,26.8,982.5,0,922.9,0c-75.2,0-138.1,42.6-154,99.7
			c-12.4-3.3-25.5-5-39-5c-32.1,0-61.8,9.9-85.9,26.6c-21.4-15.2-49.4-24.5-80.1-24.5c-25.9,0-50,6.6-69.7,17.8
			C459,63,391.1,27.9,313.2,27.9c-98.3,0-180.6,55.7-201.3,130.3c-16.2-4.3-33.3-6.6-51-6.6c-18.9,0-37.1,2.6-54.3,7.5v15.9H1280
			V163.7z"/>
	</g>
	<path fill="#F27930" d="M1280,171.3c-20.9-19.7-48.7-31.7-79.1-31.7c-0.2,0-0.5,0-0.8,0c0.5-3.2,0.8-6.4,0.8-9.7
		c0-41.6-41.6-75.3-92.9-75.3c-19.8,0-38.2,5-53.3,13.6C1027.9,28.8,976,2,916.4,2c-75.2,0-138.1,42.6-154,99.7
		c-12.4-3.3-25.5-5-39-5c-32.1,0-61.8,9.9-85.9,26.6c-21.4-15.2-49.4-24.5-80.1-24.5c-25.9,0-50,6.6-69.7,17.8
		c-35.1-51.7-103-86.7-180.9-86.7c-98.3,0-180.6,55.7-201.3,130.3c-16.2-4.3-33.3-6.6-51-6.6c-18.9,0-37.1,2.6-54.3,7.5v13.9h1280
		V171.3z"/>
</g>
</svg>
