<?xml version="1.0" encoding="utf-8"?>
<!-- Generator: Adobe Illustrator 18.1.1, SVG Export Plug-In . SVG Version: 6.00 Build 0)  -->
<svg version="1.1" id="Layer_1" xmlns="http://www.w3.org/2000/svg" xmlns:xlink="http://www.w3.org/1999/xlink" x="0px" y="0px"
	 viewBox="0 918.9 768 105" enable-background="new 0 918.9 768 105" xml:space="preserve">
<path fill="#5A388B" d="M0,919v3.4c12.5,11.8,29.2,19,47.5,19c0.1,0,0.3,0,0.5,0c-0.3,1.9-0.5,3.8-0.5,5.8c0,25,25,45.2,55.7,45.2
	c11.9,0,22.9-3,32-8.2c16.1,23.6,47.2,39.7,83,39.7c45.1,0,82.9-25.6,92.4-59.8c7.4,2,15.3,3,23.4,3c19.3,0,37.1-5.9,51.5-16
	c12.8,9.1,29.6,14.7,48.1,14.7c15.5,0,30-4,41.8-10.7c21.1,31,61.8,52,108.5,52c59,0,108.4-33.4,120.8-78.2c9.7,2.6,20,4,30.6,4
	c11.3,0,22.3-1.6,32.6-4.5v-9.5H0V919z"/>
</svg>
