<?xml version="1.0" encoding="utf-8"?>
<!-- Generator: Adobe Illustrator 18.1.1, SVG Export Plug-In . SVG Version: 6.00 Build 0)  -->
<svg version="1.1" id="Layer_1" xmlns="http://www.w3.org/2000/svg" xmlns:xlink="http://www.w3.org/1999/xlink" x="0px" y="0px"
	 viewBox="0.1 919 768 105" enable-background="new 0.1 919 768 105" xml:space="preserve">
<g>
	<g>
		<path fill="#2B1943" d="M768,1017.2c-12-9.8-27.1-15.7-43.6-15.7c-0.1,0-0.3,0-0.5,0c0.3-1.9,0.5-3.8,0.5-5.8
			c0-25-25-45.2-55.7-45.2c-11.9,0-22.9,3-32,8.2c-16.1-23.6-47.2-39.7-83-39.7c-45.1,0-82.9,25.6-92.4,59.8c-7.4-2-15.3-3-23.4-3
			c-19.3,0-37.1,5.9-51.5,16c-12.8-9.1-29.6-14.7-48.1-14.7c-15.5,0-30,4-41.8,10.7c-21.1-31-61.9-52-108.6-52
			c-59,0-108.4,33.4-120.8,78.2c-9.7-2.6-20-4-30.6-4c-11.3,0-22.3,1.6-32.6,4.5v9.5h764L768,1017.2L768,1017.2z"/>
	</g>
	<path fill="#5B358D" d="M768,1021.7c-12.5-11.8-29.2-19-47.5-19c-0.1,0-0.3,0-0.5,0c0.3-1.9,0.5-3.8,0.5-5.8
		c0-25-25-45.2-55.7-45.2c-11.9,0-22.9,3-32,8.2c-16.1-23.6-47.2-39.7-83-39.7c-45.1,0-82.9,25.6-92.4,59.8c-7.4-2-15.3-3-23.4-3
		c-19.3,0-37.1,5.9-51.5,16c-12.8-9.1-29.6-14.7-48.1-14.7c-15.5,0-30,4-41.8,10.7c-21.1-31-61.8-52-108.5-52
		c-59,0-108.4,33.4-120.8,78.2c-9.7-2.6-20-4-30.6-4c-11.3,0-22.3,1.6-32.6,4.5v8.3h768L768,1021.7L768,1021.7L768,1021.7z"/>
</g>
</svg>
