<?xml version="1.0" encoding="utf-8"?>
<!-- Generator: Adobe Illustrator 18.1.1, SVG Export Plug-In . SVG Version: 6.00 Build 0)  -->
<svg version="1.1" id="Layer_1" xmlns="http://www.w3.org/2000/svg" xmlns:xlink="http://www.w3.org/1999/xlink" x="0px" y="0px"
	 viewBox="0 0 1280 175" enable-background="new 0 0 1280 175" xml:space="preserve">
<path fill="#F27930" d="M0,0v5.7c20.9,19.7,48.7,31.7,79.1,31.7c0.2,0,0.5,0,0.8,0c-0.5,3.2-0.8,6.4-0.8,9.7
	c0,41.6,41.6,75.3,92.9,75.3c19.8,0,38.2-5,53.3-13.6C252.1,148.2,304,175,363.6,175c75.2,0,138.1-42.6,154-99.7
	c12.4,3.3,25.5,5,39,5c32.1,0,61.8-9.9,85.9-26.6c21.4,15.2,49.4,24.5,80.1,24.5c25.9,0,50-6.6,69.7-17.8
	c35.1,51.7,103,86.7,180.9,86.7c98.3,0,180.6-55.7,201.3-130.3c16.2,4.3,33.3,6.6,51,6.6c18.9,0,37.1-2.6,54.3-7.5V0H0z"/>
</svg>
