<?xml version="1.0" encoding="utf-8"?>
<!-- Generator: Adobe Illustrator 18.1.1, SVG Export Plug-In . SVG Version: 6.00 Build 0)  -->
<svg version="1.1" id="Layer_1" xmlns="http://www.w3.org/2000/svg" xmlns:xlink="http://www.w3.org/1999/xlink" x="0px" y="0px"
	 viewBox="0 0 1092 212.8" enable-background="new 0 0 1092 212.8" xml:space="preserve">
<g>
	<rect x="547.5" y="100.1" fill="#1BAB95" width="75.1" height="87.6"/>
	<g>
		<path fill="#FFFFFF" d="M591,164.9c0,2.7-1.3,4.1-4,4.1h-3.3c-1.5,0-2.6-0.3-3.3-0.9c-0.8-0.6-1.1-1.7-1.1-3.2v-42.3
			c0-1.6,0.4-2.6,1.3-3.1c0.9-0.5,1.9-0.7,3.2-0.7h3.3c2.7,0,4,1.3,4,3.8V164.9z"/>
	</g>
	<rect x="704" y="90.7" fill="#1BAB95" width="75.1" height="87.6"/>
	<g>
		<path fill="#FFFFFF" d="M747.4,155.5c0,2.7-1.3,4.1-4,4.1h-3.3c-1.5,0-2.6-0.3-3.3-0.9c-0.8-0.6-1.1-1.7-1.1-3.2v-42.3
			c0-1.6,0.4-2.6,1.3-3.1c0.9-0.5,1.9-0.7,3.2-0.7h3.3c2.7,0,4,1.3,4,3.8V155.5z"/>
	</g>
	<rect x="860.4" y="106.4" fill="#1BAB95" width="75.1" height="87.6"/>
	<g>
		<path fill="#FFFFFF" d="M903.9,171.2c0,2.7-1.3,4.1-4,4.1h-3.3c-1.5,0-2.6-0.3-3.3-0.9c-0.8-0.6-1.1-1.7-1.1-3.2v-42.3
			c0-1.6,0.4-2.6,1.3-3.1c0.9-0.5,1.9-0.7,3.2-0.7h3.3c2.7,0,4,1.3,4,3.8V171.2z"/>
	</g>
	<rect x="938.6" y="87.6" fill="#1BAB95" width="75.1" height="87.6"/>
	<rect x="625.8" y="109.5" fill="#1BAB95" width="75.1" height="87.6"/>
	<rect x="156.4" y="107.1" fill="#1BAB95" width="75.1" height="87.6"/>
	<g>
		<path fill="#FFFFFF" d="M210.8,160.1c0,5.2-0.5,8.7-1.5,10.5c-0.9,1.6-2.3,2.9-4,3.8c-1.7,0.9-3.6,1.5-5.7,1.7
			c-2.1,0.3-4.3,0.4-6.6,0.4c-3.5,0-7.2-0.2-11.2-0.5c-1.8-0.1-3-0.5-3.6-1c-0.7-0.5-1-1.3-1-2.3v-2.5c0-1.7,0.3-2.8,0.8-3.4
			c0.5-0.6,1.5-0.9,3-0.9c1,0,2.6,0.1,4.7,0.3c2,0.2,4.9,0.3,8.5,0.3c1.8,0,3.1-0.1,3.7-0.2c0.6-0.1,1-0.4,1.2-0.9
			c0.2-0.5,0.3-1.4,0.3-2.7v-2.1c0-1.1-0.1-1.8-0.4-2.3c-0.2-0.4-0.8-0.8-1.8-1.2c-2.5-1-5.7-2.3-9.5-3.8c-2.9-1.2-5.1-2.4-6.4-3.3
			c-1.3-1-2.2-2.3-2.7-3.8c-0.5-1.6-0.8-3.9-0.8-7c0-2.6,0.3-4.8,0.8-6.6c0.5-1.8,1.6-3.3,3.1-4.5c1.5-1.2,3.7-2,6.5-2.4
			c1.4-0.2,3.8-0.3,7.3-0.3h1.1c2.2,0,5,0.1,8.7,0.4c1.8,0.1,3,0.4,3.7,1c0.7,0.5,1,1.4,1,2.4v2.4c0,1.7-0.3,2.8-0.8,3.4
			c-0.5,0.6-1.5,0.9-3,0.9c-0.4,0-1.6-0.1-3.4-0.2c-1.9-0.1-3.4-0.2-4.7-0.2c-0.9,0-1.8,0-2.6-0.1c-0.8,0-1.8,0-2.9,0
			c-1.4,0-2.3,0.3-2.7,0.8c-0.4,0.5-0.6,1.4-0.6,2.8v0.9c0,1.1,0.1,1.8,0.3,2.3c0.2,0.4,0.8,0.8,1.8,1.3c0.9,0.3,2,0.8,3.4,1.4
			c1.4,0.6,2.4,0.9,2.8,1.1c4.1,1.7,7,3,8.7,4c1.7,1,2.9,2.2,3.5,3.8C210.5,155,210.8,157.2,210.8,160.1z"/>
	</g>
	<rect x="469.3" y="90.7" fill="#1BAB95" width="75.1" height="87.6"/>
	<g>
		<path fill="#FFFFFF" d="M523.7,143.8c0,5.2-0.5,8.7-1.5,10.5c-0.9,1.6-2.3,2.9-4,3.8c-1.7,0.9-3.6,1.5-5.7,1.7
			c-2.1,0.3-4.3,0.4-6.6,0.4c-3.5,0-7.2-0.2-11.2-0.5c-1.8-0.1-3-0.5-3.6-1c-0.7-0.5-1-1.3-1-2.3v-2.5c0-1.7,0.3-2.8,0.8-3.4
			c0.5-0.6,1.5-0.9,3-0.9c1,0,2.6,0.1,4.7,0.3c2,0.2,4.9,0.3,8.5,0.3c1.8,0,3.1-0.1,3.7-0.2c0.6-0.1,1-0.4,1.2-0.9
			c0.2-0.5,0.3-1.4,0.3-2.7v-2.1c0-1.1-0.1-1.8-0.4-2.3c-0.2-0.4-0.8-0.8-1.8-1.2c-2.5-1-5.7-2.3-9.5-3.8c-2.9-1.2-5.1-2.4-6.4-3.3
			c-1.3-1-2.2-2.3-2.7-3.8c-0.5-1.6-0.8-3.9-0.8-7c0-2.6,0.3-4.8,0.8-6.6c0.5-1.8,1.6-3.3,3.1-4.5c1.5-1.2,3.7-2,6.5-2.4
			c1.4-0.2,3.8-0.3,7.3-0.3h1.1c2.2,0,5,0.1,8.7,0.4c1.8,0.1,3,0.4,3.7,1c0.7,0.5,1,1.4,1,2.4v2.4c0,1.7-0.3,2.8-0.8,3.4
			c-0.5,0.6-1.5,0.9-3,0.9c-0.4,0-1.6-0.1-3.4-0.2c-1.9-0.1-3.4-0.2-4.7-0.2c-0.9,0-1.8,0-2.6-0.1c-0.8,0-1.8,0-2.9,0
			c-1.4,0-2.3,0.3-2.7,0.8c-0.4,0.5-0.6,1.4-0.6,2.8v0.9c0,1.1,0.1,1.8,0.3,2.3c0.2,0.4,0.8,0.8,1.8,1.3c0.9,0.3,2,0.8,3.4,1.4
			c1.4,0.6,2.4,0.9,2.8,1.1c4.1,1.7,7,3,8.7,4c1.7,1,2.9,2.2,3.5,3.8C523.4,138.7,523.7,140.9,523.7,143.8z"/>
	</g>
	<rect x="234.7" y="125.2" fill="#1BAB95" width="75.1" height="87.6"/>
	<rect x="0" y="115.8" fill="#1BAB95" width="75.1" height="87.6"/>
	<rect x="312.9" y="100.1" fill="#1BAB95" width="75.1" height="87.6"/>
	<g>
		<path fill="#FFFFFF" d="M372.8,143.9c0,5.2-0.7,9.7-2.1,13.7c-1.4,3.9-3.7,7.1-7,9.4c-3.3,2.3-7.7,3.5-13.3,3.5
			c-4.2,0-7.7-0.7-10.6-2c-2.9-1.4-5.2-3.2-6.9-5.7s-3-5.2-3.7-8.4c-0.7-3.2-1.1-6.7-1.1-10.5c0-3.9,0.4-7.5,1.1-10.6
			c0.7-3.1,1.9-5.9,3.7-8.3c1.7-2.4,4-4.3,6.9-5.6c2.9-1.3,6.4-2,10.7-2c5.5,0,10,1.2,13.3,3.5c3.3,2.3,5.7,5.4,7,9.4
			C372.1,134.1,372.8,138.7,372.8,143.9z M360.6,143.9c0-2.6-0.1-4.9-0.3-7.1c-0.2-2.2-0.6-3.9-1.2-5.1c-1.3-2.7-4.1-4.1-8.6-4.1
			c-4.4,0-7.3,1.4-8.6,4.1c-1.1,2.3-1.6,6.4-1.6,12.2c0,5.8,0.5,9.9,1.6,12.2c1.3,2.8,4.2,4.2,8.6,4.2c4.4,0,7.3-1.4,8.6-4.2
			C360.1,153.9,360.6,149.8,360.6,143.9z"/>
	</g>
	<rect x="391.1" y="112.6" fill="#1BAB95" width="75.1" height="87.6"/>
	<g>
		<rect x="469.3" y="0" fill="#1BAB95" width="75.1" height="87.6"/>
		<g>
			<path fill="#FFFFFF" d="M524.9,65.9c0,1.1-0.3,1.9-1,2.4c-0.7,0.5-1.9,0.9-3.7,1c-3.4,0.3-6.3,0.4-8.7,0.4
				c-4.5,0-8.2-0.5-11.1-1.6c-3-1.1-5.3-2.7-6.9-4.8c-1.7-2.1-2.8-4.7-3.5-7.9c-0.7-3.2-1-6.9-1-11.2c0-7.1,0.8-12.5,2.4-16.3
				c1.6-3.8,4-6.4,7.2-7.8c3.2-1.4,7.5-2.1,12.9-2.1c2.2,0,5.1,0.1,8.7,0.4c1.8,0.1,3,0.4,3.7,1c0.7,0.5,1,1.4,1,2.4v2.4
				c0,1.7-0.3,2.8-0.8,3.4c-0.5,0.6-1.5,0.9-3,0.9c-0.5,0-1.6-0.1-3.5-0.2c-1.9-0.1-3.4-0.2-4.6-0.2c-3.8,0-6.4,0.3-7.9,0.9
				c-1.3,0.6-2.2,1.5-2.8,2.7c-0.6,1.3-1,2.7-1.1,4.4c-0.1,1.7-0.2,4.1-0.2,7.2v0.9c0,3.3,0.1,5.8,0.3,7.7c0.2,1.8,0.8,3.4,1.7,4.8
				c0.9,1.3,2.4,2.2,4.3,2.5c1.1,0.2,3,0.3,5.6,0.3c0.5,0,1.7-0.1,3.5-0.2c1.9-0.1,3.4-0.2,4.6-0.2c1.5,0,2.5,0.3,3,0.9
				c0.5,0.6,0.8,1.8,0.8,3.4V65.9z"/>
		</g>
	</g>
	<g>
		<rect x="547.5" y="9.4" fill="#1BAB95" width="75.1" height="87.6"/>
		<g>
			<path fill="#FFFFFF" d="M591,74.2c0,2.7-1.3,4.1-4,4.1h-3.3c-1.5,0-2.6-0.3-3.3-0.9c-0.8-0.6-1.1-1.7-1.1-3.2V31.9
				c0-1.6,0.4-2.6,1.3-3.1c0.9-0.5,1.9-0.7,3.2-0.7h3.3c2.7,0,4,1.3,4,3.8V74.2z"/>
		</g>
	</g>
	<g>
		<rect x="312.9" y="9.4" fill="#1BAB95" width="75.1" height="87.6"/>
		<g>
			<path fill="#FFFFFF" d="M367.3,62.4c0,5.2-0.5,8.7-1.5,10.5c-0.9,1.6-2.3,2.9-4,3.8c-1.7,0.9-3.6,1.5-5.7,1.7
				c-2.1,0.3-4.3,0.4-6.6,0.4c-3.5,0-7.2-0.2-11.2-0.5c-1.8-0.1-3-0.5-3.6-1c-0.7-0.5-1-1.3-1-2.3v-2.5c0-1.7,0.3-2.8,0.8-3.4
				c0.5-0.6,1.5-0.9,3-0.9c1,0,2.6,0.1,4.7,0.3c2,0.2,4.9,0.3,8.5,0.3c1.8,0,3.1-0.1,3.7-0.2c0.6-0.1,1-0.4,1.2-0.9
				c0.2-0.5,0.3-1.4,0.3-2.7v-2.1c0-1.1-0.1-1.8-0.4-2.3c-0.2-0.4-0.8-0.8-1.8-1.2c-2.5-1-5.7-2.3-9.5-3.8c-2.9-1.2-5.1-2.4-6.4-3.3
				c-1.3-1-2.2-2.3-2.7-3.8c-0.5-1.6-0.8-3.9-0.8-7c0-2.6,0.3-4.8,0.8-6.6c0.5-1.8,1.6-3.3,3.1-4.5c1.5-1.2,3.7-2,6.5-2.4
				c1.4-0.2,3.8-0.3,7.3-0.3h1.1c2.2,0,5,0.1,8.7,0.4c1.8,0.1,3,0.4,3.7,1c0.7,0.5,1,1.4,1,2.4v2.4c0,1.7-0.3,2.8-0.8,3.4
				c-0.5,0.6-1.5,0.9-3,0.9c-0.4,0-1.6-0.1-3.4-0.2c-1.9-0.1-3.4-0.2-4.7-0.2c-0.9,0-1.8,0-2.6-0.1c-0.8,0-1.8,0-2.9,0
				c-1.4,0-2.3,0.3-2.7,0.8c-0.4,0.5-0.6,1.4-0.6,2.8V42c0,1.1,0.1,1.8,0.3,2.3c0.2,0.4,0.8,0.8,1.8,1.3c0.9,0.3,2,0.8,3.4,1.4
				c1.4,0.6,2.4,0.9,2.8,1.1c4.1,1.7,7,3,8.7,4s2.9,2.2,3.5,3.8C366.9,57.3,367.3,59.5,367.3,62.4z"/>
		</g>
	</g>
	<g>
		<rect x="391.1" y="21.9" fill="#1BAB95" width="75.1" height="87.6"/>
		<g>
			<path fill="#FFFFFF" d="M451,65.7c0,5.2-0.7,9.7-2.1,13.7c-1.4,3.9-3.7,7.1-7,9.4c-3.3,2.3-7.7,3.5-13.3,3.5
				c-4.2,0-7.7-0.7-10.6-2c-2.9-1.4-5.2-3.2-6.9-5.7s-3-5.2-3.7-8.4s-1.1-6.7-1.1-10.5c0-3.9,0.4-7.5,1.1-10.6
				c0.7-3.1,1.9-5.9,3.7-8.3c1.7-2.4,4-4.3,6.9-5.6c2.9-1.3,6.4-2,10.7-2c5.5,0,10,1.2,13.3,3.5c3.3,2.3,5.7,5.4,7,9.4
				C450.3,55.9,451,60.5,451,65.7z M438.8,65.7c0-2.6-0.1-4.9-0.3-7.1c-0.2-2.2-0.6-3.9-1.2-5.1c-1.3-2.7-4.1-4.1-8.6-4.1
				c-4.4,0-7.3,1.4-8.6,4.1c-1.1,2.3-1.6,6.4-1.6,12.2c0,5.8,0.5,9.9,1.6,12.2c1.3,2.8,4.2,4.2,8.6,4.2c4.4,0,7.3-1.4,8.6-4.2
				C438.3,75.7,438.8,71.6,438.8,65.7z"/>
		</g>
	</g>
	<g>
		<rect x="625.8" y="18.8" fill="#1BAB95" width="75.1" height="87.6"/>
		<g>
			<path fill="#FFFFFF" d="M686.5,84.8c0,2-1.2,3-3.5,3h-4.1c-1.3,0-2.2-0.3-2.9-0.8c-0.6-0.5-1.1-1.3-1.5-2.3l-2.3-6.2
				c-2.4,0-5.4,0.1-9,0.1c-4.1,0-7.1,0-9-0.1l-2.1,5.6c-0.4,1.2-1,2.1-1.6,2.7c-0.6,0.6-1.6,0.9-3.1,0.9H644c-1.6,0-2.6-0.2-3.1-0.7
				c-0.5-0.5-0.7-1.1-0.7-2c0-0.4,0.2-1.2,0.7-2.5l15.5-41.5c0.3-0.9,0.7-1.6,1.1-2.1c0.4-0.5,0.9-1,1.6-1.3
				c0.7-0.3,1.5-0.4,2.6-0.4h3.1c1.5,0,2.7,0.3,3.4,0.9c0.8,0.6,1.4,1.5,1.8,2.8l16.3,42.3C686.4,84,686.5,84.4,686.5,84.8z
				 M668.8,69.7L663,53l-5.8,16.6c0.9,0,1.7,0,2.5-0.1c0.8,0,1.9,0,3.3,0c1.3,0,2.4,0,3.2,0C667,69.6,667.9,69.7,668.8,69.7z"/>
		</g>
	</g>
	<g>
		<rect x="704" y="0" fill="#1BAB95" width="75.1" height="87.6"/>
		<g>
			<path fill="#FFFFFF" d="M756.4,65.1c0,2.5-1.3,3.8-4,3.8h-21.2c-1.5,0-2.6-0.3-3.4-0.9c-0.8-0.6-1.2-1.7-1.2-3.1V22.5
				c0-1.6,0.4-2.6,1.3-3.1c0.9-0.5,1.9-0.7,3.2-0.7h3.2c2.7,0,4.1,1.3,4.1,3.8V59c5.1-0.1,9.7-0.1,13.9-0.1c2.7,0,4,1.4,4,4.3V65.1z
				"/>
		</g>
	</g>
	<rect x="782.2" y="84.5" fill="#1BAB95" width="75.1" height="87.6"/>
	<g>
		<path fill="#FFFFFF" d="M834.6,149.5c0,2.5-1.3,3.8-4,3.8h-21.2c-1.5,0-2.6-0.3-3.4-0.9c-0.8-0.6-1.2-1.7-1.2-3.1V107
			c0-1.6,0.4-2.6,1.3-3.1c0.9-0.5,1.9-0.7,3.2-0.7h3.2c2.7,0,4.1,1.3,4.1,3.8v36.4c5.1-0.1,9.7-0.1,13.9-0.1c2.7,0,4,1.4,4,4.3
			V149.5z"/>
	</g>
	<g>
		<path fill="#FFFFFF" d="M56.9,181.9c0,1.9-1.1,2.8-3.4,2.8h-4.5c-1.1,0-2.1-0.2-2.9-0.5c-0.8-0.3-1.6-0.9-2.4-1.9L31.1,167H30
			v13.6c0,2.7-1.4,4.1-4.1,4.1h-3.2c-1.5,0-2.6-0.3-3.4-0.9c-0.8-0.6-1.2-1.7-1.2-3.1v-42.3c0-1.6,0.4-2.6,1.3-3.1
			c0.9-0.5,1.9-0.7,3.2-0.7h14c4.1,0,7,0.2,8.7,0.7c1.7,0.4,3.3,1.4,4.9,3c1.4,1.4,2.5,3.3,3.2,5.7c0.7,2.4,1,5.2,1,8.5
			c0,7.9-3.1,12.6-9.2,14.1l10.6,12.3C56.5,179.8,56.9,180.8,56.9,181.9z M42.6,151.8L42.6,151.8c0-4.1-0.5-6.3-1.6-6.8
			c-0.7-0.3-2.3-0.5-4.9-0.5h-0.4c-2.6,0-4.5,0-5.7,0.1V157h7.7c1.6,0,2.7-0.1,3.3-0.4c0.7-0.3,1.1-0.7,1.3-1.4
			C42.5,154.5,42.6,153.4,42.6,151.8z"/>
	</g>
	<rect x="78.2" y="100.1" fill="#1BAB95" width="75.1" height="87.6"/>
	<g>
		<path fill="#FFFFFF" d="M131.7,165.2c0,2.5-1.4,3.8-4.1,3.8h-23.4c-1.5,0-2.6-0.3-3.4-0.9s-1.2-1.7-1.2-3.1v-42.3
			c0-1.6,0.4-2.6,1.3-3.1c0.9-0.5,1.9-0.7,3.2-0.7h23.4c2.7,0,4.1,1.3,4.1,3.8v2c0,1.2-0.3,2.2-0.8,3c-0.5,0.8-1.6,1.2-3.3,1.2
			c-2,0-3.5,0-4.7,0c-1.2,0-2.6,0-4.2-0.1c-1.6,0-3,0-4.2-0.1c-1.2,0-2.2,0-2.9,0v9.6c1.8,0,3.6-0.1,5.5-0.1c1.9,0,3.3-0.1,4-0.1
			c0.7,0,2.4,0,4.8,0c2.8,0,4.1,1.4,4.1,4.3v1c0,2.8-1.4,4.3-4.1,4.3c-2.1,0-4.2,0-6.6-0.1c-2.3,0-4.9-0.1-7.8-0.1v11.8
			c2,0,4.1-0.1,6.3-0.1c2.3,0,3.8-0.1,4.6-0.1c0.8,0,2.5,0,5.1,0c1.7,0,2.8,0.4,3.3,1.2c0.5,0.8,0.8,1.8,0.8,3V165.2z"/>
	</g>
	<g>
		<path fill="#FFFFFF" d="M290.3,161.7c0,3.8-0.6,7-1.7,9.5c-1.1,2.5-2.9,4.4-5.3,5.5c-1.5,0.7-3,1.1-4.5,1.3
			c-1.5,0.2-3.7,0.3-6.6,0.3h-6.2V190c0,2.7-1.4,4.1-4.1,4.1h-3.2c-1.5,0-2.6-0.3-3.4-0.9s-1.2-1.7-1.2-3.1v-42.3
			c0-1.6,0.4-2.6,1.3-3.1c0.9-0.5,1.9-0.7,3.2-0.7h14c4.1,0,7,0.2,8.7,0.7c1.7,0.4,3.3,1.4,4.9,3c1.4,1.4,2.5,3.3,3.2,5.7
			C290,155.6,290.3,158.5,290.3,161.7z M278.5,162.1v-0.9c0-4.1-0.5-6.3-1.6-6.8c-0.6-0.3-2.2-0.5-4.7-0.5h-0.9
			c-2.4,0-4.3,0-5.5,0.1v14.5h7.7h0.1c2.2,0,3.6-0.4,4.1-1.1C278.3,166.7,278.5,164.9,278.5,162.1z"/>
	</g>
	<g>
		<path fill="#FFFFFF" d="M449.9,177.4c0,2.7-1.4,4.1-4.1,4.1h-2.2c-1.2,0-2.2-0.1-2.9-0.3c-0.7-0.2-1.4-0.7-2.1-1.5
			c-4.7-6.1-11.2-15.1-19.7-27.2v25c0,2.7-1.4,4.1-4.1,4.1h-2.9c-1.5,0-2.6-0.3-3.4-0.9c-0.8-0.6-1.2-1.7-1.2-3.1v-42.3
			c0-1.6,0.4-2.6,1.3-3.1c0.9-0.5,1.9-0.7,3.2-0.7h2c0.8,0,1.4,0,1.8,0.1c0.5,0.1,0.9,0.2,1.4,0.5c0.4,0.3,0.9,0.7,1.3,1.2
			c2.5,3.3,9.2,12.5,19.9,27.4v-25.5c0-1.6,0.4-2.6,1.3-3.1c0.9-0.5,1.9-0.7,3.2-0.7h3c2.7,0,4.1,1.3,4.1,3.8V177.4z"/>
	</g>
	<g>
		<path fill="#FFFFFF" d="M681.3,163.1c0,2.4-0.3,4.6-0.9,6.4c-0.6,1.9-1.6,3.5-2.9,4.9c-0.9,1-2,1.8-3.3,2.4
			c-1.3,0.6-2.7,1-4.3,1.2c-1.6,0.2-3.5,0.4-5.7,0.4h-14.4c-1.5,0-2.6-0.3-3.4-0.9c-0.8-0.6-1.1-1.7-1.1-3.2V132
			c0-1.6,0.4-2.6,1.3-3.1c0.9-0.5,1.9-0.7,3.2-0.7h9.8c4.4,0,7.4,0.1,8.9,0.2c1.5,0.1,2.8,0.5,4.1,1.1c2.1,0.9,3.7,2.5,4.7,4.6
			c1,2.1,1.5,4.6,1.5,7.5c0,2.1-0.3,3.9-0.8,5.4c-0.5,1.5-1.3,2.8-2.5,4c2.1,1.1,3.5,2.6,4.4,4.5
			C680.9,157.6,681.3,160.1,681.3,163.1z M667.4,142.5c0-1.6-0.2-2.7-0.6-3.4c-0.3-0.5-0.6-0.9-1.1-1c-0.4-0.1-1.2-0.2-2.2-0.2h-1.7
			c-1.9,0-3.5,0-4.8,0.1v11h3.2c1.7,0,2.9-0.1,3.8-0.2c1.2-0.2,2.1-0.6,2.6-1.4C667.2,146.6,667.4,145,667.4,142.5z M669.6,163.1
			c0-1.6-0.2-2.7-0.5-3.3c-0.4-0.6-0.9-0.9-1.7-1.1c-1.4-0.3-3.6-0.5-6.7-0.5h-3.6v10.4c1,0,2.5,0.1,4.6,0.1c2.2,0,3.9-0.1,5.1-0.4
			c1-0.2,1.7-0.7,2.2-1.5C669.4,166.1,669.6,164.8,669.6,163.1z"/>
	</g>
	<g>
		<path fill="#FFFFFF" d="M996.4,112.1c0,2.8-1.3,4.3-4,4.3c-2.9,0-6.3,0-10.3-0.1v36.2c0,2.7-1.4,4.1-4.1,4.1h-3.2
			c-1.5,0-2.6-0.3-3.4-0.9c-0.7-0.6-1.1-1.7-1.1-3.2v-36.2c-4,0.1-7.4,0.1-10.3,0.1c-1.7,0-2.8-0.4-3.3-1.2c-0.5-0.8-0.8-1.8-0.8-3
			v-2c0-2.5,1.4-3.8,4.1-3.8h32.4c2.7,0,4,1.3,4,3.8V112.1z"/>
	</g>
	<rect x="1016.9" y="112.6" fill="#1BAB95" width="75.1" height="87.6"/>
	<g>
		<path fill="#FFFFFF" d="M1075.9,134.5c0,0.9-0.2,1.8-0.7,2.6l-14.7,25v15.4c0,2.7-1.3,4.1-4,4.1h-3.3c-1.5,0-2.6-0.3-3.3-0.9
			c-0.8-0.6-1.1-1.7-1.1-3.2v-14.8l-15-25.6c-0.5-1-0.8-1.9-0.8-2.6c0-1.1,0.4-2,1.2-2.4c0.8-0.5,1.6-0.7,2.5-0.7h4.1
			c1.2,0,2.1,0.2,2.8,0.6c0.7,0.4,1.2,1.1,1.7,1.9l9.5,16.4l9.7-16.5c0.5-0.9,1.1-1.5,1.7-1.9c0.6-0.4,1.6-0.6,2.8-0.6h3.3
			c1.2,0,2.2,0.3,2.8,0.9C1075.6,132.9,1075.9,133.6,1075.9,134.5z"/>
	</g>
</g>
</svg>
