<?xml version="1.0" encoding="utf-8"?>
<!-- Generator: Adobe Illustrator 18.1.1, SVG Export Plug-In . SVG Version: 6.00 Build 0)  -->
<svg version="1.1" id="Layer_1" xmlns="http://www.w3.org/2000/svg" xmlns:xlink="http://www.w3.org/1999/xlink" x="0px" y="0px"
	 viewBox="0 0 780 460.7" enable-background="new 0 0 780 460.7" xml:space="preserve">
<g>
	<g opacity="0.5">
		<path fill="#626366" d="M688.7,216.5c-1.9,0-3.8,0.1-5.6,0.2c19.9-16.3,32.4-39.8,32.4-65.9c0-49.1-44.2-88.9-98.7-88.9
			c-18.3,0-35.4,4.5-50.1,12.3C559.5,33.5,520.3,2.3,473,2.3c-32.6,0-61.4,14.9-78.4,37.5c-23.9-23-57.9-37.5-95.6-37.5
			c-72.3,0-130.8,52.8-130.8,117.9c0,3.2,0.2,6.4,0.5,9.6c-17.6-13.3-40.2-21.2-65-21.2c-56,0-101.4,40.9-101.4,91.4
			c0,32,18.3,60.1,45.9,76.4c-16.9,15.1-27.5,36-27.5,59.1c0,45.9,41.3,83,92.1,83c26.8,0,51-10.3,67.8-26.9
			c26.1,22.2,61.2,35.8,99.9,35.8c34.8,0,66.8-11,91.9-29.4c9.7,36,45.7,62.7,88.6,62.7c30.8,0,58-13.7,74.5-34.8
			c6.2,0.7,12.5,1.1,19,1.1c45.5,0,86.1-18.9,112.7-48.4c6.9,1.5,14.1,2.3,21.6,2.3c50.4,0,91.2-36.8,91.2-82.2
			C780,253.4,739.1,216.5,688.7,216.5z"/>
	</g>
	<g>
		<path fill="#FFFFFF" d="M686.4,214.2c-1.9,0-3.8,0.1-5.6,0.2c19.9-16.3,32.4-39.8,32.4-65.9c0-49.1-44.2-88.9-98.7-88.9
			c-18.3,0-35.4,4.5-50.1,12.3C557.2,31.2,518,0,470.7,0c-32.6,0-61.4,14.9-78.4,37.5C368.4,14.4,334.4,0,296.7,0
			c-72.3,0-130.8,52.8-130.8,117.9c0,3.2,0.2,6.4,0.5,9.6c-17.6-13.3-40.2-21.2-65-21.2C45.4,106.3,0,147.2,0,197.6
			c0,32,18.3,60.1,45.9,76.4c-16.9,15.1-27.5,36-27.5,59.1c0,45.9,41.3,83,92.1,83c26.8,0,51-10.3,67.8-26.9
			c26.1,22.2,61.2,35.8,99.9,35.8c34.8,0,66.8-11,91.9-29.4c9.7,36,45.7,62.7,88.6,62.7c30.8,0,58-13.7,74.5-34.8
			c6.2,0.7,12.5,1.1,19,1.1c45.5,0,86.1-18.9,112.7-48.4c6.9,1.5,14.1,2.3,21.6,2.3c50.4,0,91.2-36.8,91.2-82.2
			C777.7,251,736.8,214.2,686.4,214.2z"/>
	</g>
</g>
</svg>
