<?xml version="1.0" encoding="utf-8"?>
<!-- Generator: Adobe Illustrator 18.1.1, SVG Export Plug-In . SVG Version: 6.00 Build 0)  -->
<svg version="1.1" id="Layer_1" xmlns="http://www.w3.org/2000/svg" xmlns:xlink="http://www.w3.org/1999/xlink" x="0px" y="0px"
	 viewBox="0 0 487 88.5" enable-background="new 0 0 487 88.5" xml:space="preserve">
<g>
	<path fill="#626366" d="M0,0v22.2c1-0.9,2-1.8,2.9-2.7C29,41.7,64.1,55.3,102.8,55.3c34.8,0,66.8-11,91.9-29.4
		c9.7,36,45.7,62.7,88.6,62.7c30.8,0,58-13.7,74.5-34.8c6.2,0.7,12.5,1.1,19,1.1c44.1,0,83.6-17.8,110.3-45.8V0H0z"/>
	<path fill="#FFFFFF" d="M0.6,17.2C26.7,39.4,61.8,53,100.5,53c34.8,0,66.8-11,91.9-29.4c9.7,36,45.7,62.7,88.6,62.7
		c30.8,0,58-13.7,74.5-34.8c6.2,0.7,12.5,1.1,19,1.1c45.4,0,86-18.8,112.6-48.3V0H0v17.8C0.2,17.6,0.4,17.4,0.6,17.2z"/>
</g>
</svg>
