<?xml version="1.0" encoding="utf-8"?>
<!-- Generator: Adobe Illustrator 18.1.1, SVG Export Plug-In . SVG Version: 6.00 Build 0)  -->
<svg version="1.1" id="Layer_1" xmlns="http://www.w3.org/2000/svg" xmlns:xlink="http://www.w3.org/1999/xlink" x="0px" y="0px"
	 viewBox="0 0 487 75.5" enable-background="new 0 0 487 75.5" xml:space="preserve">
<g>
	<path fill="#626366" d="M487,73.1c-14.2-7.1-30.6-11.2-48-11.2c-18.3,0-35.4,4.5-50.1,12.3c-7.2-40.8-46.4-71.9-93.6-71.9
		c-32.6,0-61.4,14.9-78.4,37.5C193,16.7,159,2.3,121.2,2.3C66.5,2.3,19.7,32.6,0.1,75.5H487V73.1z"/>
	<path fill="#FFFFFF" d="M487,72c-14.7-7.9-31.9-12.4-50.3-12.4c-18.3,0-35.4,4.5-50.1,12.3C379.4,31.2,340.2,0,293,0
		c-32.6,0-61.4,14.9-78.4,37.5C190.7,14.4,156.7,0,118.9,0C66.1,0,20.7,28.2,0,68.8v6.8h487V72z"/>
</g>
</svg>
