<?xml version="1.0" encoding="utf-8"?>
<!-- Generator: Adobe Illustrator 18.1.1, SVG Export Plug-In . SVG Version: 6.00 Build 0)  -->
<svg version="1.1" id="Layer_1" xmlns="http://www.w3.org/2000/svg" xmlns:xlink="http://www.w3.org/1999/xlink" x="0px" y="0px"
	 viewBox="0 0 370.5 61.3" enable-background="new 0 0 370.5 61.3" xml:space="preserve">
<g>
	<g>
		<path fill="#626366" d="M0,0v2.3c10.7,3.3,22.1,5.1,34,5.1c4.3,0,8.6-0.2,12.9-0.7c5.8,25.3,33.6,44.4,66.9,44.4
			c27.2,0,50.7-12.8,61.6-31.2c14.8,24.4,46.7,41.3,83.8,41.3c43.8,0,80.5-23.7,90.1-55.4c6.7,3.2,13.8,5.6,21.3,7.1V0H0z"/>
	</g>
	<g>
		<path fill="#FFFFFF" d="M0,0c10.4,3.2,21.4,4.9,32.9,4.9c4.3,0,8.6-0.2,12.8-0.7C51.5,29.7,79,49,112.2,49
			c27,0,50.4-12.9,61.2-31.5c14.7,24.7,46.4,41.7,83.2,41.7c43.5,0,80-23.9,89.5-55.9c7.6,3.8,15.8,6.4,24.5,7.7V0H0z"/>
	</g>
</g>
</svg>
