<?xml version="1.0" encoding="utf-8"?>
<!-- Generator: Adobe Illustrator 18.1.1, SVG Export Plug-In . SVG Version: 6.00 Build 0)  -->
<svg version="1.1" id="Layer_1" xmlns="http://www.w3.org/2000/svg" xmlns:xlink="http://www.w3.org/1999/xlink" x="0px" y="0px"
	 viewBox="0 0 1170 848" enable-background="new 0 0 1170 848" xml:space="preserve">
<circle fill="#F9AE31" cx="609.2" cy="832.1" r="9.4"/>
<circle fill="#F9AE31" cx="554.4" cy="244.8" r="21"/>
<circle fill="#A62D34" cx="588.5" cy="6.2" r="4.2"/>
<circle fill="#A62D34" cx="598.1" cy="74.2" r="9.2"/>
<circle fill="#F27930" cx="508.1" cy="85.2" r="17.3"/>
<circle fill="#F27930" cx="541.2" cy="87.2" r="8.5"/>
<circle fill="#DB5931" cx="559.1" cy="58.1" r="7.5"/>
<circle fill="#F9AE31" cx="564.2" cy="67.8" r="12.8"/>
<circle fill="#EA212D" cx="580.6" cy="60.4" r="14"/>
<circle fill="#F9AE31" cx="646" cy="20.8" r="4.2"/>
<circle fill="#DB5931" cx="643.8" cy="35.7" r="15.1"/>
<circle opacity="0.25" fill="#C3208B" cx="574.1" cy="129.7" r="20.5"/>
<circle fill="#DB5931" cx="586.9" cy="127" r="19.3"/>
<circle fill="#F9AE31" cx="586.5" cy="156.6" r="13.6"/>
<circle fill="#C3208B" cx="581" cy="178.1" r="19.2"/>
<circle opacity="0.25" fill="#F9AE31" cx="585.6" cy="221" r="10.2"/>
<circle fill="#FFFFFF" cx="574.7" cy="277.9" r="6"/>
<circle fill="#DB5931" cx="598.4" cy="265.1" r="10.5"/>
<circle fill="#DB5931" cx="600" cy="280.9" r="6.4"/>
<circle fill="#EA212D" cx="631.4" cy="270.3" r="11.9"/>
<circle fill="#EA212D" cx="623.4" cy="301.3" r="7.8"/>
<circle fill="#F27930" cx="623.5" cy="285.7" r="10"/>
<circle fill="#EA212D" cx="592.9" cy="287.9" r="11.8"/>
<circle fill="#F9AE31" cx="678.7" cy="317.1" r="10.1"/>
<circle fill="#F9AE31" cx="582.8" cy="318.8" r="9.7"/>
<circle fill="#F27930" cx="587.9" cy="309.2" r="7.2"/>
<circle fill="#EA212D" cx="593.9" cy="319" r="14.8"/>
<circle fill="#DB5931" cx="550.6" cy="320.5" r="9"/>
<circle fill="#F9AE31" cx="546.4" cy="311.4" r="13.2"/>
<circle fill="#F9AE31" cx="530" cy="294.4" r="6"/>
<circle fill="#F27930" cx="556.9" cy="284.5" r="3.8"/>
<circle fill="#F27930" cx="600.1" cy="306.3" r="10.2"/>
<circle fill="#DB5931" cx="605.2" cy="298.1" r="12.6"/>
<circle fill="#F9AE31" cx="607" cy="288" r="10.8"/>
<circle fill="#F27930" cx="591.1" cy="266.1" r="14.1"/>
<circle fill="#F9AE31" cx="585.5" cy="266.1" r="4.8"/>
<circle fill="#F9AE31" cx="579.3" cy="276.3" r="4.6"/>
<circle fill="#DB5931" cx="614.1" cy="260.9" r="1.6"/>
<circle fill="#DB5931" cx="657.1" cy="252.7" r="7.7"/>
<circle fill="#DB5931" cx="649.3" cy="201.2" r="5.3"/>
<circle fill="#DB5931" cx="766.8" cy="148.3" r="5.3"/>
<circle fill="#DB5931" cx="789.3" cy="296.1" r="5.3"/>
<circle fill="#FFFFFF" cx="630.2" cy="229.3" r="11.8"/>
<circle fill="#F9AE31" cx="595.5" cy="238.9" r="6.5"/>
<circle fill="#F27930" cx="601.6" cy="218.4" r="16.9"/>
<circle fill="#DB5931" cx="640.5" cy="176.4" r="10.8"/>
<circle fill="#F9AE31" cx="605.1" cy="184" r="14.4"/>
<circle fill="#EA212D" cx="582" cy="203.9" r="5"/>
<circle fill="#EA212D" cx="580.6" cy="189.3" r="11.9"/>
<circle fill="#EA212D" cx="582.7" cy="172.8" r="8.9"/>
<circle fill="#F9AE31" cx="620" cy="140.8" r="10.8"/>
<circle fill="#DB5931" cx="613.2" cy="128.5" r="12.2"/>
<circle fill="#EA212D" cx="598.3" cy="104.6" r="18"/>
<circle fill="#EA212D" cx="569.6" cy="103.3" r="17.4"/>
<circle fill="#EA212D" cx="557.1" cy="138.2" r="5.5"/>
<circle fill="#F27930" cx="640.7" cy="107.7" r="13.1"/>
<circle fill="#F9AE31" cx="651.3" cy="98.4" r="9.4"/>
<circle fill="#EA212D" cx="677.6" cy="82.4" r="8.8"/>
<circle fill="#F9AE31" cx="655.6" cy="51.2" r="6.8"/>
<circle fill="#EA212D" cx="693.9" cy="37" r="17.4"/>
<circle fill="#F27930" cx="601.2" cy="52.1" r="19.3"/>
<circle fill="#F27930" cx="586.3" cy="24.5" r="16.8"/>
<circle fill="#F9AE31" cx="561.9" cy="32.1" r="9.2"/>
<circle fill="#F9AE31" cx="541.8" cy="100.1" r="6.6"/>
<circle fill="#F27930" cx="546.9" cy="97" r="1.4"/>
<circle fill="#EA212D" cx="510.4" cy="71.4" r="18.8"/>
<circle fill="#DB5931" cx="500.2" cy="119.1" r="15.7"/>
<circle fill="#DB5931" cx="548.8" cy="239.9" r="1.8"/>
<circle fill="#DB5931" cx="549.6" cy="213.7" r="4.8"/>
<circle fill="#F9AE31" cx="483.3" cy="177.4" r="7.6"/>
<circle fill="#F9AE31" cx="458.6" cy="180.8" r="2.9"/>
<circle fill="#FFFFFF" cx="532.8" cy="260.9" r="17.6"/>
<circle fill="#F9AE31" cx="551.5" cy="221.8" r="3.8"/>
<circle fill="#DB5931" cx="541.5" cy="221.3" r="9.2"/>
<circle fill="#F27930" cx="588.8" cy="315.4" r="5.9"/>
<circle fill="#EA212D" cx="545.3" cy="329.2" r="15.4"/>
<circle fill="#EA212D" cx="607.4" cy="364.5" r="9.4"/>
<circle fill="#F9AE31" cx="596.3" cy="383.3" r="13.8"/>
<circle fill="#EA212D" cx="572.1" cy="384.5" r="15.2"/>
<circle fill="#A62D34" cx="686.4" cy="410.8" r="4.2"/>
<circle fill="#F27930" cx="625.4" cy="392.3" r="17.3"/>
<circle fill="#F27930" cx="663.3" cy="438.9" r="8.5"/>
<circle fill="#EA212D" cx="586.3" cy="404.7" r="14"/>
<circle fill="#DB5931" cx="571.1" cy="451.3" r="19.3"/>
<circle fill="#C3208B" cx="548.4" cy="466.8" r="19.2"/>
<circle fill="#DB5931" cx="633.5" cy="457.2" r="12.2"/>
<circle fill="#EA212D" cx="598" cy="462.7" r="17.4"/>
<circle fill="#EA212D" cx="519.8" cy="405.2" r="8.8"/>
<circle fill="#EA212D" cx="500.2" cy="424" r="8.8"/>
<circle fill="#EA212D" cx="432" cy="561.9" r="8.8"/>
<circle fill="#EA212D" cx="610.4" cy="418.2" r="17.4"/>
<circle fill="#F27930" cx="545.5" cy="425.2" r="19.3"/>
<circle fill="#F27930" cx="610.4" cy="438.9" r="16.8"/>
<circle fill="#F9AE31" cx="664.8" cy="430.4" r="6.6"/>
<circle fill="#EA212D" cx="589.9" cy="425.8" r="18.8"/>
<circle fill="#A62D34" cx="580" cy="384.8" r="5.3"/>
<circle opacity="0.5" fill="#F9AE31" cx="564.1" cy="372.2" r="8.5"/>
<circle fill="#F9AE31" cx="559.9" cy="366.6" r="3.7"/>
<circle fill="#F9AE31" cx="602.1" cy="351.5" r="19.4"/>
<circle fill="#F27930" cx="646.2" cy="386.2" r="3.5"/>
<circle fill="#EA212D" cx="661.3" cy="379.3" r="9.4"/>
<circle fill="#DB5931" cx="656.8" cy="329.6" r="12.4"/>
<circle fill="#EA212D" cx="717.9" cy="367.1" r="20.2"/>
<circle fill="#EA212D" cx="519.8" cy="379.4" r="10.5"/>
<circle fill="#F9AE31" cx="492.3" cy="368.6" r="26.5"/>
<circle fill="#F9AE31" cx="521.2" cy="334" r="24.9"/>
<circle fill="#F9AE31" cx="965.9" cy="351.2" r="12.4"/>
<circle fill="#F9AE31" cx="554.4" cy="618.4" r="21"/>
<circle fill="#A62D34" cx="598.1" cy="789" r="9.2"/>
<circle fill="#F27930" cx="508.1" cy="778" r="17.3"/>
<circle fill="#F27930" cx="541.2" cy="776" r="8.5"/>
<circle fill="#DB5931" cx="559.1" cy="805.1" r="7.5"/>
<circle fill="#F9AE31" cx="564.2" cy="795.4" r="12.8"/>
<circle fill="#EA212D" cx="580.6" cy="802.8" r="14"/>
<circle fill="#F9AE31" cx="646" cy="842.4" r="4.2"/>
<circle fill="#DB5931" cx="643.8" cy="827.5" r="15.1"/>
<circle opacity="0.25" fill="#C3208B" cx="574.1" cy="733.5" r="20.5"/>
<circle fill="#DB5931" cx="586.9" cy="736.2" r="19.3"/>
<circle fill="#F9AE31" cx="586.5" cy="706.6" r="13.6"/>
<circle fill="#C3208B" cx="581" cy="685.1" r="19.2"/>
<circle opacity="0.25" fill="#F9AE31" cx="585.6" cy="642.2" r="10.2"/>
<circle fill="#FFFFFF" cx="574.7" cy="585.3" r="6"/>
<circle fill="#DB5931" cx="598.4" cy="598.1" r="10.5"/>
<circle fill="#DB5931" cx="600" cy="582.3" r="6.4"/>
<circle fill="#EA212D" cx="631.4" cy="592.9" r="11.9"/>
<circle fill="#EA212D" cx="623.4" cy="561.9" r="7.8"/>
<circle fill="#F27930" cx="623.5" cy="577.5" r="10"/>
<circle fill="#EA212D" cx="592.9" cy="575.3" r="11.8"/>
<circle fill="#F9AE31" cx="678.7" cy="546.1" r="10.1"/>
<circle fill="#F9AE31" cx="582.8" cy="544.4" r="9.7"/>
<circle fill="#F27930" cx="587.9" cy="554" r="7.2"/>
<circle fill="#EA212D" cx="593.9" cy="544.2" r="14.8"/>
<circle fill="#DB5931" cx="550.6" cy="542.7" r="9"/>
<circle fill="#F9AE31" cx="546.4" cy="551.8" r="13.2"/>
<circle fill="#F9AE31" cx="530" cy="568.8" r="6"/>
<circle fill="#F27930" cx="556.9" cy="578.7" r="3.8"/>
<circle fill="#F27930" cx="600.1" cy="556.9" r="10.2"/>
<circle fill="#DB5931" cx="605.2" cy="565.1" r="12.6"/>
<circle fill="#F9AE31" cx="607" cy="575.2" r="10.8"/>
<circle fill="#F27930" cx="591.1" cy="597.1" r="14.1"/>
<circle fill="#F9AE31" cx="585.5" cy="597.1" r="4.8"/>
<circle fill="#F9AE31" cx="579.3" cy="586.9" r="4.6"/>
<circle fill="#DB5931" cx="614.1" cy="602.3" r="1.6"/>
<circle fill="#DB5931" cx="657.1" cy="610.5" r="7.7"/>
<circle fill="#DB5931" cx="355.3" cy="463.5" r="7.7"/>
<circle fill="#DB5931" cx="649.3" cy="662" r="5.3"/>
<circle fill="#FFFFFF" cx="630.2" cy="633.9" r="11.8"/>
<circle fill="#F9AE31" cx="595.5" cy="624.3" r="6.5"/>
<circle fill="#F27930" cx="601.6" cy="644.8" r="16.9"/>
<circle fill="#DB5931" cx="640.5" cy="686.8" r="10.8"/>
<circle fill="#F9AE31" cx="605.1" cy="679.2" r="14.4"/>
<circle fill="#EA212D" cx="582" cy="659.3" r="5"/>
<circle fill="#EA212D" cx="580.6" cy="673.9" r="11.9"/>
<circle fill="#EA212D" cx="582.7" cy="690.4" r="8.9"/>
<circle fill="#F9AE31" cx="620" cy="722.4" r="10.8"/>
<circle fill="#DB5931" cx="613.2" cy="734.7" r="12.2"/>
<circle fill="#DB5931" cx="585.5" cy="831.1" r="12.2"/>
<circle fill="#EA212D" cx="598.3" cy="758.6" r="18"/>
<circle fill="#EA212D" cx="569.6" cy="759.9" r="17.4"/>
<circle fill="#EA212D" cx="557.1" cy="725" r="5.5"/>
<circle fill="#F27930" cx="640.7" cy="755.5" r="13.1"/>
<circle fill="#F9AE31" cx="651.3" cy="764.8" r="9.4"/>
<circle fill="#EA212D" cx="677.6" cy="780.8" r="8.8"/>
<circle fill="#F9AE31" cx="655.6" cy="812" r="6.8"/>
<circle fill="#EA212D" cx="529.1" cy="831.1" r="17.4"/>
<circle fill="#F27930" cx="601.2" cy="811.1" r="19.3"/>
<circle fill="#F9AE31" cx="561.9" cy="831.1" r="9.2"/>
<circle fill="#F9AE31" cx="541.8" cy="763.1" r="6.6"/>
<circle fill="#F27930" cx="546.9" cy="766.2" r="1.4"/>
<circle fill="#EA212D" cx="510.4" cy="791.8" r="18.8"/>
<circle fill="#DB5931" cx="500.2" cy="744.1" r="15.7"/>
<circle fill="#DB5931" cx="548.8" cy="623.3" r="1.8"/>
<circle fill="#DB5931" cx="549.6" cy="649.5" r="4.8"/>
<circle fill="#F9AE31" cx="483.3" cy="685.7" r="7.6"/>
<circle fill="#F9AE31" cx="705.2" cy="706.6" r="7.6"/>
<circle fill="#F9AE31" cx="408.6" cy="302" r="7.6"/>
<circle fill="#F9AE31" cx="458.6" cy="682.4" r="2.9"/>
<circle fill="#FFFFFF" cx="532.8" cy="602.3" r="17.6"/>
<circle fill="#F9AE31" cx="551.5" cy="641.4" r="3.8"/>
<circle fill="#DB5931" cx="541.5" cy="641.9" r="9.2"/>
<circle fill="#DB5931" cx="757.5" cy="627.9" r="9.2"/>
<circle fill="#DB5931" cx="870" cy="562.8" r="9.2"/>
<circle fill="#F27930" cx="588.8" cy="547.8" r="5.9"/>
<circle fill="#EA212D" cx="545.3" cy="534" r="15.4"/>
<circle fill="#EA212D" cx="607.4" cy="498.7" r="9.4"/>
<circle fill="#F9AE31" cx="596.3" cy="479.9" r="13.8"/>
<circle fill="#EA212D" cx="572.1" cy="478.7" r="15.2"/>
<circle fill="#A62D34" cx="580" cy="478.4" r="5.3"/>
<circle opacity="0.5" fill="#F9AE31" cx="564.1" cy="491" r="8.5"/>
<circle fill="#F9AE31" cx="559.9" cy="496.6" r="3.7"/>
<circle fill="#F9AE31" cx="602.1" cy="511.7" r="19.4"/>
<circle fill="#F27930" cx="646.2" cy="477" r="3.5"/>
<circle fill="#EA212D" cx="661.3" cy="483.9" r="9.4"/>
<circle fill="#DB5931" cx="656.8" cy="533.6" r="12.4"/>
<circle fill="#EA212D" cx="717.9" cy="496.1" r="20.2"/>
<circle fill="#EA212D" cx="519.8" cy="483.8" r="10.5"/>
</svg>
