<?xml version="1.0" encoding="utf-8"?>
<!-- Generator: Adobe Illustrator 18.1.1, SVG Export Plug-In . SVG Version: 6.00 Build 0)  -->
<svg version="1.1" id="Layer_1" xmlns="http://www.w3.org/2000/svg" xmlns:xlink="http://www.w3.org/1999/xlink" x="0px" y="0px"
	 viewBox="0 0 91.9 70.2" enable-background="new 0 0 91.9 70.2" xml:space="preserve">
<g>
	<path fill="#19AA95" d="M82.6,0H56.1c-2,0-3.5,1.6-3.5,3.5c0,0.6,0.1,1.2,0.4,1.7l13.3,23c0.6,1.1,1.8,1.8,3.1,1.8
		c1.3,0,2.5-0.7,3.1-1.8l13.3-23c0.3-0.5,0.4-1.1,0.4-1.7C86.1,1.6,84.5,0,82.6,0z"/>
	<g>
		<path fill="#19AA95" d="M88,1.9C88,0.9,88.9,0,89.9,0l0,0c1.1,0,1.9,0.9,1.9,1.9l0,0c0,1.1-0.9,1.9-1.9,1.9l0,0
			C88.9,3.9,88,3,88,1.9L88,1.9z M88.4,1.9c0,0.8,0.7,1.5,1.5,1.5l0,0c0.8,0,1.5-0.7,1.5-1.5l0,0c0-0.8-0.7-1.5-1.5-1.5l0,0
			C89.1,0.4,88.4,1.1,88.4,1.9L88.4,1.9z"/>
		<g>
			<path fill="#19AA95" d="M90.7,2.9h-0.2c-0.1,0-0.1,0-0.2-0.1l-0.5-0.7h-0.1v0.6c0,0.1,0,0.1-0.1,0.1h-0.1c-0.1,0-0.1,0-0.1-0.1
				V1.1C89.3,1,89.4,1,89.4,1H90c0.3,0,0.4,0,0.5,0.1c0.1,0.1,0.1,0.3,0.1,0.5c0,0.3-0.1,0.5-0.4,0.5l0.5,0.6
				C90.7,2.8,90.7,2.9,90.7,2.9z M90.2,1.3c-0.1,0-0.4,0-0.5,0v0.6H90c0.1,0,0.2,0,0.2-0.1c0,0,0-0.1,0-0.2
				C90.3,1.4,90.2,1.3,90.2,1.3z"/>
		</g>
	</g>
	<g>
		<path fill="#19AA95" d="M41.4,32.6C41.4,32.7,41.4,32.7,41.4,32.6L41.4,32.6L41.4,32.6z M64.7,33.1l-0.1-0.3L48.1,4.4l-0.3-0.5
			c-1.4-2.4-4.1-3.9-7-3.9H27.3c-1.5,0-2.7,1.2-2.7,2.7c0,0.5,0.1,0.9,0.3,1.3l16.5,28.6c0.8,1.3,1.2,2.8,1.2,4.4
			c0,1.6-0.4,3-1.1,4.3L27.1,66.2c-0.2,0.4-0.3,0.8-0.3,1.3c0,1.5,1.2,2.7,2.7,2.7h13.9c3,0,5.6-1.5,7-3.9l0.3-0.5l13.8-23.9
			l0.3-0.4c0.7-1.2,1-2.6,1-4.1C65.8,35.8,65.4,34.3,64.7,33.1z"/>
	</g>
	<g>
		<path fill="#19AA95" d="M26.5,44.6c-0.3,0-0.5,0.1-0.7,0.1c-0.8,0.2-1.6,0.3-2.6,0.3c-0.5,0-1-0.1-1.3-0.2
			c-0.7-0.3-0.7-1.1-0.7-2.2h5.1c0.7,0,0.9-0.1,0.9-1.3c0-1.3-0.1-2.7-0.8-3.6c-0.6-0.9-1.7-1.3-3.4-1.3c-1.8,0-3,0.5-3.6,1.4
			c-0.7,0.9-0.8,2.2-0.8,4c0,2.1,0.3,3.4,1.2,4.3c0.7,0.7,1.8,1,3.4,1c0.9,0,2.1-0.1,3.2-0.3c0.7-0.1,0.8-0.4,0.8-0.9
			c0-0.2,0-0.5,0-0.7C27,45,26.8,44.6,26.5,44.6z M21.3,40.7c0-1.5,0.3-2.1,1.8-2.1c1.4,0,1.6,0.5,1.6,1.8c0,0,0,0.3,0,0.4h-3.4
			V40.7z M13.8,36.5c-1.1,0-2.1,0.4-2.8,0.7v-3.9c0-0.4-0.2-0.9-0.8-0.9H9.2c-0.6,0-0.9,0.2-0.9,0.9v12.7c0,0.5,0.2,0.8,0.8,0.8h1.1
			c0.7,0,0.8-0.4,0.8-0.9v-4.8c0-1.5,0.3-2,1.8-2c1.4,0,1.6,0.5,1.6,1.8c0,0,0,0.2,0,0.4h0c0,0.2,0,0.4,0,0.7V46
			c0,0.6,0.2,0.9,0.8,0.9h1.1c0.7,0,0.8-0.4,0.8-0.9v-6.5C17,38.1,16.4,36.5,13.8,36.5z"/>
		<g>
			<path fill="#19AA95" d="M6.1,39.1H3.8v4.2c0,1,0,1.4,0.1,1.5C4,44.9,4.1,45,4.2,45c0.6,0,1.2-0.3,1.7-0.3c0.5,0,0.6,0.4,0.6,0.6
				V46c0,0.8-0.2,1-0.9,1.1c-0.7,0.1-1.1,0.1-1.8,0.1c-2.2,0-2.7-0.8-2.7-3.3v-4.8H0.5c-0.4,0-0.5-0.3-0.5-0.6v-0.9
				c0-0.5,0.2-0.7,0.6-0.7h0.5v-1.7c0-0.7,0.3-0.9,0.9-0.9h0.9c0.7,0,0.8,0.5,0.8,0.9v1.7h2.1c0.5,0,0.7,0.1,0.7,0.7v0.7
				C6.6,39,6.4,39.1,6.1,39.1z"/>
		</g>
	</g>
	<g>
		<path fill="#19AA95" d="M55.5,63.6l1.6,2.7l1.5,0.9c0.2,0.1,0.3,0.3,0.1,0.5L58.6,68c-0.1,0.2-0.3,0.3-0.5,0.2l-1.5-0.8l-3.3,0
			c-0.1,0-0.2,0-0.2,0c-0.2-0.1-0.1-0.3-0.1-0.4l0.2-0.4c0.1-0.2,0.2-0.2,0.4-0.2l2.3,0l-1.2-2c-0.1-0.1-0.1-0.3,0-0.5l0.2-0.3
			c0.1-0.2,0.3-0.2,0.4-0.1C55.4,63.4,55.5,63.5,55.5,63.6z"/>
		<path fill="#19AA95" d="M62.7,61l-0.2,0.3c-0.1,0.2-0.3,0.2-0.5,0.1l-3-1.5c0.1,0.1,0.3,0.3,0.4,0.5c0.5,0.6,1.1,1.3,1.5,1.7
			c0.1,0.2,0.2,0.3,0.1,0.5l-0.1,0.2c-0.1,0.2-0.3,0.3-0.5,0.2c-0.5-0.1-1.4-0.2-2.2-0.4c-0.2,0-0.5-0.1-0.6-0.1l2.8,1.8
			c0.2,0.1,0.3,0.3,0.1,0.5l-0.2,0.3c-0.1,0.2-0.3,0.3-0.5,0.2l-3.9-2.7c-0.2-0.2-0.2-0.3-0.1-0.5l0.2-0.4c0.1-0.2,0.2-0.3,0.4-0.2
			c0.8,0.1,2.2,0.4,3.3,0.6c-0.7-0.8-1.6-1.9-2.1-2.6c-0.1-0.2-0.1-0.3,0-0.5l0.2-0.4c0.1-0.2,0.2-0.3,0.5-0.2l4.3,2
			C62.8,60.6,62.8,60.7,62.7,61z"/>
		<path fill="#19AA95" d="M64.9,57.3c-0.2,0.3-0.2,0.5-0.4,0.8c-0.2,0.3-0.4,0.6-0.6,0.8c-0.8,0.8-1.8,0.6-3-0.1
			c-2.1-1.2-2.1-2.1-1.3-3.5c0.2-0.3,0.3-0.5,0.5-0.8c0.2-0.3,0.3-0.3,0.5-0.2l0.2,0.1c0.3,0.1,0.3,0.2,0.2,0.5
			c-0.2,0.3-0.3,0.4-0.5,0.7c-0.1,0.2-0.3,0.6-0.3,0.8c-0.1,0.5,0.5,0.9,1.3,1.3c0.8,0.5,1.4,0.8,1.9,0.2c0.1-0.1,0.2-0.3,0.4-0.5
			c0.2-0.4,0.3-0.5,0.4-0.8c0.1-0.2,0.2-0.2,0.5-0.1l0.2,0.1C65,56.8,65,56.9,64.9,57.3z"/>
		<path fill="#19AA95" d="M67.5,52.6L67.3,53c-0.1,0.2-0.3,0.2-0.4,0.2L65.8,53c-0.2,0.3-0.3,0.5-0.5,0.8c-0.2,0.3-0.3,0.6-0.5,0.8
			l0.7,0.8c0.2,0.2,0.2,0.3,0.1,0.5l-0.2,0.3c-0.1,0.2-0.2,0.2-0.3,0.2c0,0-0.1-0.1-0.2-0.2l-3.2-3.8c-0.2-0.2-0.2-0.3-0.1-0.6
			l0.2-0.3c0.2-0.3,0.3-0.3,0.6-0.2l5,0.9c0,0,0.1,0,0.1,0C67.6,52.3,67.6,52.5,67.5,52.6z M62.9,52.4l1.3,1.5
			c0.1-0.2,0.2-0.4,0.3-0.6c0.1-0.2,0.2-0.4,0.3-0.6L62.9,52.4z"/>
	</g>
</g>
</svg>
