<?xml version="1.0" encoding="utf-8"?>
<!-- Generator: Adobe Illustrator 18.1.1, SVG Export Plug-In . SVG Version: 6.00 Build 0)  -->
<svg version="1.1" id="Layer_1" xmlns="http://www.w3.org/2000/svg" xmlns:xlink="http://www.w3.org/1999/xlink" x="0px" y="0px"
	 viewBox="0 0 780.6 219.2" enable-background="new 0 0 780.6 219.2" xml:space="preserve">
<g>
	<g>
		<g>
			<rect x="156.8" y="39.9" fill="#19AA95" width="75.2" height="87.8"/>
			<g>
				<path fill="#FFFFFF" d="M215.9,61.8c0,0.9-0.2,1.8-0.7,2.6l-14.8,25.1v15.4c0,2.7-1.3,4.1-4,4.1h-3.3c-1.5,0-2.6-0.3-3.3-0.9
					c-0.8-0.6-1.1-1.7-1.1-3.2V90.1l-15-25.6c-0.5-1-0.8-1.9-0.8-2.6c0-1.2,0.4-2,1.2-2.4c0.8-0.5,1.6-0.7,2.6-0.7h4.1
					c1.2,0,2.1,0.2,2.8,0.6c0.7,0.4,1.2,1.1,1.7,1.9l9.5,16.5l9.7-16.5c0.5-0.9,1.1-1.5,1.7-1.9c0.6-0.4,1.6-0.6,2.8-0.6h3.3
					c1.2,0,2.2,0.3,2.8,0.9C215.6,60.2,215.9,60.9,215.9,61.8z"/>
			</g>
		</g>
		<g>
			<rect x="235.1" y="8.9" fill="#19AA95" width="75.2" height="87.8"/>
			<g>
				<path fill="#FFFFFF" d="M295.1,52.8c0,5.2-0.7,9.8-2.1,13.7c-1.4,4-3.7,7.1-7,9.4c-3.3,2.3-7.8,3.5-13.3,3.5
					c-4.2,0-7.7-0.7-10.6-2c-2.9-1.4-5.2-3.3-6.9-5.7c-1.7-2.4-3-5.2-3.7-8.4c-0.7-3.2-1.1-6.7-1.1-10.5c0-3.9,0.4-7.5,1.1-10.6
					c0.7-3.1,1.9-5.9,3.7-8.3c1.7-2.4,4-4.3,6.9-5.7c2.9-1.3,6.4-2,10.7-2c5.6,0,10,1.2,13.3,3.5c3.3,2.3,5.7,5.4,7,9.4
					C294.4,43,295.1,47.6,295.1,52.8z M282.9,52.8c0-2.6-0.1-5-0.3-7.2c-0.2-2.2-0.6-3.9-1.2-5.1c-1.3-2.7-4.2-4.1-8.6-4.1
					c-4.4,0-7.3,1.4-8.6,4.1c-1.1,2.3-1.6,6.4-1.6,12.3c0,5.9,0.5,9.9,1.6,12.2c1.3,2.8,4.2,4.2,8.6,4.2c4.5,0,7.3-1.4,8.6-4.2
					C282.4,62.7,282.9,58.7,282.9,52.8z"/>
			</g>
		</g>
		<g>
			<rect x="313.5" y="0" fill="#19AA95" width="75.2" height="87.8"/>
			<g>
				<path fill="#FFFFFF" d="M372.5,37.4c0,5-0.1,8.7-0.2,11.1c-0.1,2.4-0.3,4.7-0.7,6.8c-0.7,3.7-1.9,6.5-3.6,8.6
					c-1.7,2.1-4,3.5-6.7,4.4c-2.7,0.8-6.1,1.2-10.1,1.2c-4,0-7.4-0.4-10.2-1.2c-2.8-0.8-5-2.3-6.8-4.4c-1.7-2.1-2.9-4.9-3.6-8.6
					c-0.3-1.5-0.5-3.1-0.6-4.6c-0.1-1.5-0.2-3.1-0.2-4.8c0-1.7,0-4.6,0-8.5V22c0-1.6,0.4-2.6,1.3-3.1c0.9-0.5,1.9-0.7,3.2-0.7h3.2
					c1.5,0,2.5,0.3,3.2,1c0.6,0.7,1,1.6,1,2.8v21.5c0,2.8,0,5,0.1,6.5c0.1,1.5,0.3,2.8,0.5,3.7c0.2,1,0.5,1.8,0.9,2.6
					c0.5,1.1,1.3,1.9,2.5,2.4c1.2,0.5,3,0.7,5.5,0.7c2.6,0,4.5-0.2,5.6-0.7c1.2-0.5,2-1.3,2.4-2.4c0.6-1.2,1-2.6,1.2-4.2
					c0.2-1.6,0.3-4.5,0.3-8.6V22c0-1.6,0.5-2.6,1.4-3.1c0.9-0.5,2-0.7,3.2-0.7h3.2c2.6,0,4,1.3,4,3.8V37.4z"/>
			</g>
		</g>
		<g>
			<rect x="391.9" y="22" fill="#19AA95" width="75.2" height="87.8"/>
			<g>
				<path fill="#FFFFFF" d="M449.8,46.5c0,2.8-1.3,4.3-4,4.3c-2.9,0-6.3,0-10.3-0.1v36.3c0,2.7-1.4,4.1-4.1,4.1h-3.2
					c-1.5,0-2.6-0.3-3.4-0.9c-0.7-0.6-1.1-1.7-1.1-3.2V50.7c-4,0.1-7.5,0.1-10.3,0.1c-1.7,0-2.8-0.4-3.3-1.2c-0.5-0.8-0.8-1.8-0.8-3
					v-2c0-2.5,1.4-3.8,4.1-3.8h32.4c2.7,0,4,1.3,4,3.8V46.5z"/>
			</g>
		</g>
		<g>
			<rect x="470.3" y="6" fill="#19AA95" width="75.2" height="87.8"/>
			<g>
				<path fill="#FFFFFF" d="M528,71c0,2.7-1.4,4.1-4.2,4.1h-3.2c-1.5,0-2.6-0.3-3.3-0.9c-0.8-0.6-1.1-1.7-1.1-3.2V53
					c-1.7,0-4.4,0.1-8.3,0.1c-1,0-1.9,0-2.7,0c-0.8,0-1.8,0-3,0c-1.2,0-2,0-2.6-0.1v18c0,2.7-1.4,4.1-4.1,4.1h-3.2
					c-1.5,0-2.6-0.3-3.4-0.9c-0.8-0.6-1.2-1.7-1.2-3.1V28.6c0-1.6,0.4-2.6,1.3-3.1c0.9-0.5,1.9-0.7,3.2-0.7h3.2
					c2.7,0,4.1,1.3,4.1,3.8v14.9c1.7,0,4.4-0.1,8.3-0.1c3.9,0,6.6,0,8.3,0.1V28.6c0-1.6,0.4-2.6,1.3-3.1c0.9-0.5,1.9-0.7,3.2-0.7
					h3.2c2.8,0,4.2,1.3,4.2,3.8V71z"/>
			</g>
		</g>
		<g>
			<rect x="0" y="116.1" fill="#19AA95" width="75.2" height="87.8"/>
			<g>
				<path fill="#FFFFFF" d="M57.8,160.5c0,4-0.3,7.6-1,10.7c-0.6,3.2-2,5.9-3.9,8.2c-2,2.3-4.8,3.9-8.6,4.7
					c-1.7,0.4-3.4,0.6-4.9,0.7c-1.6,0.1-3,0.2-4.3,0.2H21.9c-1.5,0-2.6-0.3-3.4-0.9c-0.8-0.6-1.2-1.7-1.2-3.1v-42.4
					c0-1.6,0.4-2.6,1.3-3.1c0.9-0.5,1.9-0.7,3.2-0.7h13.2c4.2,0,7.6,0.3,10.3,1c2.7,0.7,5,1.9,6.8,3.7c1.8,1.8,3.2,4.4,4.1,7.8
					C57.4,150.8,57.8,155.1,57.8,160.5z M45.7,158.2c0-3.5-0.3-6.2-0.8-8.2c-0.5-2-1.7-3.4-3.5-4.1c-1.5-0.6-4.1-0.9-7.8-0.9
					c-2.4,0-3.9,0-4.4,0.1v29.8c0.6,0.1,2,0.1,4.4,0.1c3.6,0,6.2-0.4,7.9-1.1c1.7-0.7,2.8-2.1,3.3-4.1c0.6-2,0.8-5,0.8-9.2V158.2z"
					/>
			</g>
		</g>
		<g>
			<rect x="78.4" y="94.1" fill="#19AA95" width="75.2" height="87.8"/>
			<g>
				<path fill="#FFFFFF" d="M132,159.3c0,2.5-1.4,3.8-4.1,3.8h-23.4c-1.5,0-2.6-0.3-3.4-0.9c-0.8-0.6-1.2-1.7-1.2-3.1v-42.4
					c0-1.6,0.4-2.6,1.3-3.1c0.9-0.5,1.9-0.7,3.2-0.7h23.4c2.7,0,4.1,1.3,4.1,3.8v2c0,1.2-0.3,2.2-0.8,3c-0.5,0.8-1.6,1.2-3.3,1.2
					c-2,0-3.5,0-4.7,0c-1.2,0-2.6,0-4.2-0.1c-1.6,0-3,0-4.2-0.1c-1.2,0-2.2,0-2.9,0v9.6c1.8,0,3.6-0.1,5.5-0.1c1.9,0,3.3-0.1,4-0.1
					c0.7,0,2.4,0,4.8,0c2.8,0,4.2,1.4,4.2,4.3v1c0,2.8-1.4,4.3-4.2,4.3c-2.1,0-4.2,0-6.6-0.1c-2.3,0-4.9-0.1-7.8-0.1v11.8
					c2,0,4.1-0.1,6.3-0.1c2.3,0,3.8-0.1,4.6-0.1c0.8,0,2.5,0,5.1,0c1.7,0,2.8,0.4,3.3,1.2c0.5,0.8,0.8,1.8,0.8,3V159.3z"/>
			</g>
		</g>
		<g>
			<rect x="156.8" y="131.4" fill="#19AA95" width="75.2" height="87.8"/>
			<g>
				<path fill="#FFFFFF" d="M217.7,152.8c0,0.5-0.2,1.4-0.6,2.5l-15.5,41.4c-0.5,1.3-1.1,2.2-1.8,2.8c-0.7,0.6-1.9,0.9-3.5,0.9h-3.5
					c-1.5,0-2.6-0.3-3.4-0.9c-0.7-0.6-1.4-1.5-1.9-2.9l-16.2-42.1c-0.2-0.6-0.3-1.1-0.3-1.4c0-1.2,0.4-2,1.1-2.4
					c0.7-0.4,1.5-0.6,2.4-0.6h4.6c2.2,0,3.7,1.1,4.4,3.2l11.1,30.5l10.8-30.1c0.4-1.2,1-2.1,1.6-2.7c0.7-0.6,1.7-0.9,3.1-0.9h3.7
					c1.6,0,2.6,0.2,3.1,0.6C217.5,151.2,217.7,151.9,217.7,152.8z"/>
			</g>
		</g>
		<g>
			<rect x="235.1" y="100.4" fill="#19AA95" width="75.2" height="87.8"/>
			<g>
				<path fill="#FFFFFF" d="M288.8,165.6c0,2.5-1.4,3.8-4.1,3.8h-23.4c-1.5,0-2.6-0.3-3.4-0.9s-1.2-1.7-1.2-3.1V123
					c0-1.6,0.4-2.6,1.3-3.1c0.9-0.5,1.9-0.7,3.2-0.7h23.4c2.7,0,4.1,1.3,4.1,3.8v2c0,1.2-0.3,2.2-0.8,3c-0.5,0.8-1.6,1.2-3.3,1.2
					c-2,0-3.5,0-4.7,0c-1.2,0-2.6,0-4.2-0.1c-1.6,0-3,0-4.2-0.1c-1.2,0-2.2,0-2.9,0v9.6c1.8,0,3.6-0.1,5.5-0.1c1.9,0,3.3-0.1,4-0.1
					c0.7,0,2.4,0,4.8,0c2.8,0,4.2,1.4,4.2,4.3v1c0,2.8-1.4,4.3-4.2,4.3c-2.1,0-4.2,0-6.6-0.1c-2.3,0-4.9-0.1-7.8-0.1v11.8
					c2,0,4.1-0.1,6.3-0.1c2.3,0,3.8-0.1,4.6-0.1c0.8,0,2.5,0,5.1,0c1.7,0,2.8,0.4,3.3,1.2c0.5,0.8,0.8,1.8,0.8,3V165.6z"/>
			</g>
		</g>
		<g>
			<rect x="313.5" y="91" fill="#19AA95" width="75.2" height="87.8"/>
			<g>
				<path fill="#FFFFFF" d="M366,156.2c0,2.5-1.3,3.8-4,3.8h-21.2c-1.5,0-2.6-0.3-3.4-0.9c-0.8-0.6-1.2-1.7-1.2-3.1v-42.4
					c0-1.6,0.4-2.6,1.3-3.1c0.9-0.5,1.9-0.7,3.2-0.7h3.2c2.7,0,4.1,1.3,4.1,3.8v36.5c5.1-0.1,9.7-0.1,13.9-0.1c2.7,0,4,1.4,4,4.3
					V156.2z"/>
			</g>
		</g>
		<g>
			<rect x="391.9" y="113.5" fill="#19AA95" width="75.2" height="87.8"/>
			<g>
				<path fill="#FFFFFF" d="M447.6,150.1c0,3.8-0.6,7-1.7,9.5c-1.1,2.5-2.9,4.4-5.3,5.5c-1.5,0.7-3,1.1-4.6,1.3
					c-1.5,0.2-3.7,0.3-6.6,0.3h-6.2v11.6c0,2.7-1.4,4.1-4.1,4.1h-3.2c-1.5,0-2.6-0.3-3.4-0.9s-1.2-1.7-1.2-3.1v-42.4
					c0-1.6,0.4-2.6,1.3-3.1c0.9-0.5,1.9-0.7,3.2-0.7h14c4.1,0,7,0.2,8.7,0.7c1.7,0.4,3.3,1.4,4.9,3c1.4,1.4,2.5,3.3,3.2,5.7
					C447.3,144,447.6,146.9,447.6,150.1z M435.9,150.5v-0.9c0-4.1-0.5-6.3-1.6-6.8c-0.6-0.3-2.2-0.5-4.7-0.5h-0.9
					c-2.4,0-4.3,0-5.5,0.1v14.5h7.7h0.1c2.3,0,3.6-0.4,4.2-1.1C435.6,155.1,435.9,153.3,435.9,150.5z"/>
			</g>
		</g>
		<g>
			<rect x="470.3" y="97.3" fill="#19AA95" width="75.2" height="87.8"/>
			<g>
				<path fill="#FFFFFF" d="M534.9,162.6c0,2.4-1.5,3.7-4.5,3.7h-3.2c-2.6,0-4-1.3-4.2-3.9l-1.7-25.6c-0.7,1.8-2,5.3-3.8,10.5
					c-1.8,5.2-3.1,8.6-3.7,10.1c-0.5,1.2-1.1,2.1-1.8,2.6c-0.7,0.6-1.8,0.9-3.1,0.9h-1.9c-1,0-1.7-0.1-2.4-0.4
					c-0.6-0.3-1.1-0.7-1.5-1.3c-0.4-0.6-0.7-1.2-1-1.8c-0.2-0.5-0.8-2.1-1.9-4.9c-1-2.8-2.1-5.6-3.1-8.4c-1.1-2.9-2-5.3-2.7-7.3
					l-1.7,25.6c-0.2,2.6-1.6,3.9-4.2,3.9h-3.2c-3,0-4.5-1.2-4.5-3.7V162l3.9-42.3c0.1-1.5,0.6-2.4,1.4-2.9c0.8-0.5,1.8-0.7,3.2-0.7
					h4.2c1.3,0,2.3,0.2,3,0.7c0.7,0.4,1.3,1.2,1.7,2.1c0.5,1.2,1.2,2.9,2.1,5.2c0.9,2.3,1.7,4.6,2.6,6.8c0.8,2.2,1.6,4.5,2.5,6.8
					c0.8,2.3,1.7,4.8,2.7,7.4c0.1-0.4,0.7-1.9,1.7-4.5c1-2.6,1.9-5.2,2.8-7.8c0.9-2.5,1.8-5,2.7-7.3c0.9-2.3,1.7-4.5,2.6-6.6
					c0.4-1,1-1.7,1.7-2.1c0.7-0.4,1.7-0.6,2.9-0.6h4.2c1.3,0,2.3,0.2,3.1,0.7c0.8,0.5,1.2,1.5,1.4,2.9l3.9,42.3V162.6z"/>
			</g>
		</g>
		<g>
			<rect x="548.6" y="119.3" fill="#19AA95" width="75.2" height="87.8"/>
			<g>
				<path fill="#FFFFFF" d="M602.2,184.5c0,2.5-1.4,3.8-4.1,3.8h-23.4c-1.5,0-2.6-0.3-3.4-0.9c-0.8-0.6-1.2-1.7-1.2-3.1v-42.4
					c0-1.6,0.4-2.6,1.3-3.1c0.9-0.5,1.9-0.7,3.2-0.7h23.4c2.7,0,4.1,1.3,4.1,3.8v2c0,1.2-0.3,2.2-0.8,3c-0.5,0.8-1.6,1.2-3.3,1.2
					c-2,0-3.5,0-4.7,0c-1.2,0-2.6,0-4.2-0.1c-1.6,0-3,0-4.2-0.1c-1.2,0-2.2,0-2.9,0v9.6c1.8,0,3.6-0.1,5.5-0.1c1.9,0,3.3-0.1,4-0.1
					c0.7,0,2.4,0,4.8,0c2.8,0,4.2,1.4,4.2,4.3v1c0,2.8-1.4,4.3-4.2,4.3c-2.1,0-4.2,0-6.6-0.1c-2.3,0-4.9-0.1-7.8-0.1v11.8
					c2,0,4.1-0.1,6.3-0.1c2.3,0,3.8-0.1,4.6-0.1c0.8,0,2.5,0,5.1,0c1.7,0,2.8,0.4,3.3,1.2c0.5,0.8,0.8,1.8,0.8,3V184.5z"/>
			</g>
		</g>
		<g>
			<rect x="627" y="97.3" fill="#19AA95" width="75.2" height="87.8"/>
			<g>
				<path fill="#FFFFFF" d="M685.9,162.2c0,2.7-1.4,4.1-4.1,4.1h-2.2c-1.2,0-2.2-0.1-2.9-0.3c-0.7-0.2-1.4-0.7-2.1-1.5
					c-4.7-6.1-11.3-15.2-19.7-27.3v25.1c0,2.7-1.4,4.1-4.2,4.1h-2.9c-1.5,0-2.6-0.3-3.4-0.9c-0.8-0.6-1.2-1.7-1.2-3.1v-42.4
					c0-1.6,0.4-2.6,1.3-3.1c0.9-0.5,1.9-0.7,3.2-0.7h2c0.8,0,1.4,0,1.8,0.1c0.5,0.1,0.9,0.2,1.4,0.5c0.4,0.3,0.9,0.7,1.3,1.2
					c2.5,3.3,9.2,12.5,19.9,27.5v-25.5c0-1.6,0.4-2.6,1.3-3.1c0.9-0.5,1.9-0.7,3.2-0.7h3c2.7,0,4.1,1.3,4.1,3.8V162.2z"/>
			</g>
		</g>
		<g>
			<rect x="705.4" y="131.4" fill="#19AA95" width="75.2" height="87.8"/>
			<g>
				<path fill="#FFFFFF" d="M763.3,156c0,2.8-1.3,4.3-4,4.3c-2.9,0-6.3,0-10.3-0.1v36.3c0,2.7-1.4,4.1-4.1,4.1h-3.2
					c-1.5,0-2.6-0.3-3.4-0.9c-0.7-0.6-1.1-1.7-1.1-3.2v-36.3c-4,0.1-7.5,0.1-10.3,0.1c-1.7,0-2.8-0.4-3.3-1.2
					c-0.5-0.8-0.8-1.8-0.8-3v-2c0-2.5,1.4-3.8,4.1-3.8h32.4c2.7,0,4,1.3,4,3.8V156z"/>
			</g>
		</g>
	</g>
</g>
</svg>
