<?xml version="1.0" standalone="no"?>
<!DOCTYPE svg PUBLIC "-//W3C//DTD SVG 1.1//EN" "http://www.w3.org/Graphics/SVG/1.1/DTD/svg11.dtd" >
<svg>
<metadata>
Created by FontForge 20110222 at Tue May 28 13:57:33 2013
 By Orthosie Webhosting
Copyright 1997 Monotype Imaging Inc. All rights reserved.
</metadata>
<defs>
<font id="CachetBoldRegular" horiz-adv-x="1116" >
  <font-face 
    font-family="CachetBoldRegular"
    font-weight="700"
    font-stretch="normal"
    units-per-em="2048"
    panose-1="2 15 8 3 3 4 4 4 2 4"
    ascent="1638"
    descent="-410"
    x-height="981"
    cap-height="1368"
    bbox="-113 -489 2546 2015"
    underline-thickness="223"
    underline-position="-155"
    unicode-range="U+0020-F002"
  />
<missing-glyph horiz-adv-x="1024" 
d="M51 0v1536h922v-1536h-922zM179 128h666v1280h-666v-1280z" />
    <glyph glyph-name=".notdef" horiz-adv-x="1024" 
d="M51 0v1536h922v-1536h-922zM179 128h666v1280h-666v-1280z" />
    <glyph glyph-name=".null" horiz-adv-x="0" 
 />
    <glyph glyph-name="nonmarkingreturn" horiz-adv-x="502" 
 />
    <glyph glyph-name="space" unicode=" " horiz-adv-x="502" 
 />
    <glyph glyph-name="exclam" unicode="!" horiz-adv-x="653" 
d="M481 1262v-2l-14 -668q-4 -111 -107 -111h-67q-63 0 -83 20.5t-22 90.5l-16 668v6q0 102 113 102h92q54 0 79 -32t25 -74zM530 172q0 -38 -35.5 -87.5t-83 -85.5t-81.5 -36q-83 0 -180 135q-27 33 -27 68q0 26 21.5 63.5t55 71t67.5 54t59 20.5q74 0 178 -135
q26 -39 26 -68z" />
    <glyph glyph-name="quotedbl" unicode="&#x22;" horiz-adv-x="840" 
d="M756 1468v-6l-21 -205q-4 -39 -25.5 -63.5t-78.5 -24.5h-33q-104 0 -113 88l-20 205v13q0 79 115 79h69q53 0 80 -25.5t27 -60.5zM377 1468v-6l-21 -205q-8 -88 -106 -88h-31q-104 0 -113 88l-20 205v13q0 79 113 79h71q53 0 80 -25.5t27 -60.5z" />
    <glyph glyph-name="numbersign" unicode="#" horiz-adv-x="1317" 
d="M1231 983l-55 -223h-138l-39 -162h134l-56 -223h-133l-76 -312h-260l78 312h-201l-77 -312h-265l80 312h-139l55 223h140l38 162h-137l56 223h137l78 309h258l-74 -309h203l75 309h258l-77 -309h137zM780 760h-200l-39 -162h200z" />
    <glyph glyph-name="dollar" unicode="$" horiz-adv-x="1296" 
d="M1047 430q0 -209 -41 -287q-45 -81 -138 -116.5t-219 -42.5v-127q0 -34 -10.5 -47t-36.5 -13h-31q-27 0 -34 9t-7 51v125q-128 2 -249 14q-73 6 -100 28t-27 64v68q0 69 20 93.5t80 24.5q43 0 129 -8q28 -2 59 -3.5t39.5 -2.5t48.5 -2v311q-15 6 -29.5 12.5t-41.5 18
t-45 18.5q-114 48 -170.5 97t-78.5 116.5t-22 174.5q0 159 68 254t215 114q33 4 104 8v129q0 36 10 46t44 10h18q47 0 47 -56v-129h6q86 0 236 -10q73 -4 101 -26.5t28 -65.5v-66q0 -68 -21 -93t-81 -25q-18 0 -95.5 5t-126.5 5h-47v-283l37 -14q162 -62 236 -108t99.5 -104
t25.5 -167zM530 872v236h-8q-58 0 -73 -20.5t-15 -75.5v-25q0 -38 4.5 -54.5t20.5 -29t59 -26.5zM756 416q0 40 -10 54.5t-48 29.5q-32 12 -49 20v-262q65 3 86 21.5t21 78.5v58z" />
    <glyph glyph-name="percent" unicode="%" horiz-adv-x="1907" 
d="M1784 365q0 -111 -25 -197t-95.5 -140.5t-197.5 -54.5q-184 0 -250.5 108.5t-66.5 283.5t66.5 283t250.5 108q127 0 197.5 -54.5t95.5 -140.5t25 -196zM1442 1337q0 -17 -10 -39l-748 -1335q-13 -22 -34 -33.5t-46 -11.5h-6q-14 0 -20 4l-95 58q-22 12 -22 53q0 23 10 39
l750 1335q25 45 75 45h7q14 0 20 -4l96 -57q23 -13 23 -54zM756 1004q0 -111 -25 -197t-95.5 -140.5t-197.5 -54.5t-196.5 54.5t-94 141t-24.5 196.5q0 109 24.5 195.5t94 141t196.5 54.5t197.5 -54.5t95.5 -140.5t25 -196zM1565 365q0 128 -27 184q-16 26 -72 26
q-63 0 -73 -26q-25 -48 -25 -184q0 -137 25 -185q10 -26 73 -26q56 0 72 26q27 56 27 185zM537 1004q0 62 -7.5 112.5t-17.5 71.5q-16 26 -74 26q-61 0 -71 -26q-25 -48 -25 -184q0 -137 25 -185q10 -26 71 -26q58 0 74 26q11 23 18 73t7 112z" />
    <glyph glyph-name="ampersand" unicode="&#x26;" horiz-adv-x="1436" 
d="M1352 127q0 -19 -25 -55q-34 -42 -65 -70.5t-58 -28.5q-26 0 -74.5 37t-89.5 78q-128 -121 -389 -121q-106 0 -193 11.5t-165 50t-124 116t-46 203.5q0 75 14 137.5t41.5 108t70.5 83t105 71.5q-141 155 -141 323q0 160 106 241t299 81q144 0 240 -27.5t147.5 -100
t51.5 -200.5q0 -65 -21.5 -117.5t-60 -93.5t-81.5 -71.5t-132 -86.5q44 -50 99.5 -106.5t117.5 -116.5q8 31 13 62t10.5 70t7.5 61q7 77 90 77h67q49 0 67.5 -18.5t18.5 -83.5q0 -79 -22.5 -177t-56.5 -161q52 -36 115 -91.5t63 -84.5zM764 1065q0 52 -29 65t-117 13
q-67 0 -87.5 -17.5t-20.5 -74.5q0 -92 94 -185q87 42 123.5 85.5t36.5 113.5zM838 262q-124 106 -297 291q-75 -43 -94 -74t-19 -117q0 -51 8.5 -78.5t31 -40t68 -16.5t115.5 -4q72 0 115.5 8.5t71.5 30.5z" />
    <glyph glyph-name="quotesingle" unicode="'" horiz-adv-x="461" 
d="M377 1470v-8l-21 -205q-4 -39 -25.5 -63.5t-78.5 -24.5h-33q-104 0 -113 88l-20 205v13q0 79 115 79h71q51 0 78 -25.5t27 -58.5z" />
    <glyph glyph-name="parenleft" unicode="(" horiz-adv-x="682" 
d="M692 -279q-122 3 -202.5 18.5t-144 57.5t-105.5 121q-39 75 -62 169.5t-34.5 193.5t-16 210.5t-4.5 190.5q0 226 22 426.5t95 337.5q42 78 105.5 121t147 60t199.5 20v-281q-87 -2 -132.5 -18.5t-68 -54t-36.5 -99.5q-19 -77 -28 -161.5t-11 -159t-2 -189.5
q0 -86 1 -129.5t5.5 -119t12 -134t22.5 -127.5q14 -62 36.5 -99.5t68 -54t132.5 -18.5v-281z" />
    <glyph glyph-name="parenright" unicode=")" horiz-adv-x="684" 
d="M561 682q0 -135 -8 -268t-34.5 -268.5t-76.5 -227.5q-42 -79 -105.5 -121t-144 -57.5t-202.5 -18.5v281q125 1 171 38t68 134q25 102 32 219.5t7 290.5t-7 290t-32 220q-14 63 -37.5 100t-68.5 53.5t-133 18.5v281q86 -2 154.5 -11.5t123 -30.5t99.5 -61t75 -98
q72 -132 95.5 -335t23.5 -429z" />
    <glyph glyph-name="asterisk" unicode="*" horiz-adv-x="813" 
d="M729 1192q0 -59 -76 -84l-55 -18l57 -80q23 -30 23 -62q0 -37 -39 -67l-29 -23q-35 -29 -65 -29q-39 0 -78 54l-61 84l-60 -84q-39 -54 -78 -54q-30 0 -65 29l-29 23q-41 31 -41 67q0 29 25 62l57 80l-53 18q-78 26 -78 86q0 19 10 49l12 35q22 63 74 63q15 0 39 -8
l76 -26v57q0 59 25.5 82.5t78.5 23.5h35q86 0 86 -94v-69l74 26q24 8 41 8q50 0 72 -63l12 -35q10 -30 10 -51z" />
    <glyph glyph-name="plus" unicode="+" horiz-adv-x="1180" 
d="M1085 432h-358v-340h-272v340h-361v250h361v340h272v-340h358v-250z" />
    <glyph glyph-name="comma" unicode="," horiz-adv-x="664" 
d="M541 158q0 -36 -52.5 -144t-118 -214t-96.5 -134q-29 -26 -63 -26q-45 0 -95 39.5t-50 82.5q0 21 71.5 132.5t81.5 132.5q-17 15 -40.5 37t-39.5 46.5t-16 49.5q0 32 29 63q53 63 97.5 107.5t76.5 44.5t78.5 -41t103.5 -98q33 -34 33 -78z" />
    <glyph glyph-name="hyphen" unicode="-" horiz-adv-x="975" 
d="M889 508q0 -40 -24 -59t-93 -19h-575q-113 0 -113 66v116q0 32 36 47t77 15h575q117 0 117 -62v-104z" />
    <glyph glyph-name="period" unicode="." horiz-adv-x="653" 
d="M530 172q0 -38 -35.5 -87.5t-83 -85.5t-81.5 -36q-83 0 -180 135q-27 33 -27 68q0 26 21.5 63.5t55 71t67.5 54t59 20.5q76 0 180 -135q24 -36 24 -68z" />
    <glyph glyph-name="slash" unicode="/" horiz-adv-x="743" 
d="M864 1329q0 -28 -10 -51l-545 -1268q-32 -73 -88 -73q-25 0 -53 14l-31 14q-48 23 -69 44t-21 54q0 28 14 60l547 1268q30 69 86 69q25 0 62 -16l47 -23q61 -29 61 -92z" />
    <glyph glyph-name="zero" unicode="0" horiz-adv-x="1309" 
d="M1184 684q0 -199 -41.5 -356t-159.5 -256t-328 -99q-212 0 -329 99t-158 254t-41 358t41 358t158 254t329 99q211 0 329 -99t159 -254t41 -358zM868 684q0 84 -6 152t-18 124t-25 84q-37 80 -164 80q-131 0 -166 -80q-47 -102 -47 -360t47 -360q35 -80 166 -80
q127 0 164 80q13 28 25 84t18 124t6 152z" />
    <glyph glyph-name="one" unicode="1" horiz-adv-x="1266" 
d="M829 111q0 -111 -104 -111h-74q-68 0 -99.5 22t-31.5 89v946q-98 -43 -123 -43q-58 0 -75 40t-17 101q0 42 19 68.5t59 42.5q8 3 90.5 38t136 49.5t115.5 14.5q55 0 79.5 -32.5t24.5 -73.5v-1151z" />
    <glyph glyph-name="two" unicode="2" horiz-adv-x="1300" 
d="M1073 104q0 -104 -112 -104h-734q-106 0 -106 104v68q0 29 12 55t30.5 50t38.5 44l48 48l156 156l89.5 89.5t59.5 61t35 39.5q76 89 115.5 155.5t39.5 135.5q0 77 -23.5 98.5t-103.5 21.5q-74 0 -141 -7.5t-119 -17t-57 -9.5q-33 0 -53 14.5t-28 35t-12.5 51.5t-8.5 58
q-2 9 -2 23q0 82 104 96q202 25 317 25q105 0 188.5 -21.5t140.5 -65t87.5 -110t30.5 -160.5q0 -121 -46 -227.5t-121.5 -198.5t-184.5 -190.5t-178 -159.5q145 6 236.5 9t189.5 3q112 0 112 -116v-54z" />
    <glyph glyph-name="three" unicode="3" horiz-adv-x="1303" 
d="M1100 422q0 -227 -120.5 -338t-361.5 -111q-130 0 -304.5 37t-174.5 117q0 14 5.5 36.5t16 51t13.5 37.5q20 67 86 67q15 0 39 -6q187 -67 328 -67q93 0 127 37.5t34 134.5q0 58 -19 88.5t-53 42t-93 14.5q-39 2 -119 2h-131q-92 0 -92 84v92q0 84 96 84h133
q105 0 151 14t61 51t15 116q0 52 -12 77.5t-48 37.5t-106 12q-57 0 -108.5 -6t-101 -14.5t-52.5 -8.5q-33 0 -51.5 16t-26.5 39.5t-11 55.5t-5 57v12q0 47 37 74q10 7 59 16.5t115 15t139 5.5q242 0 360.5 -89t118.5 -284q0 -176 -100 -279q84 -46 120 -123t36 -198z" />
    <glyph glyph-name="four" unicode="4" horiz-adv-x="1309" 
d="M1141 426q0 -107 -111 -107h-33v-208q0 -111 -104 -111h-53q-68 0 -99.5 22t-31.5 89v208h-381h-111q-58 0 -89.5 57.5t-31.5 121.5q0 52 31 92l567 727q41 51 86 51h113q55 0 79.5 -32.5t24.5 -73.5v-668h33q111 0 111 -117v-51zM709 586v354l-277 -365q24 2 71.5 3.5
t94.5 3.5t111 4z" />
    <glyph glyph-name="five" unicode="5" horiz-adv-x="1298" 
d="M1106 436q0 -145 -56 -249.5t-162.5 -159t-256.5 -54.5q-93 0 -212.5 20.5t-178.5 45.5q-54 24 -54 80q0 38 11.5 82.5t36 77t61.5 32.5q18 0 137 -37q124 -32 197 -32q83 0 125.5 47t42.5 153q0 44 -9.5 85.5t-21.5 62.5q-10 17 -41.5 27t-122.5 10q-66 0 -154 -11.5
t-102 -11.5q-44 0 -72 25t-28 69v11l45 548q5 58 30.5 84.5t79.5 26.5h572q110 0 110 -104v-54q0 -48 -19.5 -82t-90.5 -34q-271 0 -404 4l-22 -209q24 2 74 2q66 0 119.5 -3.5t90.5 -10.5q134 -26 204.5 -146.5t70.5 -294.5z" />
    <glyph glyph-name="six" unicode="6" horiz-adv-x="1305" 
d="M1151 436q0 -234 -127 -348.5t-381 -114.5q-93 0 -169.5 18t-139.5 56q-69 44 -106.5 103t-53.5 144t-16 212q0 133 6.5 239t18.5 193t32 160q43 153 160.5 224t314.5 73h33q60 0 227 -11q69 -5 97 -28.5t28 -85.5v-64q0 -42 -25 -68t-71 -26q-12 0 -54.5 6t-105 10.5
t-157.5 4.5q-104 0 -132 -62q-28 -69 -45 -205q127 25 232 25q153 0 249 -49.5t140.5 -150t44.5 -255.5zM842 453q0 104 -30 138t-105 34q-46 0 -113 -9t-121 -24q-4 -94 -4 -137q0 -83 14 -127t58 -65t129 -21q68 0 104.5 15.5t52 62t15.5 133.5z" />
    <glyph glyph-name="seven" unicode="7" horiz-adv-x="1298" 
d="M1116 1266q0 -26 -10 -54l-471 -1073q-36 -83 -67 -111t-74 -28h-105q-36 0 -67 16.5t-31 63.5q0 24 33 96l409 926q-274 -8 -422 -8q-48 0 -72.5 18.5t-31 42t-6.5 55.5v54q0 104 110 104h637q97 0 132.5 -25t35.5 -77z" />
    <glyph glyph-name="eight" unicode="8" horiz-adv-x="1305" 
d="M1149 377q0 -188 -90 -285q-62 -68 -156 -93.5t-250 -25.5q-163 0 -272.5 36.5t-167 126t-57.5 241.5q0 83 19.5 136.5t62.5 91.5t127 85q-104 70 -142.5 140t-38.5 194q0 140 45.5 220.5t147 115.5t276.5 35t276.5 -35t147 -115.5t45.5 -220.5q0 -105 -42 -182.5
t-148 -149.5q113 -63 165 -131t52 -184zM811 1020q0 79 -11 100t-55 21q-24 0 -45 -0.5t-47 -1.5q-23 1 -41.5 1.5t-40.5 0.5q-39 0 -54 -8t-19 -30t-4 -83q0 -41 11 -70t30.5 -49t47.5 -38t62 -38q39 22 68 39.5t50.5 36.5t34.5 49t13 70zM840 371q0 54 -36 87.5t-149 90.5
q-38 -20 -83.5 -45t-75 -57t-29.5 -76q0 -63 19 -93t52 -38.5t91 -8.5h24h27q56 0 89.5 8.5t52 38.5t18.5 93z" />
    <glyph glyph-name="nine" unicode="9" horiz-adv-x="1305" 
d="M1153 748q0 -193 -11.5 -302t-39.5 -188q-36 -100 -104 -162.5t-169.5 -92.5t-236.5 -30q-191 0 -365 58q-63 21 -63 84q0 29 18 90q16 58 38.5 77t53.5 19q16 0 66.5 -17.5t52.5 -17.5q112 -28 234 -28q100 0 143.5 38.5t51 88t12.5 170.5q-110 -29 -232 -29
q-216 0 -327 107.5t-111 314.5q0 153 51.5 257.5t160 157t273.5 52.5q190 0 300.5 -65.5t157 -206t46.5 -375.5zM836 813q0 68 -2 100q-5 118 -38.5 170t-154.5 52q-68 0 -102.5 -15t-50 -59.5t-15.5 -128.5q0 -96 28 -126t111 -30q112 0 224 37z" />
    <glyph glyph-name="colon" unicode=":" horiz-adv-x="653" 
d="M530 727q0 -38 -35.5 -87.5t-83 -85.5t-81.5 -36q-83 0 -180 135q-27 33 -27 68q0 26 21.5 63.5t55 71t67.5 54t59 20.5q76 0 180 -135q24 -36 24 -68zM530 170q0 -36 -36 -86.5t-83 -85.5t-81 -35q-47 0 -93.5 39t-86.5 94q-27 33 -27 70q0 36 36 86t84 85.5t83 35.5
q76 0 180 -135q24 -36 24 -68z" />
    <glyph glyph-name="semicolon" unicode=";" horiz-adv-x="664" 
d="M528 727q0 -38 -35.5 -87.5t-83 -85.5t-81.5 -36q-77 0 -181 135q-26 39 -26 68q0 26 21.5 63.5t55 71t67.5 54t59 20.5q79 0 178 -135q26 -34 26 -68zM541 158q0 -36 -52.5 -144t-118 -214t-96.5 -134q-29 -26 -63 -26q-45 0 -95 39.5t-50 82.5q0 21 71.5 132.5
t81.5 132.5q-17 15 -40.5 37t-39.5 46.5t-16 49.5q0 32 29 63q53 63 97.5 107.5t76.5 44.5t78.5 -41t103.5 -98q33 -34 33 -78z" />
    <glyph glyph-name="less" unicode="&#x3c;" horiz-adv-x="1489" 
d="M1348 98l-1244 465v189l1244 465v-281l-764 -279l764 -278v-281z" />
    <glyph glyph-name="equal" unicode="=" horiz-adv-x="1071" 
d="M977 639h-883v211h883v-211zM977 264h-883v211h883v-211z" />
    <glyph glyph-name="greater" unicode="&#x3e;" horiz-adv-x="1487" 
d="M1382 563l-1241 -465v281l764 278l-764 279v281l1241 -465v-189z" />
    <glyph glyph-name="question" unicode="?" horiz-adv-x="1057" 
d="M952 1067q0 -136 -118 -236q-19 -15 -90.5 -69.5t-110.5 -93.5q-34 -34 -51 -60.5t-17 -62.5q0 -33 -20.5 -48.5t-77.5 -15.5h-61q-66 0 -84.5 21t-18.5 71v54q0 65 43 116t125 111.5t123 103t41 93.5q0 48 -24.5 69t-92.5 21q-38 0 -77 -4t-79 -10t-102 -17
q-14 -2 -25 -4t-20 -2q-33 0 -51.5 17t-26 40t-11 66.5t-3.5 46.5v12q0 74 90 86q166 25 315 25q213 0 318.5 -76t105.5 -254zM649 172q0 -38 -35.5 -87.5t-83 -85.5t-81.5 -36q-77 0 -181 135q-26 39 -26 68q0 38 36 87.5t84 85.5t82 36q82 0 181 -135q24 -31 24 -68z" />
    <glyph glyph-name="at" unicode="@" horiz-adv-x="2247" 
d="M2077 463q0 -124 -28.5 -219t-85 -161.5t-137.5 -101t-188 -34.5q-196 0 -305 135q-71 -57 -157.5 -83t-200.5 -26q-156 0 -237 80t-81 228q0 133 60.5 206t159 98t233.5 25q74 0 147 -6q0 88 -15.5 124t-67.5 36q-50 0 -143 -12.5t-161 -28.5q-24 -4 -39 -4
q-86 0 -86 82v43q0 88 78 102q75 14 175.5 25.5t164.5 11.5q227 0 314 -96q48 -52 65 -118t17 -204v-139v-49q0 -58 5.5 -96.5t26 -61t60.5 -22.5q55 0 85.5 41t30.5 186q0 254 -42 414.5t-170.5 250t-378.5 89.5q-209 0 -345 -43t-212 -131t-107 -223t-31 -330
q0 -155 33 -274.5t104 -204.5t186.5 -131t278.5 -46q99 0 187.5 18t208.5 56q16 6 32 6q44 0 62 -31.5t37 -87.5q8 -24 8 -47q0 -59 -76 -84q-121 -38 -253.5 -58t-235.5 -20q-238 0 -407 69t-274 193.5t-153.5 294.5t-48.5 375q0 311 112.5 521.5t336 315.5t548.5 105
q246 0 421.5 -67t282.5 -192t156.5 -300t49.5 -399zM1276 266q-16 56 -16 127v17q-13 0 -39 2t-39 2q-84 0 -137.5 -10t-76 -34t-22.5 -69q0 -49 14.5 -83t43.5 -34q56 0 96 8t79 24.5t97 49.5z" />
    <glyph glyph-name="A" unicode="A" horiz-adv-x="1321" 
d="M1292 82q0 -82 -96 -82h-113q-53 0 -78 22.5t-40 61.5l-64 168q-98 -2 -246 -2q-168 0 -245 2l-56 -154q-18 -50 -43 -74t-84 -24h-94q-64 0 -84 18.5t-20 53.5q0 17 18 67l422 1133q13 35 29 57.5t43 34.5t71 12h84q63 0 94 -24.5t50 -77.5l444 -1153q8 -24 8 -39z
M811 494l-158 454l-157 -454q37 1 68.5 1.5t90.5 0.5q55 0 86 -0.5t70 -1.5z" />
    <glyph glyph-name="B" unicode="B" horiz-adv-x="1272" 
d="M1147 418q0 -99 -24.5 -175.5t-78.5 -133.5q-38 -41 -90 -65t-118.5 -34t-155.5 -10h-393q-61 0 -92 25t-31 86v1153q0 64 35.5 84t87.5 20h266q182 0 243 -6t111 -31q86 -38 128 -125.5t42 -204.5q0 -85 -20.5 -147t-67.5 -109q84 -43 121 -123.5t37 -203.5zM768 979
q0 64 -16 92q-12 22 -29 27.5t-61 5.5h-46q-77 0 -131 -2v-299h86q69 0 103 6q50 7 72 38t22 132zM827 418q0 66 -15 89t-46 30q-58 14 -182 14h-99v-285q39 -2 125 -2q90 0 138 10q39 10 59 41t20 103z" />
    <glyph glyph-name="C" unicode="C" horiz-adv-x="1178" 
d="M1094 76q0 -43 -28 -65.5t-101 -26.5q-138 -11 -236 -11q-183 0 -304 43.5t-189 130t-95.5 215.5t-27.5 306q0 290 66 445t197 212t353 57q89 0 236 -10q73 -4 101 -26.5t28 -65.5v-66q0 -68 -21 -93t-82 -25q-19 0 -95 5t-126 5q-156 0 -215 -25q-53 -23 -77.5 -74.5
t-30 -120t-5.5 -196.5v-24q0 -134 9 -209t47 -130t118 -69q47 -8 154 -8q20 0 96 5t125 5q61 0 82 -25t21 -94v-65z" />
    <glyph glyph-name="D" unicode="D" horiz-adv-x="1360" 
d="M1247 670q0 -163 -26.5 -292.5t-106.5 -224t-233 -128.5q-70 -15 -134.5 -20t-117.5 -5h-359q-60 0 -91.5 25.5t-31.5 85.5v1153q0 64 35.5 84t87.5 20h359q170 0 281.5 -27.5t186 -100t112.5 -212.5t38 -358zM918 731q0 143 -20.5 224t-94.5 112q-62 25 -213 25
q-98 0 -121 -2v-811q23 -3 121 -3q147 0 215 30t90.5 110.5t22.5 249.5v65z" />
    <glyph glyph-name="E" unicode="E" horiz-adv-x="1130" 
d="M1018 104q0 -104 -111 -104h-637q-60 0 -91.5 25.5t-31.5 85.5v1153q0 64 35.5 84t87.5 20h637q111 0 111 -104v-54q0 -48 -21 -82t-90 -34q-80 0 -129 1t-114 2t-115.5 2t-79.5 1v-262q72 2 150.5 3.5t109 2t131.5 0.5q113 0 113 -117v-27q0 -116 -113 -116
q-84 0 -179 2t-212 4v-322q80 2 172.5 3.5t125.5 2t140 0.5q69 0 90 -33.5t21 -82.5v-54z" />
    <glyph glyph-name="F" unicode="F" horiz-adv-x="1042" 
d="M979 1210q0 -116 -113 -116q-102 0 -133.5 0.5t-111.5 2t-152 3.5v-260q200 4 358 4q111 0 111 -117v-27q0 -48 -21 -82t-90 -34q-76 0 -162 2t-196 4v-479q0 -111 -111 -111h-88q-60 0 -91.5 25.5t-31.5 85.5v1153q0 64 35.5 84t87.5 20h596q113 0 113 -104v-54z" />
    <glyph glyph-name="G" unicode="G" horiz-adv-x="1300" 
d="M1165 137q0 -53 -23.5 -80.5t-80.5 -44.5q-136 -39 -332 -39q-183 0 -304 43.5t-189 130t-95.5 215.5t-27.5 306q0 290 66 445t197 212t353 57q84 0 157 -3.5t148 -10.5q73 -6 100 -27t27 -65v-68q0 -68 -20.5 -93t-81.5 -25q-25 0 -103 8q-68 8 -186 8q-156 0 -215 -25
q-53 -23 -77.5 -74.5t-30 -120t-5.5 -196.5v-24q0 -134 9 -209t47 -130t118 -69q47 -8 154 -8q8 0 74 8v326h-164q-68 0 -89.5 34t-21.5 82v27q0 49 21 83t90 34h373q112 0 112 -107v-600z" />
    <glyph glyph-name="H" unicode="H" horiz-adv-x="1389" 
d="M1241 111q0 -111 -113 -111h-86q-60 0 -91 25t-31 86v489q-68 -2 -226 -2h-73.5t-81 0.5t-70.5 1.5v-489q0 -111 -111 -111h-88q-60 0 -91.5 25.5t-31.5 85.5v1153q0 64 35.5 84t87.5 20h88q111 0 111 -104v-406q68 2 225 2q158 0 226 -2v406q0 64 35 84t87 20h86
q113 0 113 -104v-1153z" />
    <glyph glyph-name="I" unicode="I" horiz-adv-x="631" 
d="M475 111q0 -111 -110 -111h-89q-60 0 -91 25t-31 86v1153q0 64 35.5 84t86.5 20h89q110 0 110 -104v-1153z" />
    <glyph glyph-name="J" unicode="J" horiz-adv-x="745" 
d="M633 664q0 -226 -4 -289q-9 -135 -65 -220.5t-160.5 -127t-260.5 -41.5q-62 0 -107 13.5t-59 29.5q-14 18 -18 38t-4 60v55q0 38 26 64t66 26q19 0 58 -4t59 -4q65 0 90.5 11.5t34.5 31.5q14 32 18 93t4 241v461q-49 -2 -151 -2q-111 0 -111 117v47q0 104 111 104h364
q109 0 109 -104v-600z" />
    <glyph glyph-name="K" unicode="K" horiz-adv-x="1260" 
d="M1231 80q0 -34 -23 -57t-73 -23h-142q-44 0 -74.5 12.5t-64.5 46.5l-385 412v-360q0 -111 -111 -111h-88q-60 0 -91.5 25.5t-31.5 85.5v1153q0 64 35.5 84t87.5 20h88q111 0 111 -104v-404l383 447q30 36 57 48.5t76 12.5h105q49 0 73.5 -23t24.5 -55q0 -42 -27 -67
l-499 -539l532 -520q37 -34 37 -84z" />
    <glyph glyph-name="L" unicode="L" horiz-adv-x="987" 
d="M958 104q0 -104 -110 -104h-578q-60 0 -91.5 25.5t-31.5 85.5v1153q0 64 35.5 84t87.5 20h88q111 0 111 -104v-994q208 4 379 4q110 0 110 -116v-54z" />
    <glyph glyph-name="M" unicode="M" horiz-adv-x="1677" 
d="M1573 100q0 -100 -123 -100h-86q-106 0 -113 106l-47 697q-29 -74 -103.5 -285.5t-101.5 -275.5q-19 -48 -48 -71.5t-85 -23.5h-53q-39 0 -64.5 11.5t-42 34.5t-26.5 49q-9 21 -50.5 133.5t-84.5 229.5t-74 198l-45 -697q-7 -106 -113 -106h-86q-123 0 -123 100v17
l105 1151q5 60 37 80t86 20h114q52 0 81.5 -18t45.5 -58q20 -47 56.5 -141.5t69.5 -184.5t67 -184t74 -202q6 15 46 123t77.5 212t73 198.5t69.5 178.5q17 41 45 58.5t80 17.5h115q53 0 85 -20t37 -80l105 -1151v-17z" />
    <glyph glyph-name="N" unicode="N" horiz-adv-x="1452" 
d="M1305 111q0 -111 -111 -111h-61q-49 0 -78 9.5t-56 41.5q-192 248 -536 742v-682q0 -111 -113 -111h-80q-60 0 -91.5 25.5t-31.5 85.5v1153q0 64 35.5 84t87.5 20h54q31 0 50 -3t37 -14t35 -34q104 -136 543 -748v695q0 64 35.5 84t87.5 20h82q111 0 111 -104v-1153z" />
    <glyph glyph-name="O" unicode="O" horiz-adv-x="1444" 
d="M1331 682q0 -212 -56 -373.5t-191.5 -256.5t-362.5 -95q-171 0 -289 55.5t-188.5 154.5t-100.5 228t-30 287q0 161 29.5 289t100 227t188 154t290.5 55q227 0 362.5 -94.5t191.5 -256t56 -374.5zM999 682q0 105 -9 195t-34 139q-52 112 -235 112q-181 0 -234 -112
q-43 -93 -43 -334q0 -239 43 -332q54 -114 234 -114q182 0 235 114q43 91 43 332z" />
    <glyph glyph-name="P" unicode="P" horiz-adv-x="1235" 
d="M1133 881q0 -156 -45.5 -259.5t-145.5 -150.5q-62 -28 -124 -36.5t-179 -8.5h-170v-315q0 -111 -111 -111h-88q-60 0 -91.5 25.5t-31.5 85.5v1153q0 64 35.5 84t87.5 20h381q168 0 236 -18t133 -82q59 -57 86 -155t27 -232zM813 872v25q0 166 -43 186q-26 13 -127 13h-25
q-100 0 -149 -2v-396h209h2q92 0 113 29q20 28 20 145z" />
    <glyph glyph-name="Q" unicode="Q" horiz-adv-x="1444" 
d="M1331 672q0 -172 -29 -303t-118 -240q-114 -139 -293 -176q27 -31 123 -31q34 1 58 1.5t52 0.5q49 0 71 -21t22 -100v-43q0 -63 -36 -89.5t-157 -26.5q-205 0 -322 72.5t-151 236.5q-180 38 -293 176q-89 112 -117 245t-28 298q0 216 56 380t191.5 259.5t360.5 95.5
q226 0 362.5 -95.5t192 -259.5t55.5 -380zM999 672q0 107 -9 197t-34 141q-54 116 -235 116q-179 0 -234 -116q-43 -96 -43 -338q0 -240 43 -336q54 -117 234 -117q182 0 235 117q43 93 43 336z" />
    <glyph glyph-name="R" unicode="R" horiz-adv-x="1296" 
d="M1202 76q0 -76 -94 -76h-123q-47 0 -79.5 12.5t-65.5 50.5l-342 418h-29v-370q0 -111 -111 -111h-88q-60 0 -91.5 25.5t-31.5 85.5v1153q0 64 35.5 84t87.5 20h381q168 0 236 -18t133 -82q59 -57 86 -155t27 -232q0 -323 -252 -385l288 -336q33 -40 33 -84zM813 897v2
q0 164 -43 184q-27 13 -135 13h-10q-105 0 -156 -2v-340h209q64 0 91 10.5t35.5 38.5t8.5 94z" />
    <glyph glyph-name="S" unicode="S" horiz-adv-x="1145" 
d="M1032 430q0 -211 -41 -287q-38 -67 -109 -103t-156 -47t-181 -11q-144 0 -305 14q-72 6 -99.5 28t-27.5 64v68q0 69 21 93.5t81 24.5q41 0 127 -8q82 -8 233 -8q75 0 100.5 5.5t33.5 25.5t8 73v58q0 44 -10 61.5t-48 32.5q-104 42 -260 104q-120 51 -173.5 91t-75 105
t-21.5 192q0 106 22 180.5t84 123t177 64.5q57 8 198 8h31q88 0 236 -10q73 -4 101 -26.5t28 -65.5v-66q0 -68 -21 -93t-82 -25q-17 0 -93.5 5t-127.5 5q-37 1 -70 1.5t-80 0.5q-57 0 -72.5 -20.5t-15.5 -75.5v-25q0 -44 9.5 -61.5t48.5 -34.5q35 -14 94 -37.5t76 -30.5
q167 -69 236 -109.5t96.5 -102.5t27.5 -181z" />
    <glyph glyph-name="T" unicode="T" horiz-adv-x="1217" 
d="M1161 1210q0 -116 -110 -116q-117 0 -281 4v-987q0 -111 -111 -111h-88q-61 0 -91.5 25t-30.5 86v987q-164 -4 -281 -4q-70 0 -90.5 34t-20.5 82v54q0 104 111 104h883q110 0 110 -104v-54z" />
    <glyph glyph-name="U" unicode="U" horiz-adv-x="1427" 
d="M1294 844q0 -205 -4.5 -302.5t-19.5 -185.5q-28 -150 -99 -234.5t-183 -118.5t-275 -34t-276.5 34t-184.5 119t-98 234q-11 63 -16 124t-6 131.5t-1 232.5v420q0 64 36 84t87 20h86q60 0 86.5 -28.5t26.5 -75.5v-584q0 -114 4 -176.5t13.5 -102t23.5 -69.5
q21 -45 68 -64.5t151 -19.5q106 0 153 20t66 64q24 49 32.5 115t8.5 233v584q0 64 37 84t88 20h88q108 0 108 -104v-420z" />
    <glyph glyph-name="V" unicode="V" horiz-adv-x="1401" 
d="M1335 1296q0 -22 -16 -67l-422 -1127q-20 -53 -49 -77.5t-94 -24.5h-95q-62 0 -91.5 23.5t-51.5 78.5l-442 1145q-8 26 -8 39q0 48 30 65t66 17h125q89 0 121 -86l303 -831l293 819q17 49 44 73.5t85 24.5h100q65 0 83.5 -17.5t18.5 -54.5z" />
    <glyph glyph-name="W" unicode="W" horiz-adv-x="1784" 
d="M1718 1280q0 -20 -4 -35l-270 -1153q-9 -37 -26 -57t-40.5 -27.5t-58.5 -7.5h-133q-54 0 -80.5 23.5t-40.5 66.5q-8 22 -36 110t-76 247.5t-60 195.5q-123 -411 -172 -553q-14 -43 -41.5 -66.5t-83.5 -23.5h-133q-53 0 -80.5 19t-40.5 73l-272 1153q-4 16 -4 31
q0 48 29 70t98 22h102q56 0 78.5 -27t32.5 -73l163 -817q16 51 36 122.5t52 189t47.5 173.5t30.5 100q31 78 117 78h80q48 0 78 -21.5t41 -56.5q10 -28 168 -579l161 811q12 50 33 75t76 25h102q127 0 127 -88z" />
    <glyph glyph-name="X" unicode="X" horiz-adv-x="1389" 
d="M1280 1288q0 -41 -29 -82l-368 -512l374 -544q23 -35 23 -70q0 -34 -23 -57t-69 -23h-127q-51 0 -79.5 15.5t-59.5 58.5l-236 346l-254 -346q-30 -43 -57.5 -58.5t-71.5 -15.5h-102q-46 0 -70.5 23.5t-24.5 56.5q0 34 25 70l379 524l-367 534q-28 44 -28 74q0 44 32 65
t74 21h113q84 0 129 -63l244 -357l260 359q45 61 129 61h84q51 0 75.5 -21.5t24.5 -58.5z" />
    <glyph glyph-name="Y" unicode="Y" horiz-adv-x="1305" 
d="M1239 1282q0 -37 -20 -70l-402 -682v-419q0 -111 -110 -111h-89q-60 0 -91 25t-31 86v403l-408 698q-22 42 -22 70q0 47 32.5 66.5t69.5 19.5h111q49 0 76 -17.5t46 -52.5l258 -448l265 450q20 35 46.5 51.5t76.5 16.5h90q50 0 76 -24.5t26 -61.5z" />
    <glyph glyph-name="Z" unicode="Z" horiz-adv-x="1188" 
d="M1122 1288q0 -36 -22 -71l-606 -959q344 16 503 16q70 0 90.5 -33.5t20.5 -82.5v-54q0 -104 -111 -104h-825q-46 0 -76 27.5t-30 70.5q0 47 38 107l566 895q-231 -6 -447 -6q-112 0 -112 116v54q0 104 112 104h809q47 0 68.5 -22t21.5 -58z" />
    <glyph glyph-name="bracketleft" unicode="[" horiz-adv-x="684" 
d="M797 -172q0 -109 -111 -109h-414q-68 0 -99.5 23t-31.5 90v1706q0 60 28.5 85.5t84.5 25.5h432q111 0 111 -109v-39q0 -50 -22.5 -83.5t-88.5 -33.5q-68 0 -262 9v-1418q155 9 262 9q68 0 89.5 -33.5t21.5 -83.5v-39z" />
    <glyph glyph-name="backslash" unicode="\" horiz-adv-x="813" 
d="M729 63q0 -31 -21 -52.5t-69 -45.5l-29 -14q-28 -14 -53 -14q-56 0 -88 73l-547 1268q-10 23 -10 53q0 61 61 90l50 23q35 16 63 16q56 0 84 -69l545 -1268q14 -32 14 -60z" />
    <glyph glyph-name="bracketright" unicode="]" horiz-adv-x="684" 
d="M543 -168q0 -67 -31 -90t-100 -23h-412q-48 0 -80.5 25.5t-32.5 83.5v39q0 117 113 117q107 0 262 -9v1418q-193 -9 -262 -9q-113 0 -113 117v39q0 58 32.5 83.5t80.5 25.5h430q57 0 85 -25t28 -86v-1706z" />
    <glyph glyph-name="asciicircum" unicode="^" horiz-adv-x="1176" 
d="M1081 741h-329l-164 285l-164 -285h-330l393 670h203z" />
    <glyph glyph-name="underscore" unicode="_" horiz-adv-x="805" 
d="M805 -412q0 -40 -24 -58.5t-93 -18.5h-575q-113 0 -113 65v96q0 32 36 47t77 15h575q117 0 117 -62v-84z" />
    <glyph glyph-name="grave" unicode="`" horiz-adv-x="522" 
d="M522 1212q0 -57 -92 -57h-100q-41 0 -76.5 20.5t-69 56t-61.5 66.5q-7 7 -44 43.5t-58 63.5t-21 45q0 61 152 61h32q84 0 109 -16q21 -14 78 -78t104 -125.5t47 -79.5z" />
    <glyph glyph-name="a" unicode="a" 
d="M985 109q0 -109 -104 -109h-64q-49 0 -78 10.5t-43 40.5q-144 -78 -295 -78q-158 0 -237.5 82t-79.5 234q0 201 122 270.5t331 69.5q77 0 147 -6q0 93 -15 128t-69 35q-60 0 -147 -12t-156 -29q-24 -4 -39 -4q-43 0 -64.5 25t-21.5 59v43q0 92 78 107q75 14 176 25.5
t164 11.5q225 0 313 -99q50 -53 66 -119.5t16 -211.5v-473zM686 272v150q-12 0 -38 2t-40 2q-83 0 -136 -10t-76 -34.5t-23 -72.5t14.5 -83.5t42.5 -35.5q75 0 125 16.5t131 65.5z" />
    <glyph glyph-name="b" unicode="b" horiz-adv-x="1182" 
d="M1071 512q0 -145 -26.5 -246t-82.5 -165t-148.5 -96t-223.5 -32q-67 0 -157.5 6.5t-174.5 18.5q-119 18 -119 113v1187q0 60 28.5 85.5t84.5 25.5h92q55 0 80 -35.5t25 -75.5v-303q127 17 229 17q143 0 230 -52t125 -160.5t38 -287.5zM758 516q0 57 -4.5 101t-14.5 81
q-8 37 -26 48.5t-76 11.5q-73 0 -188 -23v-493q78 -15 145 -15t99 17.5t42 48.5q23 66 23 223z" />
    <glyph glyph-name="c" unicode="c" horiz-adv-x="1018" 
d="M913 918v-9v-8q0 -74 -17 -121t-81 -47q-12 0 -113 12.5t-161 12.5q-53 0 -75.5 -11.5t-27 -33.5t-8.5 -80q-4 -51 -4 -141q0 -83 8 -189q3 -30 11 -47t30.5 -23t65.5 -6q54 0 156 12.5t118 12.5q42 0 68 -29q7 -7 14 -30.5t11.5 -54.5t4.5 -62q0 -48 -21.5 -66.5
t-113.5 -27.5q-76 -9 -176 -9q-148 0 -241.5 24.5t-148.5 82.5t-78 158.5t-23 253.5q0 152 23.5 253.5t78 159t147 82.5t242.5 25q80 0 176 -11q92 -8 113.5 -25t21.5 -58z" />
    <glyph glyph-name="d" unicode="d" horiz-adv-x="1184" 
d="M1053 113q0 -115 -107 -115h-72q-85 0 -112 35q-135 -60 -256 -60q-195 0 -295 135t-100 369q0 269 113 402t349 133q72 0 170 -13v299q0 60 28.5 85.5t84.5 25.5h90q56 0 81.5 -35t25.5 -76v-1185zM743 305v430q-100 23 -178 23q-48 0 -71 -13q-72 -37 -72 -292
q0 -226 127 -226q39 0 91.5 20t102.5 58z" />
    <glyph glyph-name="e" unicode="e" 
d="M1004 539q0 -66 -9.5 -95.5t-32 -38t-69.5 -8.5h-481v-32q0 -56 14 -91.5t51 -52t107 -16.5q61 0 120.5 8.5t147.5 26.5q42 10 53 10q53 0 68.5 -39.5t15.5 -99.5q0 -47 -19.5 -75t-74.5 -36q-172 -27 -313 -27q-188 0 -290.5 56t-141.5 165.5t-39 290.5
q0 179 34.5 291.5t134.5 174t291 61.5q177 0 272 -59t128 -160.5t33 -253.5zM711 600v49q0 73 -27 102t-111 29q-64 0 -98 -18.5t-46.5 -56.5t-14.5 -105h297z" />
    <glyph glyph-name="f" unicode="f" horiz-adv-x="827" 
d="M801 1286q0 -62 -16 -98.5t-68 -36.5q-16 0 -64 10t-110 10q-26 0 -38 -3.5t-19 -15t-8 -32t-1 -67.5v-72h156q117 0 117 -100v-29q0 -65 -24 -97t-93 -32h-156v-608q0 -115 -104 -115h-74q-68 0 -99.5 23t-31.5 92v608q-61 0 -86 28t-25 83v47q0 52 35 76t76 24v72
q0 104 12.5 151.5t44.5 91.5q53 75 137.5 102t235.5 27q86 0 131.5 -12.5t58.5 -34t13 -55.5v-37z" />
    <glyph glyph-name="g" unicode="g" horiz-adv-x="1171" 
d="M1040 -88q0 -81 -9 -121.5t-38 -81.5q-37 -52 -96.5 -88.5t-137 -54t-163.5 -17.5q-102 0 -213 11t-178 28q-78 20 -78 119q0 62 17 101.5t73 39.5q11 0 51 -10q187 -43 342 -43q84 0 101.5 45t19.5 154q-133 -21 -217 -21q-108 0 -186 29.5t-125 88.5t-69.5 150.5
t-22.5 217.5q0 286 116 418q48 55 103.5 83.5t131.5 40t191 11.5h17q157 0 266 -8q58 -4 81 -31t23 -82v-979zM731 236v520q-41 2 -139 2q-68 0 -92 -11t-37 -36q-17 -36 -27 -101t-10 -141q0 -60 10 -150q7 -49 18 -73.5t30.5 -31.5t58.5 -7q86 0 188 29z" />
    <glyph glyph-name="h" unicode="h" horiz-adv-x="1174" 
d="M1042 115q0 -115 -104 -115h-74q-67 0 -99 23.5t-32 91.5v493q0 127 -12 142q-6 8 -47 8q-106 0 -225 -80v-563q0 -115 -105 -115h-74q-67 0 -99 23.5t-32 91.5v1183q0 60 28.5 85.5t84.5 25.5h92q55 0 80 -35.5t25 -75.5v-337q122 51 253 51q125 0 202 -45t107.5 -114.5
t30.5 -145.5v-592z" />
    <glyph glyph-name="i" unicode="i" horiz-adv-x="594" 
d="M455 1229q0 -113 -107 -113h-78q-68 0 -99.5 23t-31.5 90v69q0 60 28.5 85.5t84.5 25.5h96q56 0 81.5 -35t25.5 -76v-69zM455 115q0 -115 -107 -115h-78q-67 0 -99 23.5t-32 91.5v753q0 113 113 113h96q56 0 81.5 -35.5t25.5 -77.5v-753z" />
    <glyph glyph-name="j" unicode="j" horiz-adv-x="614" 
d="M475 1225q0 -109 -106 -109h-80q-69 0 -100 20t-31 89v71q0 113 114 113h97q56 0 81 -35t25 -78v-71zM475 -2q0 -78 -4 -131.5t-14 -91.5q-25 -97 -124 -153t-218 -56q-41 0 -71.5 4t-50.5 16.5t-30 37.5t-10 69v49q0 51 27 79.5t61 28.5q19 0 52 -6t50 -6q9 0 12 8.5
t3 36.5v29v956q0 113 114 113h97q56 0 81 -35t25 -78v-870z" />
    <glyph glyph-name="k" unicode="k" horiz-adv-x="1104" 
d="M1085 78q0 -29 -25 -53.5t-75 -24.5h-133q-62 0 -111 57l-292 353v-295q0 -115 -105 -115h-74q-67 0 -99 23.5t-32 91.5v1183q0 60 28.5 85.5t84.5 25.5h92q55 0 80 -35.5t25 -75.5v-628l241 268q24 27 49.5 35t69.5 8h111q100 0 100 -78q0 -38 -57 -88l-297 -264
l395 -420q24 -27 24 -53z" />
    <glyph glyph-name="l" unicode="l" horiz-adv-x="588" 
d="M449 115q0 -115 -105 -115h-74q-67 0 -99 23.5t-32 91.5v1183q0 60 28.5 85.5t84.5 25.5h92q55 0 80 -35.5t25 -75.5v-1183z" />
    <glyph glyph-name="m" unicode="m" horiz-adv-x="1608" 
d="M1477 111q0 -111 -105 -111h-74q-67 0 -99 22.5t-32 88.5v503q0 79 -4.5 111.5t-19.5 32.5q-38 0 -73.5 -21.5t-106.5 -74.5v-551q0 -111 -105 -111h-74q-68 0 -99.5 22t-31.5 89v503q0 79 -4.5 111.5t-19.5 32.5q-38 0 -73.5 -21.5t-106.5 -74.5v-551q0 -111 -105 -111
h-74q-68 0 -99.5 22t-31.5 89v761q0 109 113 109h92q57 0 88 -47q142 78 270 78q137 0 207 -97q154 97 308 97q132 0 196 -84t64 -213v-604z" />
    <glyph glyph-name="n" unicode="n" horiz-adv-x="1174" 
d="M1042 111q0 -111 -104 -111h-74q-68 0 -99.5 22t-31.5 89v505q0 80 -10 112t-45 32q-104 0 -229 -98v-551q0 -111 -105 -111h-74q-68 0 -99.5 22t-31.5 89v761q0 109 113 109h92q57 0 86 -45q130 76 272 76q127 0 203 -43.5t106.5 -110t30.5 -141.5v-606z" />
    <glyph glyph-name="o" unicode="o" horiz-adv-x="1212" 
d="M1100 492q0 -163 -50 -279t-159.5 -178t-284.5 -62q-173 0 -284 62t-161 178t-50 279t50 279t160.5 178.5t284.5 62.5q176 0 285 -62.5t159 -178.5t50 -279zM788 492q0 155 -34 215q-16 29 -42 40t-106 11q-79 0 -106 -11t-43 -40q-35 -65 -35 -215q0 -160 35 -216
q16 -27 43.5 -38t105.5 -11q79 0 105.5 11t42.5 38q34 57 34 216z" />
    <glyph glyph-name="p" unicode="p" horiz-adv-x="1198" 
d="M1087 494q0 -127 -13 -192.5t-48 -127.5q-37 -67 -98.5 -112t-142 -67t-173.5 -22q-88 0 -163 15v-301q0 -115 -105 -115h-74q-68 0 -99.5 23t-31.5 92v1183q0 60 28.5 85.5t84.5 25.5h92q64 0 90 -53q172 84 297 84q145 0 224 -73.5t105.5 -186.5t26.5 -258zM776 487
q0 60 -6.5 128t-13.5 96q-9 47 -58 47q-31 0 -73 -13.5t-90.5 -36.5t-85.5 -44v-414q87 -23 167 -23q55 0 84 13q76 30 76 247z" />
    <glyph glyph-name="q" unicode="q" horiz-adv-x="1167" 
d="M1036 -313q0 -115 -104 -115h-74q-68 0 -99.5 23t-31.5 92v323q-87 -37 -201 -37q-148 0 -239 53t-133.5 160t-42.5 275q0 143 25 239t87 172q67 84 147 112t224 28q154 0 342 -15q100 -8 100 -94v-1216zM727 301v436q-115 13 -162 13q-48 0 -70.5 -10t-33.5 -29
q-39 -66 -39 -279v-37q0 -78 22.5 -123t98.5 -45q89 0 184 74z" />
    <glyph glyph-name="r" unicode="r" horiz-adv-x="856" 
d="M809 854q0 -113 -100 -113q-88 0 -140 -18t-114 -57v-555q0 -111 -107 -111h-78q-68 0 -99.5 22t-31.5 89v761q0 109 113 109h96q68 0 94 -53q84 42 137 63t115 21q45 0 80 -21.5t35 -68.5v-68z" />
    <glyph glyph-name="s" unicode="s" horiz-adv-x="1071" 
d="M938 299q0 -96 -21.5 -158.5t-69 -99t-126.5 -52.5t-193 -16q-202 0 -297 13q-32 4 -47 11t-22.5 28.5t-7.5 74.5v35q0 52 16 83.5t66 31.5q-5 0 103 -12.5t218 -12.5q33 0 50 4t23.5 16t6.5 34q0 43 -8 49q-9 10 -64 25.5t-135 36.5t-136.5 43t-90.5 52q-72 66 -72 203
q0 111 37 178.5t100.5 98t146.5 39t206 8.5q102 0 153 -4q67 -5 96 -29t29 -90q0 -75 -16.5 -110.5t-81.5 -35.5q-10 0 -95.5 8.5t-177.5 8.5q-46 0 -63.5 -3t-25 -15.5t-7.5 -39.5q0 -18 9.5 -27.5t26.5 -15t120 -36.5q123 -35 169 -49.5t89 -43.5t67.5 -85t24.5 -146z" />
    <glyph glyph-name="t" unicode="t" horiz-adv-x="877" 
d="M772 852q0 -66 -23 -96.5t-94 -30.5h-155v-412q0 -88 20 -88q28 0 57 8t57.5 15.5t53.5 7.5q80 0 80 -86v-72q0 -39 -10 -63t-31 -35t-65 -16q-107 -11 -183 -11q-117 0 -179 32.5t-86 103.5t-24 198v418q-106 3 -106 111v45q0 49 33.5 73.5t72.5 26.5v145q0 111 113 111
h92q55 0 80 -35.5t25 -75.5v-145h155q117 0 117 -100v-29z" />
    <glyph glyph-name="u" unicode="u" horiz-adv-x="1174" 
d="M1032 109q0 -109 -112 -109h-93q-50 0 -86 51q-69 -39 -133 -58.5t-139 -19.5q-183 0 -261.5 88t-78.5 209v600q0 111 104 111h74q69 0 100 -22t31 -89v-499q0 -74 11 -109t43 -35q58 0 105.5 21.5t125.5 77.5v544q0 111 104 111h74q69 0 100 -22t31 -89v-761z" />
    <glyph glyph-name="v" unicode="v" horiz-adv-x="1112" 
d="M1036 907q0 -19 -8 -41l-305 -782q-17 -46 -44.5 -65t-78.5 -19h-86q-54 0 -80.5 17t-46.5 67l-303 784q-8 20 -8 39q0 74 94 74h111q54 0 80.5 -16.5t41.5 -65.5l156 -516l154 514q13 46 41.5 65t83.5 19h104q34 0 64 -14.5t30 -59.5z" />
    <glyph glyph-name="w" unicode="w" horiz-adv-x="1546" 
d="M1452 897q0 -20 -6 -41l-254 -790q-12 -40 -38 -53t-67 -13h-79q-57 0 -80 21t-43 77l-113 328l-110 -328q-13 -38 -25.5 -58t-35.5 -30t-62 -10h-80q-40 0 -66 13t-39 53l-256 790q-4 12 -4 35v6q0 48 33 66t74 18h90q53 0 82.5 -19.5t40.5 -70.5l108 -479l99 344
q13 46 42 62t82 16h56q53 0 83 -16.5t42 -61.5l98 -344l109 479q12 53 40.5 71.5t81.5 18.5h91q41 0 73.5 -17.5t32.5 -66.5z" />
    <glyph glyph-name="x" unicode="x" horiz-adv-x="1192" 
d="M1090 76q0 -43 -31 -59.5t-66 -16.5h-127q-40 0 -59.5 9t-40.5 38l-168 244l-176 -250q-31 -41 -96 -41h-127q-95 0 -95 76q0 38 68 114l252 304l-231 290q-68 83 -68 121q0 43 30 59.5t66 16.5h98q57 0 85.5 -17t62.5 -69l129 -193l129 193q24 36 43 54.5t45.5 25
t65.5 6.5h94q35 0 64.5 -16.5t29.5 -59.5q0 -35 -68 -121l-229 -290l285 -344q35 -43 35 -74z" />
    <glyph glyph-name="y" unicode="y" horiz-adv-x="1145" 
d="M1032 899q0 -10 -3.5 -21.5t-4.5 -15.5l-453 -1208q-16 -45 -43.5 -60.5t-78.5 -15.5h-103q-94 0 -94 76q0 21 16 57l152 340l-336 811q-8 23 -8 41q0 34 30.5 56t63.5 22h92q73 0 98.5 -14.5t38.5 -57.5l164 -510l152 488q16 52 47.5 73t87.5 21h90q36 0 64 -19t28 -63z
" />
    <glyph glyph-name="z" unicode="z" horiz-adv-x="1055" 
d="M952 104q0 -55 -31.5 -79.5t-78.5 -24.5h-635q-46 0 -74.5 26t-28.5 66v35q0 50 39 98l396 510q-34 -3 -109 -7t-118.5 -5.5t-67.5 -1.5q-50 0 -74 19t-30.5 42.5t-6.5 55.5v36q0 57 31 82t80 25h602q44 0 68 -23t24 -63v-57q0 -45 -29 -80l-399 -510q212 12 332 12
q110 0 110 -117v-39z" />
    <glyph glyph-name="braceleft" unicode="{" horiz-adv-x="848" 
d="M895 -207q0 -41 -27.5 -59.5t-62.5 -18.5q-114 0 -199.5 21.5t-144.5 69t-92 121t-45 179.5q-6 45 -17 226q-6 94 -20 138.5t-50 85.5t-133 124q81 70 112.5 101t51 64t28 73.5t11.5 109.5q4 86 9 170t22.5 158.5t56.5 130.5q58 89 173.5 123.5t236.5 34.5
q35 0 62.5 -18.5t27.5 -59.5v-56q0 -53 -28.5 -62.5t-122 -28t-113.5 -52.5q-15 -26 -27 -119t-12 -215q0 -63 -8.5 -115.5t-25.5 -89.5t-44 -70.5t-74 -78.5q89 -84 120 -152t32 -202q0 -122 12 -213.5t27 -120.5q17 -28 44.5 -35.5t94.5 -19t96 -29.5t29 -60v-55z" />
    <glyph glyph-name="bar" unicode="|" horiz-adv-x="451" 
d="M365 -172q0 -113 -107 -113h-43q-67 0 -99 23.5t-32 89.5v1706q0 111 113 111h61q56 0 81.5 -35t25.5 -76v-1706z" />
    <glyph glyph-name="braceright" unicode="}" horiz-adv-x="848" 
d="M743 680q-96 -83 -133 -123.5t-50.5 -86.5t-18.5 -138q-2 -45 -6 -115.5t-11.5 -130t-24.5 -114.5t-46 -99q-41 -60 -111.5 -95.5t-149.5 -49t-149 -13.5q-35 0 -62.5 18.5t-27.5 59.5v55q0 53 29 63t122 28t113 53q15 25 27.5 114.5t13.5 219.5q2 93 14.5 149
t43.5 101.5t92 103.5q-61 58 -92 103.5t-43.5 101.5t-14.5 149q-1 130 -14 220.5t-27 113.5q-20 35 -113 53t-122 27.5t-29 62.5v56q0 41 27.5 59.5t62.5 18.5q232 0 345 -90t138 -302q4 -27 7.5 -78t4.5 -76t3 -71q5 -73 12.5 -111t28 -73.5t50.5 -64.5t111 -99z" />
    <glyph glyph-name="asciitilde" unicode="~" horiz-adv-x="754" 
d="M754 807q0 -24 -21 -72q-79 -164 -221 -164q-34 0 -67 8.5t-77.5 25.5t-65.5 23.5t-42 6.5q-18 0 -39.5 -25t-33.5 -36t-44 -11h-69q-74 0 -74 66q0 31 29 84q86 159 219 159q42 0 78 -10.5t97 -30.5t83 -20q10 0 23.5 20t28.5 31.5t48 11.5h72q76 0 76 -67z" />
    <glyph glyph-name="uni00A0" unicode="&#xa0;" horiz-adv-x="502" 
 />
    <glyph glyph-name="exclamdown" unicode="&#xa1;" horiz-adv-x="653" 
d="M530 1165q0 -28 -20.5 -63t-55 -70t-68 -55.5t-58.5 -20.5q-82 0 -178 136q-27 32 -27 67q0 38 35.5 87.5t83.5 85.5t82 36q76 0 180 -135q26 -39 26 -68zM479 68q0 -105 -112 -105h-91q-53 0 -79.5 33.5t-26.5 73.5v2l16 667q4 111 105 111h67q56 0 81 -22.5t26 -88.5
l14 -667v-4z" />
    <glyph glyph-name="cent" unicode="&#xa2;" horiz-adv-x="1018" 
d="M913 1104v-8v-9q0 -72 -17 -116.5t-81 -44.5q-14 0 -51 4.5t-92 9.5v-498q139 15 143 15q43 0 68 -27q10 -10 20 -53.5t10 -89.5t-21.5 -64.5t-113.5 -27.5q-14 -2 -106 -7v-120q0 -37 -9.5 -48.5t-37.5 -11.5h-31q-27 0 -34 10t-7 50v118q-175 6 -270 53t-133.5 153.5
t-38.5 297.5q0 195 38 300.5t134 153.5t270 52v111q0 35 10.5 45t44.5 10h17q47 0 47 -55v-113q68 -4 106 -8q89 -8 112 -25t23 -57zM553 434v514h-12q-53 0 -75 -11.5t-25.5 -28.5t-10.5 -81q-4 -43 -4 -120v-17q0 -80 8 -182q3 -29 11 -45.5t30.5 -22.5t65.5 -6h12z" />
    <glyph glyph-name="sterling" unicode="&#xa3;" horiz-adv-x="1305" 
d="M1104 1270q0 -9 -10 -82q-9 -59 -31.5 -77.5t-61.5 -18.5q6 0 -95 16t-206 16q-56 0 -82.5 -11t-37.5 -42.5t-11 -95.5q0 -73 11 -150h211q116 0 116 -100v-29q0 -64 -23.5 -94.5t-92.5 -30.5h-197q-3 -162 -62 -313q44 -12 90.5 -24.5t86.5 -12.5q72 0 126 18t107.5 43
t73.5 25q41 0 61.5 -25t20.5 -61v-65q0 -53 -19 -80t-67 -53q-123 -66 -271 -66q-45 0 -84.5 6t-108.5 23t-105.5 24.5t-75.5 7.5q-32 0 -92 -16t-91 -16q-44 0 -67 38.5t-23 92.5q0 37 11.5 73.5t27.5 51.5q22 22 121 43q25 122 25 241v45h-21q-113 0 -113 109v45
q0 47 25.5 73.5t75.5 26.5h18q-14 149 -14 191q0 74 24.5 144t67.5 120q54 62 137 88.5t205 26.5q115 0 317 -25q103 -13 103 -100z" />
    <glyph glyph-name="yen" unicode="&#xa5;" horiz-adv-x="1305" 
d="M1237 1282q0 -34 -20 -70l-402 -682v-67h133q117 0 117 -101v-24q0 -55 -27 -80t-90 -25h-133v-122q0 -111 -110 -111h-89q-60 0 -91 25t-31 86v122h-136q-61 0 -86.5 26.5t-25.5 80.5v22q0 52 35.5 76.5t76.5 24.5h136v51l-408 698q-20 36 -20 70q0 38 26 62t74 24h110
q51 0 77.5 -17.5t45.5 -52.5l258 -448l265 450q20 35 46.5 51.5t75.5 16.5h91q48 0 75 -23.5t27 -62.5z" />
    <glyph glyph-name="brokenbar" unicode="&#xa6;" horiz-adv-x="483" 
d="M360 778h-237v654h237v-654zM360 -68h-237v654h237v-654z" />
    <glyph glyph-name="section" unicode="&#xa7;" horiz-adv-x="969" 
d="M887 104q0 -104 -111 -104h-583q-111 0 -111 104v43q0 117 111 117q46 0 72.5 -0.5t58.5 -1.5v844q-45 0 -71.5 -0.5t-59.5 -1.5q-111 0 -111 117v43q0 104 111 104h583q111 0 111 -104v-43q0 -117 -111 -117q-33 1 -59.5 1.5t-71.5 0.5v-844q33 1 59 1.5t72 0.5
q111 0 111 -117v-43z" />
    <glyph glyph-name="dieresis" unicode="&#xa8;" horiz-adv-x="719" 
d="M719 1239q0 -34 -23 -58t-57 -24h-133q-32 0 -56 24t-24 58v137q0 34 24 58t56 24h133q34 0 57 -24t23 -58v-137zM291 1239q0 -33 -22.5 -57.5t-55.5 -24.5h-133q-32 0 -56 24t-24 58v137q0 34 24 58t56 24h133q33 0 55.5 -24.5t22.5 -57.5v-137z" />
    <glyph glyph-name="copyright" unicode="&#xa9;" horiz-adv-x="2048" 
d="M1925 500q0 -231 -59.5 -406t-176 -289.5t-287 -171.5t-396.5 -57q-432 0 -650 231q-79 85 -131 184t-77 220t-25 278q0 115 14 213.5t43.5 182.5t74 155t101.5 131q218 232 652 232q235 0 407.5 -61.5t285.5 -178t168.5 -284.5t55.5 -379zM1626 481q0 158 -34 274
t-89 218q-20 40 -64 74.5t-106 58t-138.5 35.5t-166.5 12q-181 0 -309.5 -48.5t-175.5 -131.5q-29 -51 -56.5 -122.5t-45 -163.5t-17.5 -198q0 -80 10 -150.5t28 -133.5t37 -108.5t44 -90.5q47 -83 179 -131.5t310 -48.5q176 0 302 48.5t169 131.5q123 231 123 475zM1341 76
q0 -33 -22 -50t-76 -20q-94 -6 -166 -6q-130 0 -217 29t-135.5 86t-69 143.5t-20.5 202.5q0 146 27.5 239.5t82 145t134 71t198.5 19.5q72 0 166 -6q54 -3 76 -20t22 -50v-43q0 -48 -16.5 -68t-62.5 -20q-20 1 -43 2t-42.5 2t-32 1.5t-38.5 0.5q-53 0 -89.5 -2.5
t-58.5 -11.5q-43 -16 -56 -59.5t-15 -104.5v-31v-65q0 -88 6 -135t31 -80t75 -41q23 -4 107 -4q20 1 42 2t41.5 2t32.5 1.5t40 0.5q46 0 62.5 -19.5t16.5 -68.5v-43z" />
    <glyph glyph-name="ordfeminine" unicode="&#xaa;" horiz-adv-x="803" 
d="M717 819q0 -67 -74 -67h-45q-69 0 -86 32q-101 -49 -205 -49q-72 0 -122.5 23.5t-75.5 67.5t-25 108q0 102 59.5 151.5t142.5 60.5t218 13q0 42 -9.5 64t-48.5 22q-87 0 -213 -26q-20 -5 -26 -5q-32 0 -47 16t-15 38v32q0 56 56 66q168 25 237 25q157 0 219 -64
q35 -33 47.5 -76.5t12.5 -132.5v-299zM506 932v86q-13 1 -24 1.5t-29 0.5q-93 0 -129.5 -14.5t-36.5 -57.5q0 -67 39 -67q54 0 88 10.5t92 40.5z" />
    <glyph glyph-name="guillemotleft" unicode="&#xab;" horiz-adv-x="1157" 
d="M1092 180q0 -23 -35.5 -46t-126.5 -23q-47 0 -72.5 10t-48.5 41q-209 277 -209 315q0 13 27.5 59t61.5 93t65 89t55 75q22 30 48 40.5t73 10.5q91 0 126.5 -23t35.5 -47q0 -13 -15 -43l-164 -254l164 -254q15 -30 15 -43zM612 180q0 -24 -34.5 -46.5t-124.5 -22.5
q-47 0 -74.5 10.5t-48.5 40.5q-207 274 -207 315q0 17 38 76.5t102 147.5t67 92q20 29 48 40t75 11q90 0 124.5 -22.5t34.5 -47.5q0 -15 -14 -43l-164 -254l164 -254q14 -28 14 -43z" />
    <glyph glyph-name="uni00AD" unicode="&#xad;" horiz-adv-x="975" 
d="M889 508q0 -40 -24 -59t-93 -19h-575q-113 0 -113 66v116q0 32 36 47t77 15h575q117 0 117 -62v-104z" />
    <glyph glyph-name="registered" unicode="&#xae;" horiz-adv-x="2048" 
d="M1925 500q0 -231 -59.5 -406t-176 -289.5t-287 -171.5t-396.5 -57q-432 0 -650 231q-79 85 -131 184t-77 220t-25 278q0 115 14 213.5t43.5 182.5t74 155t101.5 131q218 232 652 232q176 0 323 -36.5t256.5 -109t181.5 -174.5q156 -217 156 -583zM1626 481q0 158 -34 274
t-89 218q-20 40 -64 74.5t-106 58t-138.5 35.5t-166.5 12q-181 0 -309.5 -48.5t-175.5 -131.5q-29 -51 -56.5 -122.5t-45 -163.5t-17.5 -198q0 -80 10 -150.5t28 -133.5t37 -108.5t44 -90.5q47 -83 179 -131.5t310 -48.5q176 0 302 48.5t169 131.5q123 231 123 475zM1434 94
q0 -55 -76 -55h-88q-71 0 -109 45l-233 268h-6v-231q0 -82 -88 -82h-62q-45 0 -70.5 19t-25.5 63v749q0 78 96 78h266q78 0 122.5 -4.5t76.5 -18t66 -44.5q83 -79 83 -260q0 -93 -40.5 -162t-128.5 -94l190 -205q27 -29 27 -66zM1141 631q0 97 -23 112q-15 9 -98 9
q-38 0 -57 -0.5t-41 -1.5v-201h135q60 0 73 16q11 13 11 66z" />
    <glyph glyph-name="uni00AF" unicode="&#xaf;" horiz-adv-x="805" 
d="M805 1711q0 -40 -24 -58.5t-93 -18.5h-575q-113 0 -113 65v96q0 32 36 47t77 15h575q117 0 117 -62v-84z" />
    <glyph glyph-name="degree" unicode="&#xb0;" horiz-adv-x="819" 
d="M692 1178q0 -76 -37.5 -145t-102.5 -108.5t-142 -39.5t-142 39t-103 107t-38 147t38 146.5t103.5 106.5t141.5 39q78 0 142.5 -40t102 -108t37.5 -144zM512 1178q0 43 -29.5 72.5t-74.5 29.5q-42 0 -69.5 -30t-27.5 -72q0 -43 28 -73t69 -30q43 0 73.5 30.5t30.5 72.5z
" />
    <glyph glyph-name="plusminus" unicode="&#xb1;" horiz-adv-x="1124" 
d="M1038 561h-360v-334h-232v334h-360v215h360v334h232v-334h360v-215zM1038 -160h-952v215h952v-215z" />
    <glyph glyph-name="acute" unicode="&#xb4;" horiz-adv-x="522" 
d="M522 1450q0 -18 -26 -51q-14 -14 -28.5 -30.5t-38 -41t-38.5 -39.5q-103 -107 -137 -121q-31 -12 -61 -12h-76q-52 0 -84.5 10t-32.5 47q0 9 16 35q38 59 114 146t99 102q26 16 109 16t124 -9.5t50.5 -21.5t9.5 -30z" />
    <glyph glyph-name="glyph151" unicode="&#xb5;" horiz-adv-x="2048" 
d="M1020 813l465 -813h-922z" />
    <glyph glyph-name="paragraph" unicode="&#xb6;" horiz-adv-x="1642" 
d="M1540 -274q0 -67 -24.5 -97t-94.5 -30h-305v1792h-205v-1792h-307q-115 0 -115 110v43q0 54 36.5 78.5t78.5 24.5h45v723q-92 0 -164.5 13.5t-146.5 53.5q-102 57 -158.5 181t-56.5 245t35.5 244.5t109.5 191.5q53 48 108 72t140 32.5t236 8.5h669q119 0 119 -102v-27
q0 -67 -24.5 -97t-94.5 -30h-43v-1509h43q119 0 119 -103v-26z" />
    <glyph glyph-name="uni00B7" unicode="&#xb7;" horiz-adv-x="653" 
d="M530 690q0 -38 -35.5 -87.5t-83 -85.5t-81.5 -36q-83 0 -180 135q-27 33 -27 68q0 26 21.5 63.5t55 71t67.5 54t59 20.5q74 0 178 -135q26 -39 26 -68z" />
    <glyph glyph-name="cedilla" unicode="&#xb8;" horiz-adv-x="434" 
d="M434 -61q0 -20 -10 -37q-24 -39 -63.5 -90t-75.5 -97q-25 -33 -49 -47t-66 -14h-82q-57 0 -72.5 17.5t-15.5 45.5v4q0 31 31 64l2 4q5 2 164 176q19 21 42.5 28t65.5 7h66q26 0 44.5 -17t18.5 -44z" />
    <glyph glyph-name="ordmasculine" unicode="&#xba;" horiz-adv-x="862" 
d="M776 1057q0 -159 -81.5 -242.5t-264.5 -83.5q-181 0 -263.5 84t-82.5 242q0 329 346 329t346 -329zM559 1057q0 100 -24 137q-10 18 -29.5 24.5t-75.5 6.5q-53 0 -72.5 -6.5t-31.5 -24.5q-23 -38 -23 -137q0 -98 23 -135q12 -18 30.5 -24.5t73.5 -6.5q56 0 75.5 7
t29.5 24q24 36 24 135z" />
    <glyph glyph-name="guillemotright" unicode="&#xbb;" horiz-adv-x="1157" 
d="M1034 477q0 -11 -29.5 -63.5t-60.5 -94.5q-30 -43 -73 -98t-46 -59q-22 -31 -47.5 -41t-72.5 -10q-91 0 -125.5 23t-34.5 46q0 15 14 43l164 254l-164 254q-14 28 -14 43q0 24 34.5 47t125.5 23q47 0 73.5 -10.5t46.5 -40.5q3 -4 67.5 -92t103 -147t38.5 -77zM557 477
q0 -9 -28 -59t-64 -99q-21 -30 -54 -73.5t-63 -83.5q-21 -30 -47 -40.5t-74 -10.5q-91 0 -126 23t-35 46q0 15 14 43l164 254l-164 254q-14 28 -14 43q0 24 35 47t126 23q48 0 74.5 -11t46.5 -40q3 -4 67.5 -92t103 -147t38.5 -77z" />
    <glyph glyph-name="onequarter" unicode="&#xbc;" horiz-adv-x="1907" 
d="M1442 1337q0 -11 -2.5 -20t-7.5 -19l-748 -1335q-14 -23 -37 -34t-49 -11q-5 0 -10 0.5t-10 3.5l-95 58q-14 8 -18 23.5t-4 29.5q0 11 2.5 20t7.5 19l750 1335q14 25 34 35t48 10q5 0 10 -0.5t10 -3.5l96 -57q14 -8 18.5 -24t4.5 -30zM537 719q0 -37 -21 -58.5t-59 -21.5
h-39q-42 0 -68 16.5t-26 63.5v452q-8 -3 -21 -6.5t-22 -3.5q-22 0 -36 7.5t-22.5 20t-12 29.5t-3.5 35q0 31 14.5 49t42.5 29q48 19 93.5 36t99.5 17q34 0 57 -20t23 -55v-590zM1763 238q0 -27 -7 -42.5t-20 -23t-31 -9t-40 -1.5q0 -34 1 -63.5t-6 -51.5t-27 -34.5
t-62 -12.5t-62 12.5t-27 34t-6 51t1 64.5h-197h-59q-22 0 -38.5 10.5t-27.5 26.5t-16.5 36t-5.5 39q0 36 20 60l307 379q12 14 25.5 20.5t29.5 9t33.5 2.5h36.5q34 0 57 -20t23 -55v-344q52 0 75 -17.5t23 -70.5zM1477 477l-134 -158q35 2 67.5 1.5t66.5 1.5v155z" />
    <glyph glyph-name="onehalf" unicode="&#xbd;" horiz-adv-x="1907" 
d="M1401 1337q0 -11 -2.5 -20t-7.5 -19l-748 -1335q-14 -23 -37 -34t-49 -11q-5 0 -10 0.5t-10 3.5l-95 58q-14 8 -18 23.5t-4 29.5q0 11 2.5 20t7.5 19l750 1335q14 25 34 35t48 10q5 0 10 -0.5t10 -3.5l96 -57q14 -8 18.5 -24t4.5 -30zM537 719q0 -37 -21 -58.5t-59 -21.5
h-39q-42 0 -68 16.5t-26 63.5v452q-8 -3 -21 -6.5t-22 -3.5q-22 0 -36 7.5t-22.5 20t-12 29.5t-3.5 35q0 31 14.5 49t42.5 29q48 19 93.5 36t99.5 17q34 0 57 -20t23 -55v-590zM1739 76q0 -38 -24.5 -57t-59.5 -19h-395q-29 0 -45.5 8.5t-24.5 23t-10 35t-2 44.5
q0 19 7.5 35t19 30t25 26t25.5 23q34 32 66.5 64.5t67.5 64.5q16 15 37 36.5t40.5 46t33.5 50t16 48.5q2 21 -8.5 30.5t-41.5 9.5q-27 0 -52.5 -1.5t-53.5 -6.5q-14 -2 -30 -6t-32 -4q-24 0 -38 8.5t-21.5 22.5t-11 32t-6.5 37q0 5 -1 8.5t-1 8.5q0 17 6.5 29t17.5 20
t24.5 13t28.5 7q44 7 87.5 10t86.5 3q51 0 99 -10t84.5 -33.5t59 -63t22.5 -98.5q0 -60 -22 -112.5t-57 -98t-78.5 -85.5t-86.5 -75q42 2 82 3t82 1q29 0 46 -8.5t25.5 -23t10.5 -34t2 -42.5z" />
    <glyph glyph-name="threequarters" unicode="&#xbe;" horiz-adv-x="1907" 
d="M1462 1337q0 -11 -2.5 -20t-7.5 -19l-747 -1335q-14 -23 -37.5 -34t-49.5 -11q-5 0 -10 0.5t-10 3.5l-94 58q-14 8 -18.5 23.5t-4.5 29.5q0 19 11 39l749 1335q14 25 34 35t48 10q5 0 10 -0.5t10 -3.5l97 -57q14 -8 18 -24t4 -30zM690 879q0 -68 -20.5 -115.5t-58 -77.5
t-89 -43.5t-114.5 -13.5q-14 0 -40 2.5t-57.5 8t-64.5 13.5t-60 19t-44 25t-17 32q0 19 6 36l12 34q8 23 26.5 36t43.5 13q8 0 15 -1t14 -3q43 -13 83 -23t87 -10q20 0 32.5 2.5t19 10t9 20.5t2.5 33q0 18 -4.5 28t-13 15t-21 6t-28.5 2q-28 2 -55.5 2h-53.5
q-18 0 -35.5 1.5t-31.5 7.5t-22.5 18.5t-8.5 35.5v47q0 30 15.5 44t38 19t48 4t45.5 -1q25 0 43.5 0.5t30.5 6.5t18 20.5t6 42.5q0 17 -5 26t-13.5 12.5t-20.5 4t-26 0.5q-25 0 -49.5 -3t-48.5 -6q-11 -2 -22.5 -4t-20.5 -2q-25 0 -39.5 10.5t-22 27t-10 37t-2.5 40.5
q0 32 29 53q9 7 34 11.5t54.5 7t56.5 3.5t39 1q55 0 105.5 -9t89.5 -32t62 -64.5t23 -105.5q0 -37 -9 -72.5t-32 -64.5q44 -31 58 -74t14 -94zM1763 238q0 -27 -7 -42.5t-20 -23t-31 -9t-40 -1.5q0 -34 1 -63.5t-6 -51.5t-27 -34.5t-62 -12.5t-62 12.5t-27 34t-6 51t1 64.5
h-197h-59q-22 0 -38.5 10.5t-27.5 26.5t-16.5 36t-5.5 39q0 36 20 60l307 379q12 14 25.5 20.5t29.5 9t33.5 2.5h36.5q34 0 57 -20t23 -55v-344q52 0 75 -17.5t23 -70.5zM1477 477l-134 -158q35 2 67.5 1.5t66.5 1.5v155z" />
    <glyph glyph-name="questiondown" unicode="&#xbf;" horiz-adv-x="1057" 
d="M813 1194q0 -28 -20.5 -63t-55.5 -70.5t-68.5 -55.5t-58.5 -20q-79 0 -178 135q-24 32 -24 68q0 39 35 88t82.5 85t82.5 36q78 0 180 -135q25 -35 25 -68zM934 74q0 -74 -90 -86q-166 -25 -316 -25q-101 0 -182 18.5t-133 56t-80.5 102t-28.5 153.5q0 141 117 235
q37 31 98 77.5t103 86.5q33 33 50 61t17 62t22.5 49t78.5 15h61q65 0 83 -21t18 -72v-53q0 -66 -43.5 -117t-127.5 -114t-122.5 -101.5t-38.5 -91.5q0 -34 10 -54.5t36 -32t73 -11.5q80 0 258 31q11 2 24 4t21 2q35 0 53.5 -16t25 -37t10 -61t3.5 -48v-12z" />
    <glyph glyph-name="Agrave" unicode="&#xc0;" horiz-adv-x="1321" 
d="M1292 82q0 -82 -96 -82h-113q-53 0 -78 22.5t-40 61.5l-64 168q-98 -2 -246 -2q-168 0 -245 2l-56 -154q-18 -50 -43 -74t-84 -24h-94q-64 0 -84 18.5t-20 53.5q0 17 18 67l422 1133q13 35 29 57.5t43 34.5t71 12h84q63 0 94 -24.5t50 -77.5l444 -1153q8 -24 8 -39z
M811 494l-158 454l-157 -454q37 1 68.5 1.5t90.5 0.5q55 0 86 -0.5t70 -1.5zM905 1577q0 -57 -92 -57h-100q-41 0 -76.5 20.5t-69 56t-61.5 66.5q-7 7 -44 43.5t-58 63.5t-21 45q0 61 152 61h32q84 0 109 -16q21 -14 78 -78t104 -125.5t47 -79.5z" />
    <glyph glyph-name="Aacute" unicode="&#xc1;" horiz-adv-x="1321" 
d="M1292 82q0 -82 -96 -82h-113q-53 0 -78 22.5t-40 61.5l-64 168q-98 -2 -246 -2q-168 0 -245 2l-56 -154q-18 -50 -43 -74t-84 -24h-94q-64 0 -84 18.5t-20 53.5q0 17 18 67l422 1133q13 35 29 57.5t43 34.5t71 12h84q63 0 94 -24.5t50 -77.5l444 -1153q8 -24 8 -39z
M811 494l-158 454l-157 -454q37 1 68.5 1.5t90.5 0.5q55 0 86 -0.5t70 -1.5zM975 1813q0 -18 -26 -51q-14 -14 -28.5 -30.5t-38 -41t-38.5 -39.5q-103 -107 -137 -121q-31 -12 -61 -12h-76q-52 0 -84.5 10t-32.5 47q0 9 16 35q38 59 114 146t99 102q26 16 109 16t124 -9.5
t50.5 -21.5t9.5 -30z" />
    <glyph glyph-name="Acircumflex" unicode="&#xc2;" horiz-adv-x="1321" 
d="M1292 82q0 -82 -96 -82h-113q-53 0 -78 22.5t-40 61.5l-64 168q-98 -2 -246 -2q-168 0 -245 2l-56 -154q-18 -50 -43 -74t-84 -24h-94q-64 0 -84 18.5t-20 53.5q0 17 18 67l422 1133q13 35 29 57.5t43 34.5t71 12h84q63 0 94 -24.5t50 -77.5l444 -1153q8 -24 8 -39z
M811 494l-158 454l-157 -454q37 1 68.5 1.5t90.5 0.5q55 0 86 -0.5t70 -1.5zM997 1595q0 -21 -35.5 -43.5t-122.5 -22.5q-28 0 -45.5 5.5t-32.5 19t-30.5 36.5t-28.5 42q-12 17 -20.5 29.5t-26.5 35.5q-31 -44 -68 -95.5t-59 -61.5q-13 -11 -59 -11q-85 0 -120.5 22.5
t-35.5 43.5q0 22 20.5 55.5t45.5 65.5t36 47q96 131 125 153q27 21 115 21q66 0 84.5 -4t30.5 -17q13 -8 44 -45.5t66.5 -86.5t62 -86.5t36.5 -53.5q18 -25 18 -49z" />
    <glyph glyph-name="Atilde" unicode="&#xc3;" horiz-adv-x="1321" 
d="M1292 82q0 -82 -96 -82h-113q-53 0 -78 22.5t-40 61.5l-64 168q-98 -2 -246 -2q-168 0 -245 2l-56 -154q-18 -50 -43 -74t-84 -24h-94q-64 0 -84 18.5t-20 53.5q0 17 18 67l422 1133q13 35 29 57.5t43 34.5t71 12h84q63 0 94 -24.5t50 -77.5l444 -1153q8 -24 8 -39z
M811 494l-158 454l-157 -454q37 1 68.5 1.5t90.5 0.5q55 0 86 -0.5t70 -1.5zM1051 1803q0 -21 -23 -72q-78 -164 -221 -164q-39 0 -70.5 7t-67.5 20t-75 28q-31 9 -39 9q-18 0 -39.5 -25t-33.5 -36t-44 -11h-69q-74 0 -74 65q0 29 31 84q86 160 217 160q42 0 78 -10.5
t97 -30.5t83 -20q11 0 24 19.5t27.5 31.5t48.5 12h74q76 0 76 -67z" />
    <glyph glyph-name="Adieresis" unicode="&#xc4;" horiz-adv-x="1321" 
d="M1292 82q0 -82 -96 -82h-113q-53 0 -78 22.5t-40 61.5l-64 168q-98 -2 -246 -2q-168 0 -245 2l-56 -154q-18 -50 -43 -74t-84 -24h-94q-64 0 -84 18.5t-20 53.5q0 17 18 67l422 1133q13 35 29 57.5t43 34.5t71 12h84q63 0 94 -24.5t50 -77.5l444 -1153q8 -24 8 -39z
M811 494l-158 454l-157 -454q37 1 68.5 1.5t90.5 0.5q55 0 86 -0.5t70 -1.5zM1030 1651q0 -34 -23 -58t-57 -24h-133q-32 0 -56 24t-24 58v137q0 34 24 58t56 24h133q34 0 57 -24t23 -58v-137zM602 1651q0 -33 -22.5 -57.5t-55.5 -24.5h-133q-32 0 -56 24t-24 58v137
q0 34 24 58t56 24h133q33 0 55.5 -24.5t22.5 -57.5v-137z" />
    <glyph glyph-name="Aring" unicode="&#xc5;" horiz-adv-x="1321" 
d="M1292 82q0 -82 -96 -82h-113q-53 0 -78 22.5t-40 61.5l-64 168q-98 -2 -246 -2q-168 0 -245 2l-56 -154q-18 -50 -43 -74t-84 -24h-94q-64 0 -84 18.5t-20 53.5q0 17 18 67l422 1133q13 35 29 57.5t43 34.5t71 12h84q63 0 94 -24.5t50 -77.5l444 -1153q8 -24 8 -39z
M811 494l-158 454l-157 -454q37 1 68.5 1.5t90.5 0.5q55 0 86 -0.5t70 -1.5zM862 1806q0 -57 -27.5 -105t-74 -76t-101.5 -28q-83 0 -143 62.5t-60 146.5q0 56 27 104t73 76.5t103 28.5q55 0 101.5 -28t74 -75.5t27.5 -105.5zM739 1806q0 34 -23 58t-57 24
q-33 0 -55.5 -24.5t-22.5 -57.5t23 -56t55 -23t56 24t24 55z" />
    <glyph glyph-name="AE" unicode="&#xc6;" horiz-adv-x="1921" 
d="M1808 104q0 -104 -110 -104h-635q-61 0 -92 25t-31 86v225h-461l-123 -244q-24 -47 -49.5 -69.5t-70.5 -22.5h-95q-46 0 -79 25t-33 63q0 23 26 76l496 977q50 98 81.5 142t73.5 64.5t107 20.5h885q110 0 110 -104v-54q0 -116 -110 -116q-85 0 -190 2t-248 4v-262
q72 2 150.5 3.5t109 2t131.5 0.5q112 0 112 -117v-27q0 -116 -112 -116q-101 0 -131.5 0.5t-109 2t-150.5 3.5v-322q360 6 438 6q110 0 110 -116v-54zM940 588v512h-49q-20 0 -26 -4t-13 -21l-246 -487h334z" />
    <glyph glyph-name="Ccedilla" unicode="&#xc7;" horiz-adv-x="1178" 
d="M1094 76q0 -43 -28 -65.5t-101 -26.5q-113 -7 -158 -9q0 -18 -12 -34q-20 -33 -62 -87t-78 -100q-25 -34 -48 -47.5t-64 -13.5h-84q-53 0 -69.5 17t-16.5 44v6q0 31 28 64l5 4q2 3 145 158q-173 27 -268 109.5t-132.5 222.5t-37.5 350q0 290 66 445t197 212t353 57
q89 0 236 -10q73 -4 101 -26.5t28 -65.5v-66q0 -68 -21 -93t-82 -25q-19 0 -95 5t-126 5q-156 0 -215 -25q-53 -23 -77.5 -74.5t-30 -120t-5.5 -196.5v-24q0 -134 9 -209t47 -130t118 -69q47 -8 154 -8q20 0 96 5t125 5q61 0 82 -25t21 -94v-65z" />
    <glyph glyph-name="Egrave" unicode="&#xc8;" horiz-adv-x="1130" 
d="M1018 104q0 -104 -111 -104h-637q-60 0 -91.5 25.5t-31.5 85.5v1153q0 64 35.5 84t87.5 20h637q111 0 111 -104v-54q0 -48 -21 -82t-90 -34q-80 0 -129 1t-114 2t-115.5 2t-79.5 1v-262q72 2 150.5 3.5t109 2t131.5 0.5q113 0 113 -117v-27q0 -116 -113 -116
q-84 0 -179 2t-212 4v-322q80 2 172.5 3.5t125.5 2t140 0.5q69 0 90 -33.5t21 -82.5v-54zM771 1577q0 -57 -92 -57h-100q-41 0 -76.5 20.5t-69 56t-61.5 66.5q-7 7 -44 43.5t-58 63.5t-21 45q0 61 152 61h32q84 0 109 -16q21 -14 78 -78t104 -125.5t47 -79.5z" />
    <glyph glyph-name="Eacute" unicode="&#xc9;" horiz-adv-x="1130" 
d="M1018 104q0 -104 -111 -104h-637q-60 0 -91.5 25.5t-31.5 85.5v1153q0 64 35.5 84t87.5 20h637q111 0 111 -104v-54q0 -48 -21 -82t-90 -34q-80 0 -129 1t-114 2t-115.5 2t-79.5 1v-262q72 2 150.5 3.5t109 2t131.5 0.5q113 0 113 -117v-27q0 -116 -113 -116
q-84 0 -179 2t-212 4v-322q80 2 172.5 3.5t125.5 2t140 0.5q69 0 90 -33.5t21 -82.5v-54zM902 1813q0 -18 -26 -51q-14 -14 -28.5 -30.5t-38 -41t-38.5 -39.5q-103 -107 -137 -121q-31 -12 -61 -12h-76q-52 0 -84.5 10t-32.5 47q0 9 16 35q38 59 114 146t99 102
q26 16 109 16t124 -9.5t50.5 -21.5t9.5 -30z" />
    <glyph glyph-name="Ecircumflex" unicode="&#xca;" horiz-adv-x="1130" 
d="M1018 104q0 -104 -111 -104h-637q-60 0 -91.5 25.5t-31.5 85.5v1153q0 64 35.5 84t87.5 20h637q111 0 111 -104v-54q0 -48 -21 -82t-90 -34q-80 0 -129 1t-114 2t-115.5 2t-79.5 1v-262q72 2 150.5 3.5t109 2t131.5 0.5q113 0 113 -117v-27q0 -116 -113 -116
q-84 0 -179 2t-212 4v-322q80 2 172.5 3.5t125.5 2t140 0.5q69 0 90 -33.5t21 -82.5v-54zM910 1595q0 -21 -35.5 -43.5t-122.5 -22.5q-28 0 -45.5 5.5t-32.5 19t-30.5 36.5t-28.5 42q-12 17 -20.5 29.5t-26.5 35.5q-31 -44 -68 -95.5t-59 -61.5q-13 -11 -59 -11
q-85 0 -120.5 22.5t-35.5 43.5q0 22 20.5 55.5t45.5 65.5t36 47q96 131 125 153q27 21 115 21q66 0 84.5 -4t30.5 -17q13 -8 44 -45.5t66.5 -86.5t62 -86.5t36.5 -53.5q18 -25 18 -49z" />
    <glyph glyph-name="Edieresis" unicode="&#xcb;" horiz-adv-x="1130" 
d="M1018 104q0 -104 -111 -104h-637q-60 0 -91.5 25.5t-31.5 85.5v1153q0 64 35.5 84t87.5 20h637q111 0 111 -104v-54q0 -48 -21 -82t-90 -34q-80 0 -129 1t-114 2t-115.5 2t-79.5 1v-262q72 2 150.5 3.5t109 2t131.5 0.5q113 0 113 -117v-27q0 -116 -113 -116
q-84 0 -179 2t-212 4v-322q80 2 172.5 3.5t125.5 2t140 0.5q69 0 90 -33.5t21 -82.5v-54zM931 1651q0 -34 -23 -58t-57 -24h-133q-32 0 -56 24t-24 58v137q0 34 24 58t56 24h133q34 0 57 -24t23 -58v-137zM503 1651q0 -33 -22.5 -57.5t-55.5 -24.5h-133q-32 0 -56 24t-24 58
v137q0 34 24 58t56 24h133q33 0 55.5 -24.5t22.5 -57.5v-137z" />
    <glyph glyph-name="Igrave" unicode="&#xcc;" horiz-adv-x="631" 
d="M475 111q0 -111 -110 -111h-89q-60 0 -91 25t-31 86v1153q0 64 35.5 84t86.5 20h89q110 0 110 -104v-1153zM542 1577q0 -57 -92 -57h-100q-41 0 -76.5 20.5t-69 56t-61.5 66.5q-7 7 -44 43.5t-58 63.5t-21 45q0 61 152 61h32q84 0 109 -16q21 -14 78 -78t104 -125.5
t47 -79.5z" />
    <glyph glyph-name="Iacute" unicode="&#xcd;" horiz-adv-x="631" 
d="M475 111q0 -111 -110 -111h-89q-60 0 -91 25t-31 86v1153q0 64 35.5 84t86.5 20h89q110 0 110 -104v-1153zM624 1813q0 -18 -26 -51q-14 -14 -28.5 -30.5t-38 -41t-38.5 -39.5q-103 -107 -137 -121q-31 -12 -61 -12h-76q-52 0 -84.5 10t-32.5 47q0 9 16 35q38 59 114 146
t99 102q26 16 109 16t124 -9.5t50.5 -21.5t9.5 -30z" />
    <glyph glyph-name="Icircumflex" unicode="&#xce;" horiz-adv-x="631" 
d="M475 111q0 -111 -110 -111h-89q-60 0 -91 25t-31 86v1153q0 64 35.5 84t86.5 20h89q110 0 110 -104v-1153zM659 1595q0 -21 -35.5 -43.5t-122.5 -22.5q-28 0 -45.5 5.5t-32.5 19t-30.5 36.5t-28.5 42q-12 17 -20.5 29.5t-26.5 35.5q-31 -44 -68 -95.5t-59 -61.5
q-13 -11 -59 -11q-85 0 -120.5 22.5t-35.5 43.5q0 22 20.5 55.5t45.5 65.5t36 47q96 131 125 153q27 21 115 21q66 0 84.5 -4t30.5 -17q13 -8 44 -45.5t66.5 -86.5t62 -86.5t36.5 -53.5q18 -25 18 -49z" />
    <glyph glyph-name="Idieresis" unicode="&#xcf;" horiz-adv-x="631" 
d="M475 111q0 -111 -110 -111h-89q-60 0 -91 25t-31 86v1153q0 64 35.5 84t86.5 20h89q110 0 110 -104v-1153zM672 1651q0 -34 -23 -58t-57 -24h-133q-32 0 -56 24t-24 58v137q0 34 24 58t56 24h133q34 0 57 -24t23 -58v-137zM244 1651q0 -33 -22.5 -57.5t-55.5 -24.5h-133
q-32 0 -56 24t-24 58v137q0 34 24 58t56 24h133q33 0 55.5 -24.5t22.5 -57.5v-137z" />
    <glyph glyph-name="Eth" unicode="&#xd0;" horiz-adv-x="1399" 
d="M1286 670q0 -163 -26.5 -292.5t-106.5 -224t-233 -128.5q-69 -15 -134.5 -20t-117.5 -5h-359q-61 0 -92 25t-31 86v479h-18q-61 0 -87 26.5t-26 79.5v54q0 53 35.5 76.5t77.5 23.5h18v414q0 64 35.5 84t87.5 20h359q170 0 281.5 -27.5t186 -100t112.5 -212.5t38 -358z
M956 731q0 93 -6.5 155.5t-31.5 110t-76 70.5q-62 25 -215 25q-97 0 -119 -2v-240h156q116 0 116 -100v-35q0 -65 -24 -95t-92 -30h-156v-311q22 -3 119 -3q147 0 215 30t91 110t23 250v65z" />
    <glyph glyph-name="Eth" unicode="&#x110;" horiz-adv-x="1399" 
d="M1286 670q0 -163 -26.5 -292.5t-106.5 -224t-233 -128.5q-69 -15 -134.5 -20t-117.5 -5h-359q-61 0 -92 25t-31 86v479h-18q-61 0 -87 26.5t-26 79.5v54q0 53 35.5 76.5t77.5 23.5h18v414q0 64 35.5 84t87.5 20h359q170 0 281.5 -27.5t186 -100t112.5 -212.5t38 -358z
M956 731q0 93 -6.5 155.5t-31.5 110t-76 70.5q-62 25 -215 25q-97 0 -119 -2v-240h156q116 0 116 -100v-35q0 -65 -24 -95t-92 -30h-156v-311q22 -3 119 -3q147 0 215 30t91 110t23 250v65z" />
    <glyph glyph-name="Ntilde" unicode="&#xd1;" horiz-adv-x="1452" 
d="M1305 111q0 -111 -111 -111h-61q-49 0 -78 9.5t-56 41.5q-192 248 -536 742v-682q0 -111 -113 -111h-80q-60 0 -91.5 25.5t-31.5 85.5v1153q0 64 35.5 84t87.5 20h54q31 0 50 -3t37 -14t35 -34q104 -136 543 -748v695q0 64 35.5 84t87.5 20h82q111 0 111 -104v-1153z
M1071 1797q0 -21 -23 -72q-78 -164 -221 -164q-39 0 -70.5 7t-67.5 20t-75 28q-31 9 -39 9q-18 0 -39.5 -25t-33.5 -36t-44 -11h-69q-74 0 -74 65q0 29 31 84q86 160 217 160q42 0 78 -10.5t97 -30.5t83 -20q11 0 24 19.5t27.5 31.5t48.5 12h74q76 0 76 -67z" />
    <glyph glyph-name="Ograve" unicode="&#xd2;" horiz-adv-x="1444" 
d="M1331 682q0 -212 -56 -373.5t-191.5 -256.5t-362.5 -95q-171 0 -289 55.5t-188.5 154.5t-100.5 228t-30 287q0 161 29.5 289t100 227t188 154t290.5 55q227 0 362.5 -94.5t191.5 -256t56 -374.5zM999 682q0 105 -9 195t-34 139q-52 112 -235 112q-181 0 -234 -112
q-43 -93 -43 -334q0 -239 43 -332q54 -114 234 -114q182 0 235 114q43 91 43 332zM940 1577q0 -57 -92 -57h-100q-41 0 -76.5 20.5t-69 56t-61.5 66.5q-7 7 -44 43.5t-58 63.5t-21 45q0 61 152 61h32q84 0 109 -16q21 -14 78 -78t104 -125.5t47 -79.5z" />
    <glyph glyph-name="Oacute" unicode="&#xd3;" horiz-adv-x="1444" 
d="M1331 682q0 -212 -56 -373.5t-191.5 -256.5t-362.5 -95q-171 0 -289 55.5t-188.5 154.5t-100.5 228t-30 287q0 161 29.5 289t100 227t188 154t290.5 55q227 0 362.5 -94.5t191.5 -256t56 -374.5zM999 682q0 105 -9 195t-34 139q-52 112 -235 112q-181 0 -234 -112
q-43 -93 -43 -334q0 -239 43 -332q54 -114 234 -114q182 0 235 114q43 91 43 332zM1046 1813q0 -18 -26 -51q-14 -14 -28.5 -30.5t-38 -41t-38.5 -39.5q-103 -107 -137 -121q-31 -12 -61 -12h-76q-52 0 -84.5 10t-32.5 47q0 9 16 35q38 59 114 146t99 102q26 16 109 16
t124 -9.5t50.5 -21.5t9.5 -30z" />
    <glyph glyph-name="Ocircumflex" unicode="&#xd4;" horiz-adv-x="1444" 
d="M1331 682q0 -212 -56 -373.5t-191.5 -256.5t-362.5 -95q-171 0 -289 55.5t-188.5 154.5t-100.5 228t-30 287q0 161 29.5 289t100 227t188 154t290.5 55q227 0 362.5 -94.5t191.5 -256t56 -374.5zM999 682q0 105 -9 195t-34 139q-52 112 -235 112q-181 0 -234 -112
q-43 -93 -43 -334q0 -239 43 -332q54 -114 234 -114q182 0 235 114q43 91 43 332zM1073 1595q0 -21 -35.5 -43.5t-122.5 -22.5q-28 0 -45.5 5.5t-32.5 19t-30.5 36.5t-28.5 42q-12 17 -20.5 29.5t-26.5 35.5q-31 -44 -68 -95.5t-59 -61.5q-13 -11 -59 -11q-85 0 -120.5 22.5
t-35.5 43.5q0 22 20.5 55.5t45.5 65.5t36 47q96 131 125 153q27 21 115 21q66 0 84.5 -4t30.5 -17q13 -8 44 -45.5t66.5 -86.5t62 -86.5t36.5 -53.5q18 -25 18 -49z" />
    <glyph glyph-name="Otilde" unicode="&#xd5;" horiz-adv-x="1444" 
d="M1331 682q0 -212 -56 -373.5t-191.5 -256.5t-362.5 -95q-171 0 -289 55.5t-188.5 154.5t-100.5 228t-30 287q0 161 29.5 289t100 227t188 154t290.5 55q227 0 362.5 -94.5t191.5 -256t56 -374.5zM999 682q0 105 -9 195t-34 139q-52 112 -235 112q-181 0 -234 -112
q-43 -93 -43 -334q0 -239 43 -332q54 -114 234 -114q182 0 235 114q43 91 43 332zM1133 1797q0 -21 -23 -72q-78 -164 -221 -164q-39 0 -70.5 7t-67.5 20t-75 28q-31 9 -39 9q-18 0 -39.5 -25t-33.5 -36t-44 -11h-69q-74 0 -74 65q0 29 31 84q86 160 217 160q42 0 78 -10.5
t97 -30.5t83 -20q11 0 24 19.5t27.5 31.5t48.5 12h74q76 0 76 -67z" />
    <glyph glyph-name="Odieresis" unicode="&#xd6;" horiz-adv-x="1444" 
d="M1331 682q0 -212 -56 -373.5t-191.5 -256.5t-362.5 -95q-171 0 -289 55.5t-188.5 154.5t-100.5 228t-30 287q0 161 29.5 289t100 227t188 154t290.5 55q227 0 362.5 -94.5t191.5 -256t56 -374.5zM999 682q0 105 -9 195t-34 139q-52 112 -235 112q-181 0 -234 -112
q-43 -93 -43 -334q0 -239 43 -332q54 -114 234 -114q182 0 235 114q43 91 43 332zM1088 1651q0 -34 -23 -58t-57 -24h-133q-32 0 -56 24t-24 58v137q0 34 24 58t56 24h133q34 0 57 -24t23 -58v-137zM660 1651q0 -33 -22.5 -57.5t-55.5 -24.5h-133q-32 0 -56 24t-24 58v137
q0 34 24 58t56 24h133q33 0 55.5 -24.5t22.5 -57.5v-137z" />
    <glyph glyph-name="multiply" unicode="&#xd7;" horiz-adv-x="1130" 
d="M1028 215l-178 -176l-283 274l-284 -274l-179 176l283 274l-283 277l179 176l284 -274l283 274l178 -176l-283 -277z" />
    <glyph glyph-name="Oslash" unicode="&#xd8;" horiz-adv-x="1591" 
d="M1499 1348q0 -43 -31 -76l-129 -148q84 -167 84 -442q0 -164 -29.5 -296t-117.5 -239q-84 -102 -199 -146t-264 -44q-247 0 -393 121l-119 -135q-42 -45 -82 -45q-38 0 -69 34l-25 27q-31 35 -31 59q0 35 41 80l144 164q-39 83 -56.5 191t-17.5 229q0 216 55 376.5
t190 254.5t363 94q120 0 213.5 -27t165.5 -80l111 127q39 46 77 46q37 0 78 -41l4 -5q37 -36 37 -79zM997 1079q-63 49 -184 49q-181 0 -233 -112q-26 -53 -34.5 -141t-8.5 -193v-59q0 -41 2 -64zM1092 682q0 78 -7 156l-471 -539q63 -63 199 -63q182 0 236 114
q43 93 43 332z" />
    <glyph glyph-name="Ugrave" unicode="&#xd9;" horiz-adv-x="1427" 
d="M1294 844q0 -205 -4.5 -302.5t-19.5 -185.5q-28 -150 -99 -234.5t-183 -118.5t-275 -34t-276.5 34t-184.5 119t-98 234q-11 63 -16 124t-6 131.5t-1 232.5v420q0 64 36 84t87 20h86q60 0 86.5 -28.5t26.5 -75.5v-584q0 -114 4 -176.5t13.5 -102t23.5 -69.5
q21 -45 68 -64.5t151 -19.5q106 0 153 20t66 64q24 49 32.5 115t8.5 233v584q0 64 37 84t88 20h88q108 0 108 -104v-420zM910 1577q0 -57 -92 -57h-100q-41 0 -76.5 20.5t-69 56t-61.5 66.5q-7 7 -44 43.5t-58 63.5t-21 45q0 61 152 61h32q84 0 109 -16q21 -14 78 -78
t104 -125.5t47 -79.5z" />
    <glyph glyph-name="Uacute" unicode="&#xda;" horiz-adv-x="1427" 
d="M1294 844q0 -205 -4.5 -302.5t-19.5 -185.5q-28 -150 -99 -234.5t-183 -118.5t-275 -34t-276.5 34t-184.5 119t-98 234q-11 63 -16 124t-6 131.5t-1 232.5v420q0 64 36 84t87 20h86q60 0 86.5 -28.5t26.5 -75.5v-584q0 -114 4 -176.5t13.5 -102t23.5 -69.5
q21 -45 68 -64.5t151 -19.5q106 0 153 20t66 64q24 49 32.5 115t8.5 233v584q0 64 37 84t88 20h88q108 0 108 -104v-420zM1086 1813q0 -18 -26 -51q-14 -14 -28.5 -30.5t-38 -41t-38.5 -39.5q-103 -107 -137 -121q-31 -12 -61 -12h-76q-52 0 -84.5 10t-32.5 47q0 9 16 35
q38 59 114 146t99 102q26 16 109 16t124 -9.5t50.5 -21.5t9.5 -30z" />
    <glyph glyph-name="Ucircumflex" unicode="&#xdb;" horiz-adv-x="1427" 
d="M1294 844q0 -205 -4.5 -302.5t-19.5 -185.5q-28 -150 -99 -234.5t-183 -118.5t-275 -34t-276.5 34t-184.5 119t-98 234q-11 63 -16 124t-6 131.5t-1 232.5v420q0 64 36 84t87 20h86q60 0 86.5 -28.5t26.5 -75.5v-584q0 -114 4 -176.5t13.5 -102t23.5 -69.5
q21 -45 68 -64.5t151 -19.5q106 0 153 20t66 64q24 49 32.5 115t8.5 233v584q0 64 37 84t88 20h88q108 0 108 -104v-420zM1070 1595q0 -21 -35.5 -43.5t-122.5 -22.5q-28 0 -45.5 5.5t-32.5 19t-30.5 36.5t-28.5 42q-12 17 -20.5 29.5t-26.5 35.5q-31 -44 -68 -95.5
t-59 -61.5q-13 -11 -59 -11q-85 0 -120.5 22.5t-35.5 43.5q0 22 20.5 55.5t45.5 65.5t36 47q96 131 125 153q27 21 115 21q66 0 84.5 -4t30.5 -17q13 -8 44 -45.5t66.5 -86.5t62 -86.5t36.5 -53.5q18 -25 18 -49z" />
    <glyph glyph-name="Udieresis" unicode="&#xdc;" horiz-adv-x="1427" 
d="M1294 844q0 -205 -4.5 -302.5t-19.5 -185.5q-28 -150 -99 -234.5t-183 -118.5t-275 -34t-276.5 34t-184.5 119t-98 234q-11 63 -16 124t-6 131.5t-1 232.5v420q0 64 36 84t87 20h86q60 0 86.5 -28.5t26.5 -75.5v-584q0 -114 4 -176.5t13.5 -102t23.5 -69.5
q21 -45 68 -64.5t151 -19.5q106 0 153 20t66 64q24 49 32.5 115t8.5 233v584q0 64 37 84t88 20h88q108 0 108 -104v-420zM1091 1651q0 -34 -23 -58t-57 -24h-133q-32 0 -56 24t-24 58v137q0 34 24 58t56 24h133q34 0 57 -24t23 -58v-137zM663 1651q0 -33 -22.5 -57.5
t-55.5 -24.5h-133q-32 0 -56 24t-24 58v137q0 34 24 58t56 24h133q33 0 55.5 -24.5t22.5 -57.5v-137z" />
    <glyph glyph-name="Yacute" unicode="&#xdd;" horiz-adv-x="1305" 
d="M1239 1282q0 -37 -20 -70l-402 -682v-419q0 -111 -110 -111h-89q-60 0 -91 25t-31 86v403l-408 698q-22 42 -22 70q0 47 32.5 66.5t69.5 19.5h111q49 0 76 -17.5t46 -52.5l258 -448l265 450q20 35 46.5 51.5t76.5 16.5h90q50 0 76 -24.5t26 -61.5zM1011 1813
q0 -18 -26 -51q-14 -14 -28.5 -30.5t-38 -41t-38.5 -39.5q-103 -107 -137 -121q-31 -12 -61 -12h-76q-52 0 -84.5 10t-32.5 47q0 9 16 35q38 59 114 146t99 102q26 16 109 16t124 -9.5t50.5 -21.5t9.5 -30z" />
    <glyph glyph-name="Thorn" unicode="&#xde;" horiz-adv-x="1122" 
d="M1094 692q0 -159 -44.5 -260.5t-146.5 -148.5q-62 -28 -123 -36.5t-180 -8.5h-170v-127q0 -111 -111 -111h-88q-60 0 -91 25t-31 86v1153q0 64 35.5 84t86.5 20h88q111 0 111 -111v-79h182q165 0 234.5 -18.5t134.5 -82.5q59 -58 86 -155t27 -230zM774 707
q0 99 -12.5 138t-30.5 48q-28 14 -151 14q-36 0 -88 -2t-62 -2v-393h209q96 0 115 27q10 14 15 48t5 122z" />
    <glyph glyph-name="germandbls" unicode="&#xdf;" horiz-adv-x="1300" 
d="M1178 506q0 -107 -21.5 -200t-73.5 -167.5t-142 -118t-216 -43.5q-181 0 -188 80q-2 16 -3 26t-2 25.5t-2 30.5q0 109 91 109q16 0 57 -4t65 -4q41 0 66.5 16.5t41 76t15.5 185.5q0 81 -21.5 117t-63.5 44.5t-136 8.5h-2h-10q-62 0 -82.5 33.5t-20.5 89.5q0 64 25.5 93.5
t93.5 29.5q62 0 100 5.5t59 26.5t21 64q0 62 -37.5 83.5t-132.5 21.5q-131 0 -169.5 -27.5t-38.5 -85.5v-911q0 -111 -107 -111h-74q-68 0 -99.5 22t-31.5 89v856q0 162 62 253.5t174 126.5t282 35q167 0 268 -22t155.5 -93t54.5 -210q0 -158 -66 -221q109 -83 109 -330z
" />
    <glyph glyph-name="agrave" unicode="&#xe0;" 
d="M985 109q0 -109 -104 -109h-64q-49 0 -78 10.5t-43 40.5q-144 -78 -295 -78q-158 0 -237.5 82t-79.5 234q0 201 122 270.5t331 69.5q77 0 147 -6q0 93 -15 128t-69 35q-60 0 -147 -12t-156 -29q-24 -4 -39 -4q-43 0 -64.5 25t-21.5 59v43q0 92 78 107q75 14 176 25.5
t164 11.5q225 0 313 -99q50 -53 66 -119.5t16 -211.5v-473zM686 272v150q-12 0 -38 2t-40 2q-83 0 -136 -10t-76 -34.5t-23 -72.5t14.5 -83.5t42.5 -35.5q75 0 125 16.5t131 65.5zM794 1241q0 -57 -92 -57h-100q-41 0 -76.5 20.5t-69 56t-61.5 66.5q-7 7 -44 43.5t-58 63.5
t-21 45q0 61 152 61h32q84 0 109 -16q21 -14 78 -78t104 -125.5t47 -79.5z" />
    <glyph glyph-name="aacute" unicode="&#xe1;" 
d="M985 109q0 -109 -104 -109h-64q-49 0 -78 10.5t-43 40.5q-144 -78 -295 -78q-158 0 -237.5 82t-79.5 234q0 201 122 270.5t331 69.5q77 0 147 -6q0 93 -15 128t-69 35q-60 0 -147 -12t-156 -29q-24 -4 -39 -4q-43 0 -64.5 25t-21.5 59v43q0 92 78 107q75 14 176 25.5
t164 11.5q225 0 313 -99q50 -53 66 -119.5t16 -211.5v-473zM686 272v150q-12 0 -38 2t-40 2q-83 0 -136 -10t-76 -34.5t-23 -72.5t14.5 -83.5t42.5 -35.5q75 0 125 16.5t131 65.5zM917 1477q0 -18 -26 -51q-14 -14 -28.5 -30.5t-38 -41t-38.5 -39.5q-103 -107 -137 -121
q-31 -12 -61 -12h-76q-52 0 -84.5 10t-32.5 47q0 9 16 35q38 59 114 146t99 102q26 16 109 16t124 -9.5t50.5 -21.5t9.5 -30z" />
    <glyph glyph-name="acircumflex" unicode="&#xe2;" 
d="M985 109q0 -109 -104 -109h-64q-49 0 -78 10.5t-43 40.5q-144 -78 -295 -78q-158 0 -237.5 82t-79.5 234q0 201 122 270.5t331 69.5q77 0 147 -6q0 93 -15 128t-69 35q-60 0 -147 -12t-156 -29q-24 -4 -39 -4q-43 0 -64.5 25t-21.5 59v43q0 92 78 107q75 14 176 25.5
t164 11.5q225 0 313 -99q50 -53 66 -119.5t16 -211.5v-473zM686 272v150q-12 0 -38 2t-40 2q-83 0 -136 -10t-76 -34.5t-23 -72.5t14.5 -83.5t42.5 -35.5q75 0 125 16.5t131 65.5zM899 1229q0 -21 -35.5 -43.5t-122.5 -22.5q-28 0 -45.5 5.5t-32.5 19t-30.5 36.5t-28.5 42
q-12 17 -20.5 29.5t-26.5 35.5q-31 -44 -68 -95.5t-59 -61.5q-13 -11 -59 -11q-85 0 -120.5 22.5t-35.5 43.5q0 22 20.5 55.5t45.5 65.5t36 47q96 131 125 153q27 21 115 21q66 0 84.5 -4t30.5 -17q13 -8 44 -45.5t66.5 -86.5t62 -86.5t36.5 -53.5q18 -25 18 -49z" />
    <glyph glyph-name="atilde" unicode="&#xe3;" 
d="M985 109q0 -109 -104 -109h-64q-49 0 -78 10.5t-43 40.5q-144 -78 -295 -78q-158 0 -237.5 82t-79.5 234q0 201 122 270.5t331 69.5q77 0 147 -6q0 93 -15 128t-69 35q-60 0 -147 -12t-156 -29q-24 -4 -39 -4q-43 0 -64.5 25t-21.5 59v43q0 92 78 107q75 14 176 25.5
t164 11.5q225 0 313 -99q50 -53 66 -119.5t16 -211.5v-473zM686 272v150q-12 0 -38 2t-40 2q-83 0 -136 -10t-76 -34.5t-23 -72.5t14.5 -83.5t42.5 -35.5q75 0 125 16.5t131 65.5zM940 1412q0 -21 -23 -72q-78 -164 -221 -164q-39 0 -70.5 7t-67.5 20t-75 28q-31 9 -39 9
q-18 0 -39.5 -25t-33.5 -36t-44 -11h-69q-74 0 -74 65q0 29 31 84q86 160 217 160q42 0 78 -10.5t97 -30.5t83 -20q11 0 24 19.5t27.5 31.5t48.5 12h74q76 0 76 -67z" />
    <glyph glyph-name="adieresis" unicode="&#xe4;" 
d="M985 109q0 -109 -104 -109h-64q-49 0 -78 10.5t-43 40.5q-144 -78 -295 -78q-158 0 -237.5 82t-79.5 234q0 201 122 270.5t331 69.5q77 0 147 -6q0 93 -15 128t-69 35q-60 0 -147 -12t-156 -29q-24 -4 -39 -4q-43 0 -64.5 25t-21.5 59v43q0 92 78 107q75 14 176 25.5
t164 11.5q225 0 313 -99q50 -53 66 -119.5t16 -211.5v-473zM686 272v150q-12 0 -38 2t-40 2q-83 0 -136 -10t-76 -34.5t-23 -72.5t14.5 -83.5t42.5 -35.5q75 0 125 16.5t131 65.5zM961 1264q0 -34 -23 -58t-57 -24h-133q-32 0 -56 24t-24 58v137q0 34 24 58t56 24h133
q34 0 57 -24t23 -58v-137zM533 1264q0 -33 -22.5 -57.5t-55.5 -24.5h-133q-32 0 -56 24t-24 58v137q0 34 24 58t56 24h133q33 0 55.5 -24.5t22.5 -57.5v-137z" />
    <glyph glyph-name="aring" unicode="&#xe5;" 
d="M985 109q0 -109 -104 -109h-64q-49 0 -78 10.5t-43 40.5q-144 -78 -295 -78q-158 0 -237.5 82t-79.5 234q0 201 122 270.5t331 69.5q77 0 147 -6q0 93 -15 128t-69 35q-60 0 -147 -12t-156 -29q-24 -4 -39 -4q-43 0 -64.5 25t-21.5 59v43q0 92 78 107q75 14 176 25.5
t164 11.5q225 0 313 -99q50 -53 66 -119.5t16 -211.5v-473zM686 272v150q-12 0 -38 2t-40 2q-83 0 -136 -10t-76 -34.5t-23 -72.5t14.5 -83.5t42.5 -35.5q75 0 125 16.5t131 65.5zM743 1368q0 -57 -27.5 -105t-74 -76t-101.5 -28q-83 0 -143 62.5t-60 146.5q0 56 27 104
t73 76.5t103 28.5q55 0 101.5 -28t74 -75.5t27.5 -105.5zM620 1368q0 34 -23 58t-57 24q-33 0 -55.5 -24.5t-22.5 -57.5t23 -56t55 -23t56 24t24 55z" />
    <glyph glyph-name="ae" unicode="&#xe6;" horiz-adv-x="1692" 
d="M1579 539q0 -66 -9.5 -95.5t-32 -38t-69.5 -8.5h-481v-24q0 -91 36 -129.5t136 -38.5q61 0 120.5 8.5t147.5 26.5q45 10 54 10q54 0 69 -38t15 -101q0 -45 -20 -74t-75 -37q-172 -27 -313 -27q-267 0 -377 125q-98 -61 -190.5 -93t-188.5 -32q-158 0 -237.5 82t-79.5 234
q0 201 122 270.5t331 69.5q77 0 147 -6q0 93 -15 128t-69 35q-60 0 -147 -12t-156 -29q-24 -4 -39 -4q-43 0 -64.5 25t-21.5 59v43q0 92 78 107q75 14 176 25.5t164 11.5q194 0 268 -82q48 47 117.5 64.5t171.5 17.5q139 0 224.5 -35t129.5 -96.5t61 -146t17 -195.5z
M1286 600v49q0 49 -10 76.5t-39 41t-88 13.5q-64 0 -98 -19t-47 -56t-15 -105h297zM709 279q-23 64 -23 143q-12 0 -38 2t-40 2q-83 0 -136 -10t-76 -34.5t-23 -72.5t14.5 -83.5t42.5 -35.5q79 0 141.5 21t137.5 68z" />
    <glyph glyph-name="ccedilla" unicode="&#xe7;" horiz-adv-x="1018" 
d="M913 918v-9v-8q0 -74 -17 -121t-81 -47q-10 0 -111.5 12.5t-162.5 12.5q-53 0 -75 -11.5t-25.5 -30t-10.5 -83.5q-4 -45 -4 -127v-14q0 -83 8 -189q3 -30 11 -47t30.5 -23t65.5 -6q54 0 156 12.5t118 12.5q42 0 68 -29q7 -7 14 -30.5t11.5 -54.5t4.5 -62q0 -48 -21.5 -67
t-113.5 -27q-50 -5 -61 -5q0 -18 -12 -38q-22 -38 -57 -83.5t-83 -109.5q-25 -34 -48 -47.5t-64 -13.5h-84q-52 0 -69 16.5t-17 44.5v6q0 36 28 66l4 4l142 158q-101 11 -167 43t-105.5 92.5t-56.5 152t-17 224.5q0 152 23.5 253.5t78 159t147 82.5t242.5 25q80 0 176 -11
q92 -8 113.5 -25t21.5 -58z" />
    <glyph glyph-name="egrave" unicode="&#xe8;" 
d="M1004 539q0 -66 -9.5 -95.5t-32 -38t-69.5 -8.5h-481v-32q0 -56 14 -91.5t51 -52t107 -16.5q61 0 120.5 8.5t147.5 26.5q42 10 53 10q53 0 68.5 -39.5t15.5 -99.5q0 -47 -19.5 -75t-74.5 -36q-172 -27 -313 -27q-188 0 -290.5 56t-141.5 165.5t-39 290.5
q0 179 34.5 291.5t134.5 174t291 61.5q177 0 272 -59t128 -160.5t33 -253.5zM711 600v49q0 73 -27 102t-111 29q-64 0 -98 -18.5t-46.5 -56.5t-14.5 -105h297zM766 1231q0 -57 -92 -57h-100q-41 0 -76.5 20.5t-69 56t-61.5 66.5q-7 7 -44 43.5t-58 63.5t-21 45q0 61 152 61
h32q84 0 109 -16q21 -14 78 -78t104 -125.5t47 -79.5z" />
    <glyph glyph-name="eacute" unicode="&#xe9;" 
d="M1004 539q0 -66 -9.5 -95.5t-32 -38t-69.5 -8.5h-481v-32q0 -56 14 -91.5t51 -52t107 -16.5q61 0 120.5 8.5t147.5 26.5q42 10 53 10q53 0 68.5 -39.5t15.5 -99.5q0 -47 -19.5 -75t-74.5 -36q-172 -27 -313 -27q-188 0 -290.5 56t-141.5 165.5t-39 290.5
q0 179 34.5 291.5t134.5 174t291 61.5q177 0 272 -59t128 -160.5t33 -253.5zM711 600v49q0 73 -27 102t-111 29q-64 0 -98 -18.5t-46.5 -56.5t-14.5 -105h297zM909 1475q0 -18 -26 -51q-14 -14 -28.5 -30.5t-38 -41t-38.5 -39.5q-103 -107 -137 -121q-31 -12 -61 -12h-76
q-52 0 -84.5 10t-32.5 47q0 9 16 35q38 59 114 146t99 102q26 16 109 16t124 -9.5t50.5 -21.5t9.5 -30z" />
    <glyph glyph-name="ecircumflex" unicode="&#xea;" 
d="M1004 539q0 -66 -9.5 -95.5t-32 -38t-69.5 -8.5h-481v-32q0 -56 14 -91.5t51 -52t107 -16.5q61 0 120.5 8.5t147.5 26.5q42 10 53 10q53 0 68.5 -39.5t15.5 -99.5q0 -47 -19.5 -75t-74.5 -36q-172 -27 -313 -27q-188 0 -290.5 56t-141.5 165.5t-39 290.5
q0 179 34.5 291.5t134.5 174t291 61.5q177 0 272 -59t128 -160.5t33 -253.5zM711 600v49q0 73 -27 102t-111 29q-64 0 -98 -18.5t-46.5 -56.5t-14.5 -105h297zM913 1229q0 -21 -35.5 -43.5t-122.5 -22.5q-28 0 -45.5 5.5t-32.5 19t-30.5 36.5t-28.5 42q-12 17 -20.5 29.5
t-26.5 35.5q-31 -44 -68 -95.5t-59 -61.5q-13 -11 -59 -11q-85 0 -120.5 22.5t-35.5 43.5q0 22 20.5 55.5t45.5 65.5t36 47q96 131 125 153q27 21 115 21q66 0 84.5 -4t30.5 -17q13 -8 44 -45.5t66.5 -86.5t62 -86.5t36.5 -53.5q18 -25 18 -49z" />
    <glyph glyph-name="edieresis" unicode="&#xeb;" 
d="M1004 539q0 -66 -9.5 -95.5t-32 -38t-69.5 -8.5h-481v-32q0 -56 14 -91.5t51 -52t107 -16.5q61 0 120.5 8.5t147.5 26.5q42 10 53 10q53 0 68.5 -39.5t15.5 -99.5q0 -47 -19.5 -75t-74.5 -36q-172 -27 -313 -27q-188 0 -290.5 56t-141.5 165.5t-39 290.5
q0 179 34.5 291.5t134.5 174t291 61.5q177 0 272 -59t128 -160.5t33 -253.5zM711 600v49q0 73 -27 102t-111 29q-64 0 -98 -18.5t-46.5 -56.5t-14.5 -105h297zM936 1264q0 -34 -23 -58t-57 -24h-133q-32 0 -56 24t-24 58v137q0 34 24 58t56 24h133q34 0 57 -24t23 -58v-137z
M508 1264q0 -33 -22.5 -57.5t-55.5 -24.5h-133q-32 0 -56 24t-24 58v137q0 34 24 58t56 24h133q33 0 55.5 -24.5t22.5 -57.5v-137z" />
    <glyph glyph-name="igrave" unicode="&#xec;" horiz-adv-x="594" 
d="M455 106q0 -106 -107 -106h-78q-43 0 -72 8.5t-44 30.5t-15 67v744q0 57 28.5 79.5t84.5 22.5h96q57 0 82 -31.5t25 -70.5v-744zM477 1233q0 -57 -92 -57h-100q-41 0 -76.5 20.5t-69 56t-61.5 66.5q-7 7 -44 43.5t-58 63.5t-21 45q0 61 152 61h32q84 0 109 -16
q21 -14 78 -78t104 -125.5t47 -79.5z" />
    <glyph glyph-name="iacute" unicode="&#xed;" horiz-adv-x="594" 
d="M455 106q0 -106 -107 -106h-78q-43 0 -72 8.5t-44 30.5t-15 67v744q0 57 28.5 79.5t84.5 22.5h96q57 0 82 -31.5t25 -70.5v-744zM620 1464q0 -18 -26 -51q-14 -14 -28.5 -30.5t-38 -41t-38.5 -39.5q-103 -107 -137 -121q-31 -12 -61 -12h-76q-52 0 -84.5 10t-32.5 47
q0 9 16 35q38 59 114 146t99 102q26 16 109 16t124 -9.5t50.5 -21.5t9.5 -30z" />
    <glyph glyph-name="icircumflex" unicode="&#xee;" horiz-adv-x="594" 
d="M455 106q0 -106 -107 -106h-78q-43 0 -72 8.5t-44 30.5t-15 67v744q0 57 28.5 79.5t84.5 22.5h96q57 0 82 -31.5t25 -70.5v-744zM649 1229q0 -21 -35.5 -43.5t-122.5 -22.5q-28 0 -45.5 5.5t-32.5 19t-30.5 36.5t-28.5 42q-12 17 -20.5 29.5t-26.5 35.5
q-31 -44 -68 -95.5t-59 -61.5q-13 -11 -59 -11q-85 0 -120.5 22.5t-35.5 43.5q0 22 20.5 55.5t45.5 65.5t36 47q96 131 125 153q27 21 115 21q66 0 84.5 -4t30.5 -17q13 -8 44 -45.5t66.5 -86.5t62 -86.5t36.5 -53.5q18 -25 18 -49z" />
    <glyph glyph-name="idieresis" unicode="&#xef;" horiz-adv-x="594" 
d="M455 106q0 -106 -107 -106h-78q-43 0 -72 8.5t-44 30.5t-15 67v744q0 57 28.5 79.5t84.5 22.5h96q57 0 82 -31.5t25 -70.5v-744zM656 1264q0 -34 -23 -58t-57 -24h-133q-32 0 -56 24t-24 58v137q0 34 24 58t56 24h133q34 0 57 -24t23 -58v-137zM228 1264
q0 -33 -22.5 -57.5t-55.5 -24.5h-133q-32 0 -56 24t-24 58v137q0 34 24 58t56 24h133q33 0 55.5 -24.5t22.5 -57.5v-137z" />
    <glyph glyph-name="ntilde" unicode="&#xf1;" horiz-adv-x="1174" 
d="M1042 111q0 -111 -104 -111h-74q-68 0 -99.5 22t-31.5 89v505q0 80 -10 112t-45 32q-104 0 -229 -98v-551q0 -111 -105 -111h-74q-68 0 -99.5 22t-31.5 89v761q0 109 113 109h92q57 0 86 -45q130 76 272 76q127 0 203 -43.5t106.5 -110t30.5 -141.5v-606zM961 1412
q0 -21 -23 -72q-78 -164 -221 -164q-39 0 -70.5 7t-67.5 20t-75 28q-31 9 -39 9q-18 0 -39.5 -25t-33.5 -36t-44 -11h-69q-74 0 -74 65q0 29 31 84q86 160 217 160q42 0 78 -10.5t97 -30.5t83 -20q11 0 24 19.5t27.5 31.5t48.5 12h74q76 0 76 -67z" />
    <glyph glyph-name="ograve" unicode="&#xf2;" horiz-adv-x="1212" 
d="M1100 492q0 -163 -50 -279t-159.5 -178t-284.5 -62q-173 0 -284 62t-161 178t-50 279t50 279t160.5 178.5t284.5 62.5q176 0 285 -62.5t159 -178.5t50 -279zM788 492q0 155 -34 215q-16 29 -42 40t-106 11q-79 0 -106 -11t-43 -40q-35 -65 -35 -215q0 -160 35 -216
q16 -27 43.5 -38t105.5 -11q79 0 105.5 11t42.5 38q34 57 34 216zM760 1235q0 -57 -92 -57h-100q-41 0 -76.5 20.5t-69 56t-61.5 66.5q-7 7 -44 43.5t-58 63.5t-21 45q0 61 152 61h32q84 0 109 -16q21 -14 78 -78t104 -125.5t47 -79.5z" />
    <glyph glyph-name="oacute" unicode="&#xf3;" horiz-adv-x="1212" 
d="M1100 492q0 -163 -50 -279t-159.5 -178t-284.5 -62q-173 0 -284 62t-161 178t-50 279t50 279t160.5 178.5t284.5 62.5q176 0 285 -62.5t159 -178.5t50 -279zM788 492q0 155 -34 215q-16 29 -42 40t-106 11q-79 0 -106 -11t-43 -40q-35 -65 -35 -215q0 -160 35 -216
q16 -27 43.5 -38t105.5 -11q79 0 105.5 11t42.5 38q34 57 34 216zM928 1473q0 -18 -26 -51q-14 -14 -28.5 -30.5t-38 -41t-38.5 -39.5q-103 -107 -137 -121q-31 -12 -61 -12h-76q-52 0 -84.5 10t-32.5 47q0 9 16 35q38 59 114 146t99 102q26 16 109 16t124 -9.5t50.5 -21.5
t9.5 -30z" />
    <glyph glyph-name="ocircumflex" unicode="&#xf4;" horiz-adv-x="1212" 
d="M1100 492q0 -163 -50 -279t-159.5 -178t-284.5 -62q-173 0 -284 62t-161 178t-50 279t50 279t160.5 178.5t284.5 62.5q176 0 285 -62.5t159 -178.5t50 -279zM788 492q0 155 -34 215q-16 29 -42 40t-106 11q-79 0 -106 -11t-43 -40q-35 -65 -35 -215q0 -160 35 -216
q16 -27 43.5 -38t105.5 -11q79 0 105.5 11t42.5 38q34 57 34 216zM934 1229q0 -21 -35.5 -43.5t-122.5 -22.5q-28 0 -45.5 5.5t-32.5 19t-30.5 36.5t-28.5 42q-12 17 -20.5 29.5t-26.5 35.5q-31 -44 -68 -95.5t-59 -61.5q-13 -11 -59 -11q-85 0 -120.5 22.5t-35.5 43.5
q0 22 20.5 55.5t45.5 65.5t36 47q96 131 125 153q27 21 115 21q66 0 84.5 -4t30.5 -17q13 -8 44 -45.5t66.5 -86.5t62 -86.5t36.5 -53.5q18 -25 18 -49z" />
    <glyph glyph-name="otilde" unicode="&#xf5;" horiz-adv-x="1212" 
d="M1100 492q0 -163 -50 -279t-159.5 -178t-284.5 -62q-173 0 -284 62t-161 178t-50 279t50 279t160.5 178.5t284.5 62.5q176 0 285 -62.5t159 -178.5t50 -279zM788 492q0 155 -34 215q-16 29 -42 40t-106 11q-79 0 -106 -11t-43 -40q-35 -65 -35 -215q0 -160 35 -216
q16 -27 43.5 -38t105.5 -11q79 0 105.5 11t42.5 38q34 57 34 216zM977 1410q0 -21 -23 -72q-78 -164 -221 -164q-39 0 -70.5 7t-67.5 20t-75 28q-31 9 -39 9q-18 0 -39.5 -25t-33.5 -36t-44 -11h-69q-74 0 -74 65q0 29 31 84q86 160 217 160q42 0 78 -10.5t97 -30.5t83 -20
q11 0 24 19.5t27.5 31.5t48.5 12h74q76 0 76 -67z" />
    <glyph glyph-name="odieresis" unicode="&#xf6;" horiz-adv-x="1212" 
d="M1100 492q0 -163 -50 -279t-159.5 -178t-284.5 -62q-173 0 -284 62t-161 178t-50 279t50 279t160.5 178.5t284.5 62.5q176 0 285 -62.5t159 -178.5t50 -279zM788 492q0 155 -34 215q-16 29 -42 40t-106 11q-79 0 -106 -11t-43 -40q-35 -65 -35 -215q0 -160 35 -216
q16 -27 43.5 -38t105.5 -11q79 0 105.5 11t42.5 38q34 57 34 216zM963 1264q0 -34 -23 -58t-57 -24h-133q-32 0 -56 24t-24 58v137q0 34 24 58t56 24h133q34 0 57 -24t23 -58v-137zM535 1264q0 -33 -22.5 -57.5t-55.5 -24.5h-133q-32 0 -56 24t-24 58v137q0 34 24 58t56 24
h133q33 0 55.5 -24.5t22.5 -57.5v-137z" />
    <glyph glyph-name="divide" unicode="&#xf7;" horiz-adv-x="1124" 
d="M694 887q0 -63 -44.5 -108.5t-104.5 -45.5q-61 0 -103.5 45.5t-42.5 108.5q0 41 19 77t53 56t74 20q38 0 73 -20.5t55.5 -56.5t20.5 -76zM1028 381h-932v219h932v-219zM694 94q0 -63 -44 -108t-105 -45q-62 0 -104 45t-42 108q0 41 19 77t53 56.5t74 20.5q38 0 73 -21
t55.5 -57t20.5 -76z" />
    <glyph glyph-name="oslash" unicode="&#xf8;" horiz-adv-x="1206" 
d="M1112 492q0 -133 -26.5 -222t-92.5 -161q-121 -136 -375 -136q-171 0 -282 60l-62 -72q-48 -57 -77 -57q-23 0 -50 26l-18 19q-37 36 -37 59q0 17 27 49l86 99q-82 128 -82 336q0 520 495 520q162 0 267 -51l63 73q36 39 60 39t59 -35l12 -12q29 -28 29 -55
q0 -33 -43 -82l-41 -49q88 -127 88 -348zM709 752q-31 6 -91 6q-80 0 -106.5 -11t-42.5 -40q-33 -56 -33 -215v-62zM801 492q0 59 -2 83l-289 -337q24 -11 108 -11q80 0 107 11t43 38q33 53 33 216z" />
    <glyph glyph-name="ugrave" unicode="&#xf9;" horiz-adv-x="1174" 
d="M1032 109q0 -109 -112 -109h-93q-50 0 -86 51q-69 -39 -133 -58.5t-139 -19.5q-183 0 -261.5 88t-78.5 209v600q0 111 104 111h74q69 0 100 -22t31 -89v-499q0 -74 11 -109t43 -35q58 0 105.5 21.5t125.5 77.5v544q0 111 104 111h74q69 0 100 -22t31 -89v-761zM801 1233
q0 -57 -92 -57h-100q-41 0 -76.5 20.5t-69 56t-61.5 66.5q-7 7 -44 43.5t-58 63.5t-21 45q0 61 152 61h32q84 0 109 -16q21 -14 78 -78t104 -125.5t47 -79.5z" />
    <glyph glyph-name="uacute" unicode="&#xfa;" horiz-adv-x="1174" 
d="M1032 109q0 -109 -112 -109h-93q-50 0 -86 51q-69 -39 -133 -58.5t-139 -19.5q-183 0 -261.5 88t-78.5 209v600q0 111 104 111h74q69 0 100 -22t31 -89v-499q0 -74 11 -109t43 -35q58 0 105.5 21.5t125.5 77.5v544q0 111 104 111h74q69 0 100 -22t31 -89v-761zM936 1477
q0 -18 -26 -51q-14 -14 -28.5 -30.5t-38 -41t-38.5 -39.5q-103 -107 -137 -121q-31 -12 -61 -12h-76q-52 0 -84.5 10t-32.5 47q0 9 16 35q38 59 114 146t99 102q26 16 109 16t124 -9.5t50.5 -21.5t9.5 -30z" />
    <glyph glyph-name="ucircumflex" unicode="&#xfb;" horiz-adv-x="1174" 
d="M1032 109q0 -109 -112 -109h-93q-50 0 -86 51q-69 -39 -133 -58.5t-139 -19.5q-183 0 -261.5 88t-78.5 209v600q0 111 104 111h74q69 0 100 -22t31 -89v-499q0 -74 11 -109t43 -35q58 0 105.5 21.5t125.5 77.5v544q0 111 104 111h74q69 0 100 -22t31 -89v-761zM932 1229
q0 -21 -35.5 -43.5t-122.5 -22.5q-28 0 -45.5 5.5t-32.5 19t-30.5 36.5t-28.5 42q-12 17 -20.5 29.5t-26.5 35.5q-31 -44 -68 -95.5t-59 -61.5q-13 -11 -59 -11q-85 0 -120.5 22.5t-35.5 43.5q0 22 20.5 55.5t45.5 65.5t36 47q96 131 125 153q27 21 115 21q66 0 84.5 -4
t30.5 -17q13 -8 44 -45.5t66.5 -86.5t62 -86.5t36.5 -53.5q18 -25 18 -49z" />
    <glyph glyph-name="udieresis" unicode="&#xfc;" horiz-adv-x="1174" 
d="M1032 109q0 -109 -112 -109h-93q-50 0 -86 51q-69 -39 -133 -58.5t-139 -19.5q-183 0 -261.5 88t-78.5 209v600q0 111 104 111h74q69 0 100 -22t31 -89v-499q0 -74 11 -109t43 -35q58 0 105.5 21.5t125.5 77.5v544q0 111 104 111h74q69 0 100 -22t31 -89v-761zM961 1264
q0 -34 -23 -58t-57 -24h-133q-32 0 -56 24t-24 58v137q0 34 24 58t56 24h133q34 0 57 -24t23 -58v-137zM533 1264q0 -33 -22.5 -57.5t-55.5 -24.5h-133q-32 0 -56 24t-24 58v137q0 34 24 58t56 24h133q33 0 55.5 -24.5t22.5 -57.5v-137z" />
    <glyph glyph-name="yacute" unicode="&#xfd;" horiz-adv-x="1145" 
d="M1032 899q0 -10 -3.5 -21.5t-4.5 -15.5l-453 -1208q-16 -45 -43.5 -60.5t-78.5 -15.5h-103q-94 0 -94 76q0 21 16 57l152 340l-336 811q-8 23 -8 41q0 34 30.5 56t63.5 22h92q73 0 98.5 -14.5t38.5 -57.5l164 -510l152 488q16 52 47.5 73t87.5 21h90q36 0 64 -19t28 -63z
M882 1475q0 -18 -26 -51q-14 -14 -28.5 -30.5t-38 -41t-38.5 -39.5q-103 -107 -137 -121q-31 -12 -61 -12h-76q-52 0 -84.5 10t-32.5 47q0 9 16 35q38 59 114 146t99 102q26 16 109 16t124 -9.5t50.5 -21.5t9.5 -30z" />
    <glyph glyph-name="thorn" unicode="&#xfe;" horiz-adv-x="1198" 
d="M1087 508q0 -130 -12.5 -197t-48.5 -129q-57 -103 -166 -156t-248 -53q-85 0 -163 15v-299q0 -117 -105 -117h-74q-69 0 -100 22.5t-31 94.5v1607q0 113 113 113h92q55 0 80 -35t25 -78v-362q151 78 282 78q145 0 224 -69.5t105.5 -179.5t26.5 -255zM776 504
q0 121 -20 207q-9 47 -58 47q-88 0 -249 -96v-410q98 -25 167 -25q55 0 84 13q76 30 76 264z" />
    <glyph glyph-name="ydieresis" unicode="&#xff;" horiz-adv-x="1145" 
d="M1032 899q0 -10 -3.5 -21.5t-4.5 -15.5l-453 -1208q-16 -45 -43.5 -60.5t-78.5 -15.5h-103q-94 0 -94 76q0 21 16 57l152 340l-336 811q-8 23 -8 41q0 34 30.5 56t63.5 22h92q73 0 98.5 -14.5t38.5 -57.5l164 -510l152 488q16 52 47.5 73t87.5 21h90q36 0 64 -19t28 -63z
M932 1264q0 -34 -23 -58t-57 -24h-133q-32 0 -56 24t-24 58v137q0 34 24 58t56 24h133q34 0 57 -24t23 -58v-137zM504 1264q0 -33 -22.5 -57.5t-55.5 -24.5h-133q-32 0 -56 24t-24 58v137q0 34 24 58t56 24h133q33 0 55.5 -24.5t22.5 -57.5v-137z" />
    <glyph glyph-name="Cacute" unicode="&#x106;" horiz-adv-x="1178" 
d="M1094 76q0 -43 -28 -65.5t-101 -26.5q-138 -11 -236 -11q-183 0 -304 43.5t-189 130t-95.5 215.5t-27.5 306q0 290 66 445t197 212t353 57q89 0 236 -10q73 -4 101 -26.5t28 -65.5v-66q0 -68 -21 -93t-82 -25q-19 0 -95 5t-126 5q-156 0 -215 -25q-53 -23 -77.5 -74.5
t-30 -120t-5.5 -196.5v-24q0 -134 9 -209t47 -130t118 -69q47 -8 154 -8q20 0 96 5t125 5q61 0 82 -25t21 -94v-65zM1052 1813q0 -18 -26 -51q-14 -14 -28.5 -30.5t-38 -41t-38.5 -39.5q-103 -107 -137 -121q-31 -12 -61 -12h-76q-52 0 -84.5 10t-32.5 47q0 9 16 35
q38 59 114 146t99 102q26 16 109 16t124 -9.5t50.5 -21.5t9.5 -30z" />
    <glyph glyph-name="cacute" unicode="&#x107;" horiz-adv-x="1018" 
d="M913 918v-9v-8q0 -74 -17 -121t-81 -47q-12 0 -113 12.5t-161 12.5q-53 0 -75.5 -11.5t-27 -33.5t-8.5 -80q-4 -51 -4 -141q0 -83 8 -189q3 -30 11 -47t30.5 -23t65.5 -6q54 0 156 12.5t118 12.5q42 0 68 -29q7 -7 14 -30.5t11.5 -54.5t4.5 -62q0 -48 -21.5 -66.5
t-113.5 -27.5q-76 -9 -176 -9q-148 0 -241.5 24.5t-148.5 82.5t-78 158.5t-23 253.5q0 152 23.5 253.5t78 159t147 82.5t242.5 25q80 0 176 -11q92 -8 113.5 -25t21.5 -58zM902 1475q0 -18 -26 -51q-14 -14 -28.5 -30.5t-38 -41t-38.5 -39.5q-103 -107 -137 -121
q-31 -12 -61 -12h-76q-52 0 -84.5 10t-32.5 47q0 9 16 35q38 59 114 146t99 102q26 16 109 16t124 -9.5t50.5 -21.5t9.5 -30z" />
    <glyph glyph-name="Ccaron" unicode="&#x10c;" horiz-adv-x="1178" 
d="M1094 76q0 -43 -28 -65.5t-101 -26.5q-138 -11 -236 -11q-183 0 -304 43.5t-189 130t-95.5 215.5t-27.5 306q0 290 66 445t197 212t353 57q89 0 236 -10q73 -4 101 -26.5t28 -65.5v-66q0 -68 -21 -93t-82 -25q-19 0 -95 5t-126 5q-156 0 -215 -25q-53 -23 -77.5 -74.5
t-30 -120t-5.5 -196.5v-24q0 -134 9 -209t47 -130t118 -69q47 -8 154 -8q20 0 96 5t125 5q61 0 82 -25t21 -94v-65zM1034 1903q0 -24 -18 -49q-7 -9 -91 -123q-100 -136 -118 -150q-13 -12 -34 -16t-81 -4t-79 4.5t-36 15.5q-29 22 -121 148q-33 46 -57.5 82t-30.5 43
q-18 25 -18 49q0 20 35.5 42.5t120.5 22.5q30 0 51 -6q24 -8 39 -26t49 -70q10 -14 19.5 -27.5t27.5 -38.5q24 33 45.5 64t44 59t35.5 35q21 8 41 10h18q62 0 96.5 -12t48 -27t13.5 -26z" />
    <glyph glyph-name="ccaron" unicode="&#x10d;" horiz-adv-x="1018" 
d="M913 918v-9v-8q0 -74 -17 -121t-81 -47q-12 0 -113 12.5t-161 12.5q-53 0 -75.5 -11.5t-27 -33.5t-8.5 -80q-4 -51 -4 -141q0 -83 8 -189q3 -30 11 -47t30.5 -23t65.5 -6q54 0 156 12.5t118 12.5q42 0 68 -29q7 -7 14 -30.5t11.5 -54.5t4.5 -62q0 -48 -21.5 -66.5
t-113.5 -27.5q-76 -9 -176 -9q-148 0 -241.5 24.5t-148.5 82.5t-78 158.5t-23 253.5q0 152 23.5 253.5t78 159t147 82.5t242.5 25q80 0 176 -11q92 -8 113.5 -25t21.5 -58zM889 1522q0 -24 -18 -49q-7 -9 -91 -123q-100 -136 -118 -150q-13 -12 -34 -16t-81 -4t-79 4.5
t-36 15.5q-29 22 -121 148q-33 46 -57.5 82t-30.5 43q-18 25 -18 49q0 20 35.5 42.5t120.5 22.5q30 0 51 -6q24 -8 39 -26t49 -70q10 -14 19.5 -27.5t27.5 -38.5q24 33 45.5 64t44 59t35.5 35q21 8 41 10h18q62 0 96.5 -12t48 -27t13.5 -26z" />
    <glyph glyph-name="dcroat" unicode="&#x111;" horiz-adv-x="1184" 
d="M1169 1176q0 -42 -23 -60t-93 -18v-985q0 -115 -107 -115h-72q-85 0 -112 35q-135 -60 -256 -60q-195 0 -295 135t-100 369q0 269 113 402t349 133q72 0 170 -13v99h-200q-113 0 -113 65v56q0 61 113 61h200v18q0 60 28.5 85.5t84.5 25.5h90q56 0 81.5 -35t25.5 -76v-18
q58 0 87 -12t29 -49v-43zM743 305v430q-100 23 -178 23q-48 0 -71 -13q-72 -37 -72 -292q0 -226 127 -226q39 0 91.5 20t102.5 58z" />
    <glyph glyph-name="dotlessi" unicode="&#x131;" horiz-adv-x="594" 
d="M455 106q0 -106 -107 -106h-78q-43 0 -72 8.5t-44 30.5t-15 67v744q0 57 28.5 79.5t84.5 22.5h96q57 0 82 -31.5t25 -70.5v-744z" />
    <glyph glyph-name="Lslash" unicode="&#x141;" horiz-adv-x="1196" 
d="M1167 104q0 -104 -110 -104h-576q-61 0 -92 25t-31 86v297l-20 -19q-42 -37 -78 -37q-40 0 -74 39l-22 25q-29 35 -40 53.5t-11 42.5q0 40 43 80l202 194v478q0 64 35.5 84t87.5 20h88q111 0 111 -104v-168l111 106q38 39 77 39q44 0 80 -47l33 -39q31 -36 31 -74
q0 -43 -37 -82l-295 -282v-447q212 4 377 4q48 0 72.5 -18.5t31 -42t6.5 -55.5v-54z" />
    <glyph glyph-name="lslash" unicode="&#x142;" horiz-adv-x="1034" 
d="M930 1036q0 -47 -41 -90l-240 -237v-594q0 -115 -106 -115h-74q-68 0 -99.5 23t-31.5 92v286l-16 -16q-39 -39 -74 -39q-36 0 -76 43l-29 31q-39 44 -39 76q0 34 50 84l184 184v534q0 61 28.5 86t84.5 25h92q57 0 81.5 -34.5t24.5 -76.5v-229l70 72q34 37 72 37
q37 0 83 -48l23 -22q33 -33 33 -72z" />
    <glyph glyph-name="OE" unicode="&#x152;" horiz-adv-x="1845" 
d="M1733 104q0 -104 -111 -104h-893q-182 0 -301 40t-188.5 121.5t-98 205t-28.5 303.5q0 218 38 358t112.5 212.5t185 100t280.5 27.5h893q111 0 111 -104v-54q0 -32 -6.5 -55.5t-31 -42t-73.5 -18.5q-106 0 -138.5 0.5t-126 2t-173.5 3.5v-262q72 2 152 3.5t110 2t131 0.5
q71 0 91 -34t20 -83v-27q0 -48 -20 -82t-91 -34q-83 0 -177.5 2t-215.5 4v-322q363 6 438 6q70 0 90.5 -33.5t20.5 -82.5v-54zM862 279v811q-18 1 -35 1.5t-57 0.5q-114 0 -181.5 -18.5t-98 -57.5t-39.5 -100t-9 -173v-77q0 -169 22.5 -249.5t90.5 -110.5t215 -30
q28 1 56.5 2t35.5 1z" />
    <glyph glyph-name="oe" unicode="&#x153;" horiz-adv-x="1794" 
d="M1681 539q0 -64 -9.5 -94.5t-31.5 -39t-69 -8.5h-477q-4 -32 -4 -47q0 -75 41 -110t131 -35q61 0 120.5 8.5t147.5 26.5q40 10 53 10q53 0 68.5 -39.5t15.5 -99.5q0 -47 -19.5 -75t-74.5 -36q-174 -27 -313 -27q-124 0 -207.5 26t-126.5 89q-50 -57 -132 -86t-188 -29
q-173 0 -284 62t-161 178t-50 279q0 520 495 520q113 0 200 -27t120 -86q51 64 127.5 88.5t195.5 24.5q137 0 223 -30.5t130.5 -89.5t61.5 -145.5t17 -207.5zM1389 600v49q0 73 -27 102t-111 29q-64 0 -98 -18.5t-46.5 -56.5t-14.5 -105h297zM788 492q0 158 -32 215
q-16 28 -43.5 39.5t-106.5 11.5t-106 -11t-43 -40q-33 -61 -33 -215q0 -163 33 -216q16 -27 43.5 -38t105.5 -11t106 11.5t44 37.5q32 54 32 216z" />
    <glyph glyph-name="Scaron" unicode="&#x160;" horiz-adv-x="1145" 
d="M1032 430q0 -211 -41 -287q-38 -67 -109 -103t-156 -47t-181 -11q-144 0 -305 14q-72 6 -99.5 28t-27.5 64v68q0 69 21 93.5t81 24.5q41 0 127 -8q82 -8 233 -8q75 0 100.5 5.5t33.5 25.5t8 73v58q0 44 -10 61.5t-48 32.5q-104 42 -260 104q-120 51 -173.5 91t-75 105
t-21.5 192q0 106 22 180.5t84 123t177 64.5q57 8 198 8h31q88 0 236 -10q73 -4 101 -26.5t28 -65.5v-66q0 -68 -21 -93t-82 -25q-17 0 -93.5 5t-127.5 5q-37 1 -70 1.5t-80 0.5q-57 0 -72.5 -20.5t-15.5 -75.5v-25q0 -44 9.5 -61.5t48.5 -34.5q35 -14 94 -37.5t76 -30.5
q167 -69 236 -109.5t96.5 -102.5t27.5 -181zM917 1903q0 -24 -18 -49q-7 -9 -91 -123q-100 -136 -118 -150q-13 -12 -34 -16t-81 -4t-79 4.5t-36 15.5q-29 22 -121 148q-33 46 -57.5 82t-30.5 43q-18 25 -18 49q0 20 35.5 42.5t120.5 22.5q30 0 51 -6q24 -8 39 -26t49 -70
q10 -14 19.5 -27.5t27.5 -38.5q24 33 45.5 64t44 59t35.5 35q21 8 41 10h18q62 0 96.5 -12t48 -27t13.5 -26z" />
    <glyph glyph-name="scaron" unicode="&#x161;" horiz-adv-x="1071" 
d="M938 299q0 -96 -21.5 -158.5t-69 -99t-126.5 -52.5t-193 -16q-202 0 -297 13q-32 4 -47 11t-22.5 28.5t-7.5 74.5v35q0 52 16 83.5t66 31.5q-5 0 103 -12.5t218 -12.5q33 0 50 4t23.5 16t6.5 34q0 43 -8 49q-9 10 -64 25.5t-135 36.5t-136.5 43t-90.5 52q-72 66 -72 203
q0 111 37 178.5t100.5 98t146.5 39t206 8.5q102 0 153 -4q67 -5 96 -29t29 -90q0 -75 -16.5 -110.5t-81.5 -35.5q-10 0 -95.5 8.5t-177.5 8.5q-46 0 -63.5 -3t-25 -15.5t-7.5 -39.5q0 -18 9.5 -27.5t26.5 -15t120 -36.5q123 -35 169 -49.5t89 -43.5t67.5 -85t24.5 -146z
M869 1522q0 -24 -18 -49q-7 -9 -91 -123q-100 -136 -118 -150q-13 -12 -34 -16t-81 -4t-79 4.5t-36 15.5q-29 22 -121 148q-33 46 -57.5 82t-30.5 43q-18 25 -18 49q0 20 35.5 42.5t120.5 22.5q30 0 51 -6q24 -8 39 -26t49 -70q10 -14 19.5 -27.5t27.5 -38.5q24 33 45.5 64
t44 59t35.5 35q21 8 41 10h18q62 0 96.5 -12t48 -27t13.5 -26z" />
    <glyph glyph-name="Ydieresis" unicode="&#x178;" horiz-adv-x="1305" 
d="M1239 1282q0 -37 -20 -70l-402 -682v-419q0 -111 -110 -111h-89q-60 0 -91 25t-31 86v403l-408 698q-22 42 -22 70q0 47 32.5 66.5t69.5 19.5h111q49 0 76 -17.5t46 -52.5l258 -448l265 450q20 35 46.5 51.5t76.5 16.5h90q50 0 76 -24.5t26 -61.5zM1010 1655
q0 -34 -23 -58t-57 -24h-133q-32 0 -56 24t-24 58v137q0 34 24 58t56 24h133q34 0 57 -24t23 -58v-137zM582 1655q0 -33 -22.5 -57.5t-55.5 -24.5h-133q-32 0 -56 24t-24 58v137q0 34 24 58t56 24h133q33 0 55.5 -24.5t22.5 -57.5v-137z" />
    <glyph glyph-name="Zcaron" unicode="&#x17d;" horiz-adv-x="1188" 
d="M1122 1288q0 -36 -22 -71l-606 -959q344 16 503 16q70 0 90.5 -33.5t20.5 -82.5v-54q0 -104 -111 -104h-825q-46 0 -76 27.5t-30 70.5q0 47 38 107l566 895q-231 -6 -447 -6q-112 0 -112 116v54q0 104 112 104h809q47 0 68.5 -22t21.5 -58zM991 1907q0 -24 -18 -49
q-7 -9 -91 -123q-100 -136 -118 -150q-13 -12 -34 -16t-81 -4t-79 4.5t-36 15.5q-29 22 -121 148q-33 46 -57.5 82t-30.5 43q-18 25 -18 49q0 20 35.5 42.5t120.5 22.5q30 0 51 -6q24 -8 39 -26t49 -70q10 -14 19.5 -27.5t27.5 -38.5q24 33 45.5 64t44 59t35.5 35
q21 8 41 10h18q62 0 96.5 -12t48 -27t13.5 -26z" />
    <glyph glyph-name="zcaron" unicode="&#x17e;" horiz-adv-x="1055" 
d="M952 104q0 -55 -31.5 -79.5t-78.5 -24.5h-635q-46 0 -74.5 26t-28.5 66v35q0 50 39 98l396 510q-34 -3 -109 -7t-118.5 -5.5t-67.5 -1.5q-50 0 -74 19t-30.5 42.5t-6.5 55.5v36q0 57 31 82t80 25h602q44 0 68 -23t24 -63v-57q0 -45 -29 -80l-399 -510q212 12 332 12
q110 0 110 -117v-39zM873 1524q0 -24 -18 -49q-7 -9 -91 -123q-100 -136 -118 -150q-13 -12 -34 -16t-81 -4t-79 4.5t-36 15.5q-29 22 -121 148q-33 46 -57.5 82t-30.5 43q-18 25 -18 49q0 20 35.5 42.5t120.5 22.5q30 0 51 -6q24 -8 39 -26t49 -70q10 -14 19.5 -27.5
t27.5 -38.5q24 33 45.5 64t44 59t35.5 35q21 8 41 10h18q62 0 96.5 -12t48 -27t13.5 -26z" />
    <glyph glyph-name="florin" unicode="&#x192;" horiz-adv-x="1085" 
d="M1057 1221q0 -77 -20 -99t-64 -22q-5 0 -33 4l-35 6q-36 6 -71 6q-34 0 -54 -14t-30 -36.5t-17 -60t-10 -53.5h78q119 0 119 -100v-27q0 -64 -24.5 -95.5t-94.5 -31.5h-129l-107 -569q-20 -110 -38 -179.5t-57 -132t-108.5 -98.5t-181.5 -36q-74 0 -112.5 20.5
t-38.5 85.5v57q0 61 31 78t92 17q32 0 48 15.5t23 40.5t23 109l112 592h-20q-113 0 -113 109v45q0 53 34.5 76.5t78.5 23.5h70q30 133 47 191t58.5 118t113 92.5t186.5 32.5q22 0 65 -5t68 -7q52 -5 81.5 -26t29.5 -74v-53z" />
    <glyph glyph-name="circumflex" unicode="&#x2c6;" horiz-adv-x="684" 
d="M684 1188q0 -21 -35.5 -43.5t-122.5 -22.5q-28 0 -45.5 5.5t-32.5 19t-30.5 36.5t-28.5 42q-12 17 -20.5 29.5t-26.5 35.5q-31 -44 -68 -95.5t-59 -61.5q-13 -11 -59 -11q-85 0 -120.5 22.5t-35.5 43.5q0 22 20.5 55.5t45.5 65.5t36 47q96 131 125 153q27 21 115 21
q66 0 84.5 -4t30.5 -17q13 -8 44 -45.5t66.5 -86.5t62 -86.5t36.5 -53.5q18 -25 18 -49z" />
    <glyph glyph-name="caron" unicode="&#x2c7;" horiz-adv-x="684" 
d="M684 1487q0 -24 -18 -49q-7 -9 -91 -123q-100 -136 -118 -150q-13 -12 -34 -16t-81 -4t-79 4.5t-36 15.5q-29 22 -121 148q-33 46 -57.5 82t-30.5 43q-18 25 -18 49q0 20 35.5 42.5t120.5 22.5q30 0 51 -6q24 -8 39 -26t49 -70q10 -14 19.5 -27.5t27.5 -38.5
q24 33 45.5 64t44 59t35.5 35q21 8 41 10h18q62 0 96.5 -12t48 -27t13.5 -26z" />
    <glyph glyph-name="macron" unicode="&#x2c9;" horiz-adv-x="637" 
d="M637 1282q0 -68 -21 -96.5t-86 -28.5h-428q-56 0 -79 26t-23 81v30q0 52 31.5 75.5t70.5 23.5h428q107 0 107 -99v-12z" />
    <glyph glyph-name="breve" unicode="&#x2d8;" horiz-adv-x="705" 
d="M705 1473q0 -97 -46.5 -173.5t-128 -120.5t-176.5 -44q-96 0 -178 43.5t-129 120t-47 174.5q0 36 8.5 55t36.5 29t86 10q56 0 73 -17t17 -57q0 -79 30 -119.5t103 -40.5q74 0 103.5 39.5t29.5 120.5q0 74 88 74q59 0 86.5 -9.5t35.5 -28.5t8 -56z" />
    <glyph glyph-name="dotaccent" unicode="&#x2d9;" horiz-adv-x="315" 
d="M315 1194q0 -111 -104 -111h-80q-68 0 -99.5 22t-31.5 89v68q0 106 113 106h98q55 0 79.5 -32.5t24.5 -73.5v-68z" />
    <glyph glyph-name="ring" unicode="&#x2da;" horiz-adv-x="406" 
d="M406 1339q0 -57 -27.5 -105t-74 -76t-101.5 -28q-83 0 -143 62.5t-60 146.5q0 56 27 104t73 76.5t103 28.5q55 0 101.5 -28t74 -75.5t27.5 -105.5zM283 1339q0 34 -23 58t-57 24q-33 0 -55.5 -24.5t-22.5 -57.5t23 -56t55 -23t56 24t24 55z" />
    <glyph glyph-name="tilde" unicode="&#x2dc;" horiz-adv-x="756" 
d="M756 1389q0 -21 -23 -72q-78 -164 -221 -164q-39 0 -70.5 7t-67.5 20t-75 28q-31 9 -39 9q-18 0 -39.5 -25t-33.5 -36t-44 -11h-69q-74 0 -74 65q0 29 31 84q86 160 217 160q42 0 78 -10.5t97 -30.5t83 -20q11 0 24 19.5t27.5 31.5t48.5 12h74q76 0 76 -67z" />
    <glyph glyph-name="uniF006" unicode="&#x3c0;" horiz-adv-x="1413" 
d="M505 916v-916h-180v916h-280v146h1324v-146h-242v-916h-180v916h-442z" />
    <glyph glyph-name="uniF006" unicode="&#xf006;" horiz-adv-x="1413" 
d="M505 916v-916h-180v916h-280v146h1324v-146h-242v-916h-180v916h-442z" />
    <glyph glyph-name="endash" unicode="&#x2013;" horiz-adv-x="1130" 
d="M1112 477q0 -68 -20.5 -96.5t-85.5 -28.5h-883q-56 0 -80.5 26.5t-24.5 80.5v59q0 51 32 74.5t73 23.5h883q106 0 106 -98v-41z" />
    <glyph glyph-name="emdash" unicode="&#x2014;" horiz-adv-x="2124" 
d="M2105 477q0 -68 -20.5 -96.5t-85.5 -28.5h-1876q-56 0 -80.5 26.5t-24.5 80.5v59q0 51 32 74.5t73 23.5h1876q106 0 106 -98v-41z" />
    <glyph glyph-name="quoteleft" unicode="&#x2018;" horiz-adv-x="584" 
d="M498 1108q0 -42 -63.5 -70t-98.5 -28q-66 0 -103 57q-1 2 -73 111t-86 145q-8 20 -8 27q0 41 36.5 58t69.5 17h78q46 0 69.5 -15t47.5 -58l106 -174q25 -44 25 -70z" />
    <glyph glyph-name="quoteright" unicode="&#x2019;" horiz-adv-x="584" 
d="M516 1350q0 -25 -12 -43q-18 -32 -78 -122.5t-78 -117.5q-36 -57 -102 -57q-33 0 -97.5 28.5t-64.5 69.5q0 30 25 70l106 174q28 43 50.5 58t66.5 15h78q19 0 43.5 -6.5t43.5 -23.5t19 -45z" />
    <glyph glyph-name="quotesinglbase" unicode="&#x201a;" horiz-adv-x="586" 
d="M518 96q0 -20 -14 -43q-21 -36 -36.5 -60t-44.5 -67t-42.5 -63t-32.5 -49q-36 -58 -100 -58q-14 0 -56.5 12.5t-75 35t-32.5 51.5q0 27 27 69l104 174q27 44 49.5 59t67.5 15h78q19 0 44.5 -7t44.5 -23.5t19 -45.5z" />
    <glyph glyph-name="quotedblleft" unicode="&#x201c;" horiz-adv-x="1065" 
d="M979 1108q0 -42 -63.5 -70t-98.5 -28q-66 0 -102 57q-23 35 -57 84.5t-63.5 96.5t-41.5 75q-6 15 -6 27q0 40 37.5 57.5t68.5 17.5h78q46 0 69.5 -15t47.5 -58l104 -174q27 -44 27 -70zM498 1108q0 -42 -63.5 -70t-98.5 -28q-66 0 -103 57q-1 2 -73 111t-86 145
q-8 20 -8 27q0 41 36.5 58t69.5 17h78q46 0 69.5 -15t47.5 -58l106 -174q25 -44 25 -70z" />
    <glyph glyph-name="quotedblright" unicode="&#x201d;" horiz-adv-x="1065" 
d="M997 1350q0 -19 -16 -43q-22 -39 -51 -83.5t-52 -79.5t-51 -77q-36 -57 -100 -57q-32 0 -97 28.5t-65 69.5q0 33 23 70l106 174q27 43 51 58t68 15h78q20 0 44 -6.5t43 -23.5t19 -45zM516 1350q0 -25 -12 -43q-18 -32 -78 -122.5t-78 -117.5q-36 -57 -102 -57
q-33 0 -97.5 28.5t-64.5 69.5q0 30 25 70l106 174q28 43 50.5 58t66.5 15h78q19 0 43.5 -6.5t43.5 -23.5t19 -45z" />
    <glyph glyph-name="quotedblbase" unicode="&#x201e;" horiz-adv-x="1083" 
d="M1016 96q0 -21 -15 -43q-22 -38 -70.5 -112.5t-82.5 -126.5q-38 -58 -103 -58q-33 0 -97 28t-64 71q0 29 24 69l107 174q29 45 50.5 59.5t65.5 14.5h78q33 0 70 -17.5t37 -58.5zM518 96q0 -20 -14 -43q-21 -36 -36.5 -60t-44.5 -67t-42.5 -63t-32.5 -49q-36 -58 -100 -58
q-14 0 -56.5 12.5t-75 35t-32.5 51.5q0 27 27 69l104 174q27 44 49.5 59t67.5 15h78q19 0 44.5 -7t44.5 -23.5t19 -45.5z" />
    <glyph glyph-name="dagger" unicode="&#x2020;" horiz-adv-x="1163" 
d="M1051 889q0 -65 -24 -95t-93 -30h-197v-653q0 -111 -104 -111h-74q-68 0 -99.5 22t-31.5 89v653h-201q-61 0 -87.5 28t-26.5 80v43q0 53 35.5 76t78.5 23h201v248q0 106 113 106h92q55 0 79.5 -32.5t24.5 -73.5v-248h197q117 0 117 -99v-26z" />
    <glyph glyph-name="daggerdbl" unicode="&#x2021;" horiz-adv-x="1163" 
d="M1051 477q0 -65 -23.5 -94t-93.5 -29h-197v-243q0 -111 -104 -111h-74q-68 0 -99.5 22t-31.5 89v243h-201q-60 0 -87 27t-27 80v43q0 53 35 76.5t79 23.5h201v160h-201q-61 0 -87.5 28t-26.5 80v43q0 53 35.5 76t78.5 23h201v248q0 106 113 106h92q55 0 79.5 -32.5
t24.5 -73.5v-248h197q117 0 117 -99v-26q0 -65 -24 -95t-93 -30h-197v-160h197q117 0 117 -100v-27z" />
    <glyph glyph-name="bullet" unicode="&#x2022;" horiz-adv-x="918" 
d="M795 643q0 -90 -45.5 -170t-123.5 -128t-167 -48q-140 0 -238 100.5t-98 245.5q0 73 26 136t72.5 110.5t107 73.5t130.5 26q91 0 168.5 -46t122.5 -126.5t45 -173.5z" />
    <glyph glyph-name="ellipsis" unicode="&#x2026;" horiz-adv-x="1901" 
d="M1778 172q0 -28 -19.5 -62.5t-54.5 -70t-68.5 -56t-58.5 -20.5q-81 0 -180 135q-25 31 -25 68q0 38 35.5 87.5t83.5 85.5t82 36q76 0 180 -135q25 -37 25 -68zM1155 172q0 -28 -19.5 -62.5t-54.5 -70t-68.5 -56t-58.5 -20.5q-81 0 -180 135q-26 34 -26 68q0 38 36 87.5
t84 85.5t82 36q74 0 178 -135q27 -38 27 -68zM530 172q0 -38 -35.5 -87.5t-83 -85.5t-81.5 -36q-83 0 -180 135q-27 33 -27 68q0 26 21.5 63.5t55 71t67.5 54t59 20.5q76 0 180 -135q24 -36 24 -68z" />
    <glyph glyph-name="perthousand" unicode="&#x2030;" horiz-adv-x="2669" 
d="M2546 365q0 -111 -25 -197t-95.5 -140.5t-197.5 -54.5q-184 0 -250.5 108.5t-66.5 283.5t66.5 283t250.5 108q127 0 197.5 -54.5t95.5 -140.5t25 -196zM1784 365q0 -111 -25 -197t-95.5 -140.5t-197.5 -54.5q-184 0 -250.5 108.5t-66.5 283.5t66.5 283t250.5 108
q127 0 197.5 -54.5t95.5 -140.5t25 -196zM1442 1337q0 -17 -10 -39l-748 -1335q-13 -22 -34 -33.5t-46 -11.5h-6q-14 0 -20 4l-95 58q-22 12 -22 53q0 23 10 39l750 1335q25 45 75 45h7q14 0 20 -4l96 -57q23 -13 23 -54zM756 1004q0 -111 -25 -197t-95.5 -140.5
t-197.5 -54.5t-196.5 54.5t-94 141t-24.5 196.5q0 109 24.5 195.5t94 141t196.5 54.5t197.5 -54.5t95.5 -140.5t25 -196zM2327 365q0 62 -7.5 112.5t-17.5 71.5q-16 26 -74 26q-61 0 -71 -26q-25 -48 -25 -184q0 -137 25 -185q10 -26 71 -26q58 0 74 26q11 23 18 73t7 112z
M1565 365q0 128 -27 184q-16 26 -72 26q-63 0 -73 -26q-25 -48 -25 -184q0 -137 25 -185q10 -26 73 -26q56 0 72 26q27 56 27 185zM537 1004q0 62 -7.5 112.5t-17.5 71.5q-16 26 -74 26q-61 0 -71 -26q-25 -48 -25 -184q0 -137 25 -185q10 -26 71 -26q58 0 74 26
q11 23 18 73t7 112z" />
    <glyph glyph-name="guilsinglleft" unicode="&#x2039;" horiz-adv-x="678" 
d="M612 180q0 -24 -34.5 -46.5t-124.5 -22.5q-47 0 -74.5 10.5t-48.5 40.5q-207 274 -207 315q0 17 38 76.5t102 147.5t67 92q20 29 48 40t75 11q90 0 124.5 -22.5t34.5 -47.5q0 -15 -14 -43l-164 -254l164 -254q14 -28 14 -43z" />
    <glyph glyph-name="guilsinglright" unicode="&#x203a;" horiz-adv-x="680" 
d="M557 477q0 -9 -28 -59t-64 -99q-21 -30 -54 -73.5t-63 -83.5q-21 -30 -47 -40.5t-74 -10.5q-91 0 -126 23t-35 46q0 15 14 43l164 254l-164 254q-14 28 -14 43q0 24 35 47t126 23q48 0 74.5 -11t46.5 -40q3 -4 67.5 -92t103 -147t38.5 -77z" />
    <glyph glyph-name="uni2044" unicode="&#x2044;" horiz-adv-x="967" 
d="M1001 1397q0 -28 -16 -62l-760 -1355q-35 -64 -86 -64q-28 0 -59 21l-47 30q-33 24 -45.5 38t-12.5 38t25 72l762 1353q35 62 82 62q30 0 67 -23l37 -22q53 -32 53 -88z" />
    <glyph glyph-name="Euro" unicode="&#x20ac;" horiz-adv-x="1284" 
d="M1167 77q0 -83 -123 -91q-154 -10 -227 -10q-271 0 -404 100t-170 335h-110q-95 0 -95 66q0 14 5 35l4 22q20 94 135 94h45q-2 23 -2 45q0 33 2 64h-98q-95 0 -95 65q0 15 4 35l5 23q20 94 135 94h67q41 254 185 352q127 86 387 86q73 0 227 -10q123 -8 123 -92v-66
q0 -71 -22.5 -90.5t-75.5 -19.5q-35 0 -106 5t-105 5q-158 0 -221.5 -35t-81.5 -135h469q100 0 100 -66q0 -12 -4 -28l-6 -25q-13 -55 -42.5 -76.5t-95.5 -21.5h-434v-109h410q100 0 100 -65q0 -13 -4 -29l-6 -25q-12 -55 -42 -76.5t-95 -21.5h-348q20 -104 88 -139
q57 -29 213 -29q34 0 105 5t106 5q55 0 76.5 -19t21.5 -91v-66z" />
    <glyph glyph-name="trademark" unicode="&#x2122;" horiz-adv-x="2052" 
d="M1948 633q0 -84 -107 -84h-55q-46 0 -72 24.5t-31 63.5l-18 235q-28 -64 -51.5 -117.5t-24.5 -54.5q-33 -69 -112 -69h-43q-78 0 -111 69q-16 35 -42 94t-36 78l-20 -235q-7 -88 -99 -88h-57q-108 0 -108 84v14l67 639q9 82 109 82h71q80 0 109 -59q103 -230 139 -314
q125 281 139 314q29 59 107 59h74q97 0 106 -82l66 -639v-14zM840 1251q0 -96 -99 -96h-2q-20 1 -48 1.5t-97 0.5v-516q0 -43 -27.5 -67.5t-74.5 -24.5h-54q-108 0 -108 92v516q-68 0 -96.5 -0.5t-49.5 -1.5h-2q-59 0 -79.5 31.5t-20.5 64.5v29q0 48 31.5 68t70.5 20h555
q40 0 70.5 -20t30.5 -68v-29z" />
    <glyph glyph-name="uni2126" unicode="&#x2126;" horiz-adv-x="1573" 
d="M496 160q-108 67 -165 130q-87 96 -134 225.5t-47 286.5q0 196 79.5 360.5t231 252.5t347.5 88q336 0 516 -254q131 -186 131 -448q0 -168 -54 -297.5t-141 -222.5q-53 -58 -149 -121l364 6v-166h-575v177q80 40 124 78q72 61 122 145t75.5 179t25.5 198
q0 138 -49.5 277.5t-150 212.5t-243.5 73q-191 0 -296 -120q-146 -169 -146 -440q0 -217 91 -372.5t251 -227.5v-180h-577v168z" />
    <glyph glyph-name="onethird" unicode="&#x2153;" horiz-adv-x="1907" 
d="M1384 1337q0 -11 -2.5 -20t-7.5 -19l-747 -1335q-14 -23 -37 -34t-49 -11q-5 0 -10.5 0.5t-10.5 3.5l-94 58q-14 8 -18.5 23.5t-4.5 29.5q0 11 3 20t8 19l749 1335q14 25 34 35t48 10q5 0 10.5 -0.5t10.5 -3.5l96 -57q14 -8 18 -24t4 -30zM537 719q0 -37 -21 -58.5
t-59 -21.5h-39q-42 0 -68 16.5t-26 63.5v452q-8 -3 -21 -6.5t-22 -3.5q-22 0 -36 7.5t-22.5 20t-12 29.5t-3.5 35q0 31 14.5 49t42.5 29q48 19 93.5 36t99.5 17q34 0 57 -20t23 -55v-590zM1753 240q0 -68 -20.5 -115.5t-58 -77.5t-89.5 -43.5t-115 -13.5q-13 0 -39 2.5
t-57.5 8t-64.5 13.5t-60 19t-44 25t-17 32q0 19 6 36l12 34q8 23 26.5 36t43.5 13q8 0 15 -1t14 -3q43 -13 83 -23t87 -10q20 0 32.5 2.5t19 10t9 20.5t2.5 33q0 18 -4.5 28t-13.5 15t-21.5 6t-28.5 2q-27 2 -54.5 2h-53.5q-18 0 -35.5 1.5t-31.5 7.5t-22.5 18.5t-8.5 35.5
v47q0 30 15.5 44t38 19t48 4t45.5 -1q25 0 43.5 0.5t30.5 6.5t18 20.5t6 42.5q0 17 -5 26t-13.5 12.5t-20.5 4t-26 0.5q-25 0 -49.5 -3t-48.5 -6q-11 -2 -22.5 -4t-20.5 -2q-25 0 -39.5 10.5t-22 27t-10 37t-2.5 40.5q0 31 28 53q9 7 34.5 11.5t55 7t56.5 3.5t39 1
q55 0 105.5 -9t89.5 -32t62 -64.5t23 -105.5q0 -37 -9 -72.5t-32 -64.5q44 -31 58 -74t14 -94z" />
    <glyph glyph-name="twothirds" unicode="&#x2154;" horiz-adv-x="1907" 
d="M1415 1337q0 -11 -2.5 -20t-7.5 -19l-748 -1335q-14 -23 -37 -34t-49 -11q-5 0 -10 0.5t-10 3.5l-94 58q-14 8 -18.5 23.5t-4.5 29.5q0 11 2.5 20t7.5 19l750 1335q14 25 34 35t48 10q5 0 10 -0.5t10 -3.5l97 -57q14 -8 18 -24t4 -30zM1753 240q0 -68 -20.5 -115.5
t-58 -77.5t-89.5 -43.5t-115 -13.5q-13 0 -39 2.5t-57.5 8t-64.5 13.5t-60 19t-44 25t-17 32q0 19 6 36l12 34q8 23 26.5 36t43.5 13q8 0 15 -1t14 -3q43 -13 83 -23t87 -10q20 0 32.5 2.5t19 10t9 20.5t2.5 33q0 18 -4.5 28t-13.5 15t-21.5 6t-28.5 2q-27 2 -54.5 2h-53.5
q-18 0 -35.5 1.5t-31.5 7.5t-22.5 18.5t-8.5 35.5v47q0 30 15.5 44t38 19t48 4t45.5 -1q25 0 43.5 0.5t30.5 6.5t18 20.5t6 42.5q0 17 -5 26t-13.5 12.5t-20.5 4t-26 0.5q-25 0 -49.5 -3t-48.5 -6q-11 -2 -22.5 -4t-20.5 -2q-25 0 -39.5 10.5t-22 27t-10 37t-2.5 40.5
q0 31 28 53q9 7 34.5 11.5t55 7t56.5 3.5t39 1q55 0 105.5 -9t89.5 -32t62 -64.5t23 -105.5q0 -37 -9 -72.5t-32 -64.5q44 -31 58 -74t14 -94zM653 715q0 -38 -24.5 -57t-59.5 -19h-395q-29 0 -45.5 8.5t-24.5 23t-10 35t-2 44.5q0 19 7.5 35t19 30t25.5 26t26 23
q34 32 66.5 64.5t66.5 64.5q16 15 37.5 36.5t41 46t33 50t15.5 48.5q2 21 -8 30.5t-41 9.5q-28 0 -53.5 -1.5t-53.5 -6.5q-14 -2 -30 -6t-31 -4q-25 0 -39 8.5t-21.5 22.5t-11 32t-6.5 37q0 5 -1 8.5t-1 8.5q0 17 6.5 29t17.5 20t25 13t29 7q43 7 87 10t87 3q51 0 98.5 -10
t84 -33.5t59 -63t22.5 -98.5q0 -60 -22 -112.5t-57 -98t-78 -85.5t-86 -75q42 2 81.5 3t81.5 1q29 0 46 -8.5t25.5 -23t10.5 -34t2 -42.5z" />
    <glyph glyph-name="oneeighth" unicode="&#x215b;" horiz-adv-x="1907" 
d="M1362 1337q0 -11 -2.5 -20t-7.5 -19l-748 -1335q-14 -23 -37 -34t-49 -11q-5 0 -10 0.5t-10 3.5l-95 58q-14 8 -18 23.5t-4 29.5q0 11 2.5 20t7.5 19l750 1335q14 25 34 35t48 10q5 0 10 -0.5t10 -3.5l96 -57q14 -8 18.5 -24t4.5 -30zM1749 207q0 -62 -21.5 -104
t-59.5 -67t-92 -35.5t-118 -10.5q-65 0 -118.5 10.5t-92.5 35.5t-60.5 67t-21.5 104q0 61 32.5 99.5t98.5 70.5q-62 32 -88 71.5t-26 98.5q0 66 22 107t60 63.5t88 30.5t106 8q63 0 114 -7t87.5 -28.5t56 -60.5t19.5 -103q0 -34 -10 -61.5t-27 -50t-38.5 -39.5t-45.5 -29
q26 -11 50.5 -25.5t43 -34.5t30 -47t11.5 -63zM1526 543q0 24 -14 34.5t-37 10.5h-29q-26 0 -40.5 -8.5t-14.5 -36.5q0 -19 2.5 -31t9 -20.5t18.5 -16.5t31 -18q19 10 33 17t23 15.5t13.5 21t4.5 32.5zM1534 229q0 34 -21 49t-55 29q-14 -7 -28 -13.5t-25 -15.5t-18 -20.5
t-7 -28.5q0 -24 3 -38t11 -21.5t21 -9.5t33 -2h20q39 0 52.5 14t13.5 57zM537 719q0 -37 -21 -58.5t-59 -21.5h-39q-42 0 -68 16.5t-26 63.5v452q-8 -3 -21 -6.5t-22 -3.5q-22 0 -36 7.5t-22.5 20t-12 29.5t-3.5 35q0 31 14.5 49t42.5 29q48 19 93.5 36t99.5 17q34 0 57 -20
t23 -55v-590z" />
    <glyph glyph-name="threeeighths" unicode="&#x215c;" horiz-adv-x="1907" 
d="M1415 1337q0 -11 -2.5 -20t-7.5 -19l-748 -1335q-14 -23 -37 -34t-49 -11q-5 0 -10 0.5t-10 3.5l-94 58q-14 8 -18.5 23.5t-4.5 29.5q0 11 2.5 20t7.5 19l750 1335q14 25 34 35t48 10q5 0 10 -0.5t10 -3.5l97 -57q14 -8 18 -24t4 -30zM1749 207q0 -62 -21.5 -104
t-59.5 -67t-92 -35.5t-118 -10.5q-65 0 -118.5 10.5t-92.5 35.5t-60.5 67t-21.5 104q0 61 32.5 99.5t98.5 70.5q-62 32 -88 71.5t-26 98.5q0 66 22 107t60 63.5t88 30.5t106 8q63 0 114 -7t87.5 -28.5t56 -60.5t19.5 -103q0 -34 -10 -61.5t-27 -50t-38.5 -39.5t-45.5 -29
q26 -11 50.5 -25.5t43 -34.5t30 -47t11.5 -63zM1526 543q0 24 -14 34.5t-37 10.5h-29q-26 0 -40.5 -8.5t-14.5 -36.5q0 -19 2.5 -31t9 -20.5t18.5 -16.5t31 -18q19 10 33 17t23 15.5t13.5 21t4.5 32.5zM1534 229q0 34 -21 49t-55 29q-14 -7 -28 -13.5t-25 -15.5t-18 -20.5
t-7 -28.5q0 -24 3 -38t11 -21.5t21 -9.5t33 -2h20q39 0 52.5 14t13.5 57zM690 879q0 -68 -20.5 -115.5t-58 -77.5t-89 -43.5t-114.5 -13.5q-14 0 -40 2.5t-57.5 8t-64.5 13.5t-60 19t-44 25t-17 32q0 19 6 36l12 34q8 23 26.5 36t43.5 13q8 0 15 -1t14 -3q43 -13 83 -23
t87 -10q20 0 32.5 2.5t19 10t9 20.5t2.5 33q0 18 -4.5 28t-13 15t-21 6t-28.5 2q-28 2 -55.5 2h-53.5q-18 0 -35.5 1.5t-31.5 7.5t-22.5 18.5t-8.5 35.5v47q0 30 15.5 44t38 19t48 4t45.5 -1q25 0 43.5 0.5t30.5 6.5t18 20.5t6 42.5q0 17 -5 26t-13.5 12.5t-20.5 4t-26 0.5
q-25 0 -49.5 -3t-48.5 -6q-11 -2 -22.5 -4t-20.5 -2q-25 0 -39.5 10.5t-22 27t-10 37t-2.5 40.5q0 32 29 53q9 7 34 11.5t54.5 7t56.5 3.5t39 1q55 0 105.5 -9t89.5 -32t62 -64.5t23 -105.5q0 -37 -9 -72.5t-32 -64.5q44 -31 58 -74t14 -94z" />
    <glyph glyph-name="fiveeighths" unicode="&#x215d;" horiz-adv-x="1907" 
d="M1397 1337q0 -19 -11 -39l-747 -1335q-14 -23 -37 -34t-49 -11q-5 0 -10.5 0.5t-10.5 3.5l-94 58q-14 8 -18 23.5t-4 29.5q0 11 2.5 20t7.5 19l750 1335q14 25 34 35t47 10q5 0 10.5 -0.5t10.5 -3.5l96 -57q14 -8 18.5 -24t4.5 -30zM1749 207q0 -62 -21.5 -104t-59.5 -67
t-92 -35.5t-118 -10.5q-65 0 -118.5 10.5t-92.5 35.5t-60.5 67t-21.5 104q0 61 32.5 99.5t98.5 70.5q-62 32 -88 71.5t-26 98.5q0 66 22 107t60 63.5t88 30.5t106 8q63 0 114 -7t87.5 -28.5t56 -60.5t19.5 -103q0 -34 -10 -61.5t-27 -50t-38.5 -39.5t-45.5 -29
q26 -11 50.5 -25.5t43 -34.5t30 -47t11.5 -63zM1526 543q0 24 -14 34.5t-37 10.5h-29q-26 0 -40.5 -8.5t-14.5 -36.5q0 -19 2.5 -31t9 -20.5t18.5 -16.5t31 -18q19 10 33 17t23 15.5t13.5 21t4.5 32.5zM1534 229q0 34 -21 49t-55 29q-14 -7 -28 -13.5t-25 -15.5t-18 -20.5
t-7 -28.5q0 -24 3 -38t11 -21.5t21 -9.5t33 -2h20q39 0 52.5 14t13.5 57zM664 879q0 -122 -75 -186t-206 -64q-19 0 -51 2.5t-66.5 7t-65 11t-46.5 14.5t-24.5 17t-8.5 26q0 13 3.5 35.5t11 44.5t20 38.5t30.5 16.5q6 0 17 -2.5t22.5 -6.5t22.5 -7.5t18 -4.5q28 -8 50.5 -12
t50.5 -4q47 0 64.5 16.5t17.5 61.5q0 23 -6.5 36.5t-19.5 21t-31 9.5t-40 2q-23 0 -37.5 -1.5t-35.5 -4.5l-32 -4t-32 -2q-25 0 -42 13t-17 38v4l26 330q3 29 17.5 44t48.5 15h336q24 0 37.5 -6.5t19.5 -17.5t7 -26.5t1 -33.5q0 -15 -3.5 -31.5t-11 -30.5t-20 -23t-30.5 -9
h-56h-42h-37.5t-37.5 0.5t-42 1.5l-9 -80h43h27t22.5 -0.5t22.5 -2t27 -3.5q46 -9 77 -32.5t50 -56t27 -72.5t8 -82z" />
    <glyph glyph-name="seveneighths" unicode="&#x215e;" horiz-adv-x="1907" 
d="M1335 1337q0 -11 -2.5 -20t-7.5 -19l-747 -1335q-14 -23 -37 -34t-49 -11q-5 0 -10.5 0.5t-10.5 3.5l-94 58q-14 8 -18.5 23.5t-4.5 29.5q0 19 11 39l749 1335q14 25 34 35t48 10q5 0 10.5 -0.5t10.5 -3.5l96 -57q14 -8 18 -24t4 -30zM1749 207q0 -62 -21.5 -104
t-59.5 -67t-92 -35.5t-118 -10.5q-65 0 -118.5 10.5t-92.5 35.5t-60.5 67t-21.5 104q0 61 32.5 99.5t98.5 70.5q-62 32 -88 71.5t-26 98.5q0 66 22 107t60 63.5t88 30.5t106 8q63 0 114 -7t87.5 -28.5t56 -60.5t19.5 -103q0 -34 -10 -61.5t-27 -50t-38.5 -39.5t-45.5 -29
q26 -11 50.5 -25.5t43 -34.5t30 -47t11.5 -63zM1526 543q0 24 -14 34.5t-37 10.5h-29q-26 0 -40.5 -8.5t-14.5 -36.5q0 -19 2.5 -31t9 -20.5t18.5 -16.5t31 -18q19 10 33 17t23 15.5t13.5 21t4.5 32.5zM1534 229q0 34 -21 49t-55 29q-14 -7 -28 -13.5t-25 -15.5t-18 -20.5
t-7 -28.5q0 -24 3 -38t11 -21.5t21 -9.5t33 -2h20q39 0 52.5 14t13.5 57zM711 1329q0 -6 -1.5 -14t-4.5 -15l-283 -585q-6 -13 -13.5 -26.5t-17 -24.5t-22.5 -18t-31 -7h-62q-11 0 -26 2.5t-29.5 7.5t-24.5 13t-10 20q0 11 7 25.5t12 25.5l233 475q-31 -1 -57.5 -1.5
t-52.5 -1t-53 -1t-58 -0.5q-26 0 -39.5 7.5t-19 20t-6 29.5t-0.5 35q0 15 4.5 30.5t12.5 28t20.5 21t27.5 8.5h395q17 0 34.5 -1.5t32 -7t23.5 -16.5t9 -30z" />
    <glyph glyph-name="partialdiff" unicode="&#x2202;" horiz-adv-x="1012" 
d="M426 1138l-135 60q70 157 168 225t192 68q76 0 137.5 -39.5t92.5 -90.5q47 -79 69.5 -187t22.5 -248q0 -288 -86.5 -512.5t-233.5 -331.5t-289 -107q-137 0 -222.5 91t-85.5 256q0 226 153 387q197 207 649 215q-4 168 -24 256t-68 135.5t-113 47.5q-62 0 -121 -49.5
t-106 -175.5zM854 796q-244 -14 -357.5 -68t-187 -176.5t-73.5 -248.5q0 -83 51 -137t119 -54q75 0 160 55q117 76 190.5 234.5t97.5 394.5z" />
    <glyph glyph-name="uni2206" unicode="&#x2206;" horiz-adv-x="1253" 
d="M1227 0h-1200l628 1386zM991 82l-399 967l-440 -967h839z" />
    <glyph glyph-name="product" unicode="&#x220f;" horiz-adv-x="1686" 
d="M161 1491h1362v-1922h-191v1748h-978v-1748h-193v1922z" />
    <glyph glyph-name="summation" unicode="&#x2211;" horiz-adv-x="1460" 
d="M139 1491h1237v-164h-988l607 -775l-649 -822h1040v-161h-1264v187l620 788l-603 772v175z" />
    <glyph glyph-name="minus" unicode="&#x2212;" horiz-adv-x="1237" 
d="M1114 432h-991v250h991v-250z" />
    <glyph glyph-name="fraction" unicode="&#x2215;" horiz-adv-x="967" 
d="M1001 1397q0 -28 -16 -62l-760 -1355q-35 -64 -86 -64q-28 0 -59 21l-47 30q-33 24 -45.5 38t-12.5 38t25 72l762 1353q35 62 82 62q30 0 67 -23l37 -22q53 -32 53 -88z" />
    <glyph glyph-name="periodcentered" unicode="&#x2219;" horiz-adv-x="653" 
d="M530 690q0 -38 -35.5 -87.5t-83 -85.5t-81.5 -36q-83 0 -180 135q-27 33 -27 68q0 26 21.5 63.5t55 71t67.5 54t59 20.5q74 0 178 -135q26 -39 26 -68z" />
    <glyph glyph-name="radical" unicode="&#x221a;" horiz-adv-x="1124" 
d="M1124 1870l-311 -1948l-496 1022l-198 -92l-35 63l301 152l403 -823h5l258 1626h73z" />
    <glyph glyph-name="infinity" unicode="&#x221e;" horiz-adv-x="1460" 
d="M689 812q105 132 164 174q80 58 169 58q105 0 196.5 -76t91.5 -245q0 -118 -34 -185.5t-106 -108.5t-148 -41q-89 0 -169 57q-59 43 -164 175q-136 -171 -289 -171q-101 0 -173.5 76.5t-72.5 190.5q0 113 72.5 190t173.5 77q153 0 289 -171zM758 717q87 -135 159 -185
q46 -33 103 -33q76 0 127.5 56t51.5 158q0 106 -52.5 162t-130.5 56q-49 0 -92 -28q-58 -39 -166 -186zM620 716q-80 100 -128 128.5t-92 28.5q-58 0 -96.5 -41t-38.5 -113q0 -71 40 -113.5t97 -42.5q101 0 218 153z" />
    <glyph glyph-name="integral" unicode="&#x222b;" horiz-adv-x="561" 
d="M561 1755q0 -29 -12.5 -53t-34 -36.5t-47.5 -12.5q-36 0 -76 35q-20 20 -39 20q-41 0 -41 -63q0 -46 11 -146q18 -204 27 -371t9 -294l-2 -121l-14 -471q-6 -190 -49 -320q-22 -67 -68 -104t-106 -37q-54 0 -86.5 33.5t-32.5 87.5q0 44 25 71t65 27q42 0 70 -33
q13 -14 24 -22t25 -8q39 0 39 61q0 37 -10 119q-20 170 -29 395q-3 104 -6 229q-2 70 -2 154l16 553q6 191 66 317q19 40 63.5 69.5t87.5 29.5q31 0 61.5 -15t48 -41t17.5 -53z" />
    <glyph glyph-name="approxequal" unicode="&#x2248;" horiz-adv-x="1124" 
d="M51 738v205q106 120 278 120q60 0 125.5 -17t188.5 -70q69 -30 103.5 -38.5t69.5 -8.5q65 0 134.5 39t123.5 98v-212q-64 -60 -129.5 -87t-147.5 -27q-60 0 -114 13.5t-173 67t-198 53.5q-64 0 -120.5 -27.5t-140.5 -108.5zM51 376v205q106 120 278 120q60 0 125.5 -17
t188.5 -70q69 -29 103.5 -38t69.5 -9q65 0 134.5 39t123.5 98v-212q-64 -60 -129.5 -87t-147.5 -27q-60 0 -114 14t-173 67t-198 53q-64 0 -120.5 -27.5t-140.5 -108.5z" />
    <glyph glyph-name="notequal" unicode="&#x2260;" horiz-adv-x="1124" 
d="M495 417l-194 -445h-136l195 445h-282v168h356l122 277h-478v168h551l196 444h134l-195 -444h282v-168h-356l-121 -277h477v-168h-551z" />
    <glyph glyph-name="lessequal" unicode="&#x2264;" horiz-adv-x="1124" 
d="M1182 102l-1243 476v194l1243 473v-284l-764 -287l764 -285v-287zM1186 -268h-1247v241h1247v-241z" />
    <glyph glyph-name="greaterequal" unicode="&#x2265;" horiz-adv-x="1124" 
d="M1184 578l-1241 -476v287l764 285l-764 287v284l1241 -473v-194zM1165 -268h-1224v241h1224v-241z" />
    <glyph glyph-name="lozenge" unicode="&#x25ca;" horiz-adv-x="1012" 
d="M549 1422l418 -713l-418 -709h-111l-391 709l391 713h111zM495 1325l-340 -616l340 -615l359 615z" />
    <glyph glyph-name="uniF001" unicode="&#xf001;" horiz-adv-x="1348" 
d="M1208 1192q0 -111 -104 -111h-80q-68 0 -99.5 22t-31.5 89v68q0 108 113 108h98q55 0 79.5 -33t24.5 -75v-68zM1208 111q0 -111 -104 -111h-80q-68 0 -99.5 22t-31.5 89v735q0 106 113 106h98q55 0 79.5 -32.5t24.5 -73.5v-735zM801 1249q0 -60 -16 -95.5t-68 -35.5
q-10 0 -61 9.5t-113 9.5q-26 0 -38 -3.5t-18.5 -14.5t-8 -31t-1.5 -66v-70h156q117 0 117 -98v-27q0 -64 -24 -94.5t-93 -30.5h-156v-591q0 -111 -104 -111h-74q-68 0 -99.5 22t-31.5 89v591q-61 0 -86 26.5t-25 80.5v45q0 51 34 74.5t77 23.5v70q0 102 12.5 148t44.5 90
q37 48 88 75.5t120 38t165 10.5q86 0 131.5 -12.5t58.5 -33.5t13 -54v-35z" />
    <glyph glyph-name="uniF001" unicode="&#xfb01;" horiz-adv-x="1348" 
d="M1208 1192q0 -111 -104 -111h-80q-68 0 -99.5 22t-31.5 89v68q0 108 113 108h98q55 0 79.5 -33t24.5 -75v-68zM1208 111q0 -111 -104 -111h-80q-68 0 -99.5 22t-31.5 89v735q0 106 113 106h98q55 0 79.5 -32.5t24.5 -73.5v-735zM801 1249q0 -60 -16 -95.5t-68 -35.5
q-10 0 -61 9.5t-113 9.5q-26 0 -38 -3.5t-18.5 -14.5t-8 -31t-1.5 -66v-70h156q117 0 117 -98v-27q0 -64 -24 -94.5t-93 -30.5h-156v-591q0 -111 -104 -111h-74q-68 0 -99.5 22t-31.5 89v591q-61 0 -86 26.5t-25 80.5v45q0 51 34 74.5t77 23.5v70q0 102 12.5 148t44.5 90
q37 48 88 75.5t120 38t165 10.5q86 0 131.5 -12.5t58.5 -33.5t13 -54v-35z" />
    <glyph glyph-name="uniF002" unicode="&#xf002;" horiz-adv-x="1434" 
d="M1294 111q0 -111 -106 -111h-74q-68 0 -99.5 22t-31.5 89v1149q0 108 115 108h90q38 0 62 -17t34 -42.5t10 -48.5v-1149zM801 1249q0 -60 -16 -95.5t-68 -35.5q-10 0 -61 9.5t-113 9.5q-26 0 -38 -3.5t-18.5 -14.5t-8 -31t-1.5 -66v-70h156q117 0 117 -98v-27
q0 -64 -24 -94.5t-93 -30.5h-156v-591q0 -111 -104 -111h-74q-68 0 -99.5 22t-31.5 89v591q-61 0 -86 26.5t-25 80.5v45q0 51 34 74.5t77 23.5v70q0 102 12.5 148t44.5 90q37 48 88 75.5t120 38t165 10.5q86 0 131.5 -12.5t58.5 -33.5t13 -54v-35z" />
    <glyph glyph-name="uniF002" unicode="&#xfb02;" horiz-adv-x="1434" 
d="M1294 111q0 -111 -106 -111h-74q-68 0 -99.5 22t-31.5 89v1149q0 108 115 108h90q38 0 62 -17t34 -42.5t10 -48.5v-1149zM801 1249q0 -60 -16 -95.5t-68 -35.5q-10 0 -61 9.5t-113 9.5q-26 0 -38 -3.5t-18.5 -14.5t-8 -31t-1.5 -66v-70h156q117 0 117 -98v-27
q0 -64 -24 -94.5t-93 -30.5h-156v-591q0 -111 -104 -111h-74q-68 0 -99.5 22t-31.5 89v591q-61 0 -86 26.5t-25 80.5v45q0 51 34 74.5t77 23.5v70q0 102 12.5 148t44.5 90q37 48 88 75.5t120 38t165 10.5q86 0 131.5 -12.5t58.5 -33.5t13 -54v-35z" />
    </font>
</defs>
</svg>
